<svg width="179" height="47" viewBox="0 0 179 47" fill="none" xmlns="http://www.w3.org/2000/svg">
<path d="M26.8605 11.0575H43.69C43.7311 11.0575 44.3292 11.3085 44.4418 11.3612C45.3026 11.7694 45.8316 12.6595 45.9653 13.5919C45.6721 19.1978 46.398 25.2741 45.9829 30.8249C45.9055 31.8534 45.4563 32.8386 44.5157 33.3452C44.3714 33.4226 43.6736 33.6936 43.5739 33.6936H26.8616V43.3691C26.8616 44.692 24.6486 46.5603 23.2823 46.4747H3.70016C1.64426 46.2905 0.208757 44.8316 0 42.7862V4.30923C0.158327 2.11493 1.62784 0.671224 3.81158 0.498823C10.0931 0.0015589 17.0372 0.86708 23.3867 0.517588C24.7131 0.436665 26.8605 2.34597 26.8605 3.61142V11.0587V11.0575ZM25.805 4.95895C25.975 2.93706 24.8046 1.68921 22.8202 1.55199C16.6349 1.12392 9.9488 1.87216 3.71072 1.56958C1.90344 1.77951 0.975764 3.20328 1.05903 4.95778H25.805V4.95895ZM25.805 6.13175H1.05903V38.6181H25.805V33.6924H13.1974C13.1388 33.6924 12.3507 33.4215 12.2357 33.364C11.3139 32.9054 10.8624 31.9332 10.7885 30.941C10.371 25.3116 11.1005 19.158 10.8061 13.4746C10.907 12.6454 11.4957 11.7705 12.2346 11.3847C12.3319 11.3343 13.0344 11.0563 13.079 11.0563H25.8038V6.13057L25.805 6.13175ZM44.9215 16.4523V13.6963C44.9215 13.1439 44.1756 12.3006 43.6103 12.1927L13.5493 12.1118C13.2103 12.1505 12.6216 12.3499 12.3741 12.5786C12.244 12.6982 11.8487 13.4582 11.8487 13.5778V16.4512H44.9215V16.4523ZM44.9215 17.5078H11.8487V31.1709C11.8487 31.8523 13.0673 32.7588 13.7791 32.6416H42.8738C43.7276 32.7624 44.9215 31.9144 44.9215 31.0536V17.5078ZM25.805 39.6736H1.23495L1.05903 39.8495V42.8988C1.05903 42.968 1.32877 43.7303 1.38976 43.8582C1.89992 44.916 2.92495 45.337 4.04496 45.425C10.1505 45.9035 16.8765 45.0603 23.0466 45.4191C23.9297 45.3617 24.9781 44.8292 25.4355 44.0552C25.4942 43.9567 25.8038 43.1838 25.8038 43.1334V39.6736H25.805Z" fill="#818181"/>
<path d="M35.9766 20.1149C36.6404 19.9789 39.3202 20.0059 40.0555 20.088C43.0942 20.4304 43.1974 25.26 39.8198 25.5989C38.8698 25.6939 36.3132 25.7103 35.5133 25.3339C33.197 24.2443 33.5583 20.6099 35.9777 20.1149H35.9766ZM36.2111 21.1705C34.792 21.459 34.6548 23.6779 35.9261 24.3335C36.516 24.6372 38.9555 24.6243 39.6896 24.5317C41.8886 24.2526 41.7103 21.3675 39.8233 21.1411C39.1795 21.0637 36.8022 21.0508 36.2123 21.1705H36.2111Z" fill="#818181"/>
<path d="M17.7713 29.0012C18.3835 29.1032 18.1196 30.0567 17.8886 30.0567H14.7221C14.3503 30.0567 14.3503 29.0012 14.7221 29.0012C15.5735 29.0012 17.0102 28.8734 17.7713 29.0012Z" fill="#818181"/>
<path d="M25.3944 30.0567C25.0414 29.9465 25.0801 29.2393 25.453 29.0587C25.643 28.966 28.2853 28.9461 28.5387 29.0235C29.1696 29.2158 28.8154 30.0567 28.5609 30.0567C27.9405 30.0567 25.7943 30.181 25.3944 30.0567Z" fill="#818181"/>
<path d="M30.9067 29.0012H33.9559C34.3277 29.0012 34.3277 30.0567 33.9559 30.0567H30.7894C30.4716 30.0567 30.4164 29.1349 30.9067 29.0012Z" fill="#818181"/>
<path d="M19.9409 30.0567C19.8084 29.7166 19.6079 29.278 20.0582 29.0586C20.2482 28.9672 22.8905 28.9461 23.1438 29.0235C23.7748 29.2158 23.4206 30.0567 23.1661 30.0567H19.9409Z" fill="#818181"/>
<path d="M11.4664 40.64C12.1724 40.511 14.4382 40.5321 15.1923 40.6118C17.4206 40.8499 17.2764 44.2487 15.312 44.4856C14.5227 44.5806 12.3436 44.5806 11.5532 44.4856C9.63564 44.2557 9.56879 40.986 11.4652 40.64H11.4664ZM11.4101 41.8163C11.0043 42.1975 11.0113 43.2436 11.6986 43.4019C12.0997 43.4946 14.7666 43.5028 15.1888 43.4242C15.9101 43.2893 16.0016 41.8773 15.1665 41.6932C14.6188 41.5724 12.6485 41.6099 12.0199 41.6638C11.8264 41.6803 11.5555 41.6791 11.4101 41.8163Z" fill="#818181"/>
<path d="M8.82521 3.7627C8.42294 3.47536 8.66571 2.8057 9.32599 2.72947C10.6829 2.57231 14.4229 2.57231 15.781 2.72947C16.0578 2.76113 16.3792 2.82095 16.4296 3.14581C16.4695 3.45191 16.3393 3.7369 16.0097 3.78381C15.0774 3.62314 9.18174 4.0172 8.82638 3.7627H8.82521Z" fill="#818181"/>
<path d="M17.4441 2.75408C18.5512 2.42101 18.6626 4.08755 17.5438 3.90459C16.9738 3.81194 16.9762 2.89482 17.4441 2.75408Z" fill="#818181"/>
<path d="M67.8333 29.5653C66.8437 29.5653 65.9609 29.3231 65.1848 28.8387C64.4088 28.3543 63.7994 27.6668 63.3567 26.7762C62.914 25.8804 62.6926 24.8205 62.6926 23.5965C62.6926 22.3674 62.914 21.3049 63.3567 20.409C63.7994 19.5132 64.4088 18.8231 65.1848 18.3387C65.9609 17.8543 66.8437 17.6122 67.8333 17.6122C68.4166 17.6122 68.9661 17.6981 69.4817 17.87C70.0025 18.0418 70.4713 18.2918 70.8879 18.62C71.3046 18.9429 71.651 19.3413 71.927 19.8153C72.2083 20.284 72.401 20.8153 72.5051 21.409H71.0989C71.0155 21.0028 70.8697 20.646 70.6614 20.3387C70.4583 20.0314 70.2083 19.7736 69.9114 19.5653C69.6197 19.3517 69.2968 19.1929 68.9426 19.0887C68.5885 18.9793 68.2187 18.9247 67.8333 18.9247C67.1301 18.9247 66.4921 19.1043 65.9192 19.4637C65.3463 19.8179 64.8905 20.3439 64.552 21.0418C64.2187 21.7345 64.052 22.5861 64.052 23.5965C64.052 24.6017 64.2187 25.4507 64.552 26.1434C64.8905 26.8361 65.3463 27.3622 65.9192 27.7215C66.4921 28.0757 67.1301 28.2528 67.8333 28.2528C68.2187 28.2528 68.5885 28.2007 68.9426 28.0965C69.2968 27.9872 69.6197 27.8283 69.9114 27.62C70.2083 27.4064 70.4583 27.146 70.6614 26.8387C70.8697 26.5314 71.0155 26.1747 71.0989 25.7684H72.5051C72.401 26.3674 72.2083 26.9012 71.927 27.37C71.651 27.8387 71.3046 28.2372 70.8879 28.5653C70.4713 28.8882 70.0025 29.1356 69.4817 29.3075C68.9661 29.4793 68.4166 29.5653 67.8333 29.5653ZM76.427 29.6122C75.8749 29.6122 75.3723 29.508 74.9192 29.2997C74.4661 29.0861 74.1067 28.7788 73.8411 28.3778C73.5754 27.9767 73.4426 27.4924 73.4426 26.9247C73.4426 26.4247 73.5416 26.021 73.7395 25.7137C73.9374 25.4012 74.2004 25.1564 74.5286 24.9793C74.8619 24.797 75.2265 24.6616 75.6223 24.5731C76.0234 24.4845 76.427 24.4142 76.8333 24.3622C77.3645 24.2944 77.7942 24.2424 78.1223 24.2059C78.4556 24.1694 78.6978 24.1069 78.8489 24.0184C79.0051 23.9299 79.0833 23.7788 79.0833 23.5653V23.5184C79.0833 22.9611 78.9296 22.5288 78.6223 22.2215C78.3202 21.909 77.8593 21.7528 77.2395 21.7528C76.6041 21.7528 76.1041 21.8934 75.7395 22.1747C75.3749 22.4507 75.1197 22.7476 74.9739 23.0653L73.6926 22.6122C73.9218 22.0809 74.2265 21.6668 74.6067 21.37C74.9921 21.0731 75.4088 20.8648 75.8567 20.745C76.3098 20.6252 76.7551 20.5653 77.1926 20.5653C77.4739 20.5653 77.7968 20.5991 78.1614 20.6668C78.526 20.7293 78.8801 20.8648 79.2239 21.0731C79.5728 21.2762 79.8593 21.5861 80.0833 22.0028C80.3124 22.4142 80.427 22.9663 80.427 23.659V29.409H79.0833V28.2215H79.0208C78.9322 28.409 78.7812 28.6122 78.5676 28.8309C78.3541 29.0444 78.0702 29.2293 77.7161 29.3856C77.3671 29.5366 76.9374 29.6122 76.427 29.6122ZM76.6301 28.409C77.1614 28.409 77.6093 28.3049 77.9739 28.0965C78.3385 27.8882 78.6145 27.62 78.802 27.2918C78.9895 26.9585 79.0833 26.6122 79.0833 26.2528V25.0184C79.026 25.0861 78.901 25.1486 78.7083 25.2059C78.5208 25.258 78.302 25.3049 78.052 25.3465C77.8072 25.3882 77.5676 25.4247 77.3333 25.4559C77.0989 25.4819 76.9114 25.5028 76.7708 25.5184C76.4218 25.5653 76.0963 25.6408 75.7942 25.745C75.4921 25.8439 75.2473 25.9924 75.0598 26.1903C74.8775 26.3882 74.7864 26.659 74.7864 27.0028C74.7864 27.4663 74.9583 27.8179 75.302 28.0575C75.651 28.2918 76.0937 28.409 76.6301 28.409ZM83.4739 24.159V29.409H82.1458V20.6747H83.427V22.0497H83.552C83.7551 21.6017 84.065 21.2424 84.4817 20.9715C84.8984 20.7007 85.4374 20.5653 86.0989 20.5653C86.6874 20.5653 87.203 20.6851 87.6458 20.9247C88.0885 21.1642 88.4322 21.5288 88.677 22.0184C88.927 22.5028 89.052 23.1174 89.052 23.8622V29.409H87.7239V23.9559C87.7239 23.2736 87.5442 22.7398 87.1848 22.3543C86.8254 21.9637 86.3359 21.7684 85.7161 21.7684C85.289 21.7684 84.9062 21.8622 84.5676 22.0497C84.2291 22.2372 83.9609 22.508 83.7629 22.8622C83.5702 23.2163 83.4739 23.6486 83.4739 24.159ZM93.3333 29.6122C92.7812 29.6122 92.2786 29.508 91.8254 29.2997C91.3723 29.0861 91.0129 28.7788 90.7473 28.3778C90.4817 27.9767 90.3489 27.4924 90.3489 26.9247C90.3489 26.4247 90.4478 26.021 90.6458 25.7137C90.8437 25.4012 91.1067 25.1564 91.4348 24.9793C91.7681 24.797 92.1327 24.6616 92.5286 24.5731C92.9296 24.4845 93.3333 24.4142 93.7395 24.3622C94.2708 24.2944 94.7004 24.2424 95.0286 24.2059C95.3619 24.1694 95.6041 24.1069 95.7551 24.0184C95.9114 23.9299 95.9895 23.7788 95.9895 23.5653V23.5184C95.9895 22.9611 95.8359 22.5288 95.5286 22.2215C95.2265 21.909 94.7655 21.7528 94.1458 21.7528C93.5103 21.7528 93.0103 21.8934 92.6458 22.1747C92.2812 22.4507 92.026 22.7476 91.8801 23.0653L90.5989 22.6122C90.828 22.0809 91.1327 21.6668 91.5129 21.37C91.8984 21.0731 92.315 20.8648 92.7629 20.745C93.2161 20.6252 93.6614 20.5653 94.0989 20.5653C94.3801 20.5653 94.703 20.5991 95.0676 20.6668C95.4322 20.7293 95.7864 20.8648 96.1301 21.0731C96.4791 21.2762 96.7655 21.5861 96.9895 22.0028C97.2187 22.4142 97.3333 22.9663 97.3333 23.659V29.409H95.9895V28.2215H95.927C95.8385 28.409 95.6874 28.6122 95.4739 28.8309C95.2603 29.0444 94.9765 29.2293 94.6223 29.3856C94.2734 29.5366 93.8437 29.6122 93.3333 29.6122ZM93.5364 28.409C94.0676 28.409 94.5155 28.3049 94.8801 28.0965C95.2447 27.8882 95.5208 27.62 95.7083 27.2918C95.8958 26.9585 95.9895 26.6122 95.9895 26.2528V25.0184C95.9322 25.0861 95.8072 25.1486 95.6145 25.2059C95.427 25.258 95.2083 25.3049 94.9583 25.3465C94.7135 25.3882 94.4739 25.4247 94.2395 25.4559C94.0051 25.4819 93.8176 25.5028 93.677 25.5184C93.328 25.5653 93.0025 25.6408 92.7004 25.745C92.3984 25.8439 92.1536 25.9924 91.9661 26.1903C91.7838 26.3882 91.6926 26.659 91.6926 27.0028C91.6926 27.4663 91.8645 27.8179 92.2083 28.0575C92.5572 28.2918 92.9999 28.409 93.5364 28.409ZM100.38 17.7684V29.409H99.052V17.7684H100.38ZM105.755 29.5965C104.917 29.5965 104.19 29.409 103.575 29.034C102.966 28.659 102.497 28.1356 102.169 27.4637C101.841 26.7866 101.677 26.0028 101.677 25.1122C101.677 24.2163 101.838 23.4273 102.161 22.745C102.484 22.0627 102.937 21.5288 103.521 21.1434C104.109 20.758 104.797 20.5653 105.583 20.5653C106.036 20.5653 106.487 20.6408 106.935 20.7918C107.383 20.9429 107.789 21.1877 108.154 21.5262C108.523 21.8648 108.818 22.3127 109.036 22.87C109.255 23.4273 109.365 24.1122 109.365 24.9247V25.5028H102.63V24.3465H108.638L108.021 24.784C108.021 24.2007 107.93 23.6825 107.747 23.2293C107.565 22.7762 107.292 22.4194 106.927 22.159C106.568 21.8986 106.12 21.7684 105.583 21.7684C105.047 21.7684 104.586 21.9012 104.2 22.1668C103.82 22.4273 103.529 22.7684 103.325 23.1903C103.122 23.6122 103.021 24.0653 103.021 24.5497V25.3153C103.021 25.9767 103.135 26.5366 103.365 26.995C103.594 27.4533 103.914 27.8023 104.325 28.0418C104.737 28.2762 105.213 28.3934 105.755 28.3934C106.104 28.3934 106.422 28.3439 106.708 28.245C106.995 28.1408 107.242 27.9872 107.45 27.784C107.659 27.5757 107.818 27.3205 107.927 27.0184L109.224 27.3934C109.088 27.8309 108.859 28.2163 108.536 28.5497C108.219 28.8778 107.823 29.1356 107.349 29.3231C106.875 29.5054 106.344 29.5965 105.755 29.5965ZM116.802 22.6434L115.599 22.9715C115.484 22.6747 115.286 22.3934 115.005 22.1278C114.729 21.8569 114.297 21.7215 113.708 21.7215C113.177 21.7215 112.734 21.8465 112.38 22.0965C112.026 22.3413 111.849 22.6486 111.849 23.0184C111.849 23.3517 111.969 23.6174 112.208 23.8153C112.453 24.0132 112.833 24.1747 113.349 24.2997L114.646 24.6122C115.422 24.7997 116 25.0887 116.38 25.4793C116.766 25.87 116.958 26.3674 116.958 26.9715C116.958 27.4715 116.815 27.9194 116.529 28.3153C116.242 28.7111 115.844 29.0236 115.333 29.2528C114.823 29.4819 114.229 29.5965 113.552 29.5965C112.661 29.5965 111.924 29.4012 111.341 29.0106C110.763 28.62 110.396 28.0549 110.24 27.3153L111.505 27.0028C111.625 27.4715 111.854 27.8231 112.193 28.0575C112.536 28.2918 112.984 28.409 113.536 28.409C114.156 28.409 114.651 28.2762 115.021 28.0106C115.396 27.7398 115.583 27.4194 115.583 27.0497C115.583 26.4351 115.151 26.0236 114.286 25.8153L112.833 25.4715C112.031 25.2788 111.443 24.9845 111.068 24.5887C110.693 24.1929 110.505 23.6955 110.505 23.0965C110.505 22.6017 110.643 22.1642 110.919 21.784C111.2 21.4038 111.583 21.1069 112.068 20.8934C112.552 20.6747 113.099 20.5653 113.708 20.5653C114.578 20.5653 115.258 20.758 115.747 21.1434C116.242 21.5236 116.594 22.0236 116.802 22.6434ZM125.271 29.5965C124.542 29.5965 123.898 29.4116 123.341 29.0418C122.784 28.672 122.349 28.1486 122.036 27.4715C121.724 26.7892 121.568 25.9872 121.568 25.0653C121.568 24.1486 121.724 23.3543 122.036 22.6825C122.354 22.0054 122.792 21.4845 123.349 21.12C123.906 20.7502 124.552 20.5653 125.286 20.5653C125.859 20.5653 126.31 20.659 126.638 20.8465C126.971 21.034 127.226 21.2476 127.404 21.4872C127.581 21.7215 127.719 21.9142 127.818 22.0653H127.927V17.7684H129.255V29.409H127.974V28.0653H127.818C127.719 28.2215 127.578 28.422 127.396 28.6668C127.213 28.9064 126.953 29.1226 126.615 29.3153C126.281 29.5028 125.833 29.5965 125.271 29.5965ZM125.443 28.3934C125.984 28.3934 126.44 28.2528 126.81 27.9715C127.18 27.6851 127.461 27.2918 127.654 26.7918C127.846 26.2866 127.943 25.7059 127.943 25.0497C127.943 24.3934 127.849 23.8205 127.661 23.3309C127.474 22.8361 127.193 22.4533 126.818 22.1825C126.448 21.9064 125.99 21.7684 125.443 21.7684C124.88 21.7684 124.411 21.9142 124.036 22.2059C123.661 22.4976 123.38 22.8908 123.193 23.3856C123.005 23.8804 122.911 24.4351 122.911 25.0497C122.911 25.6694 123.005 26.2319 123.193 26.7372C123.385 27.2424 123.669 27.646 124.044 27.9481C124.419 28.245 124.885 28.3934 125.443 28.3934ZM134.63 29.5965C133.792 29.5965 133.065 29.409 132.45 29.034C131.841 28.659 131.372 28.1356 131.044 27.4637C130.716 26.7866 130.552 26.0028 130.552 25.1122C130.552 24.2163 130.713 23.4273 131.036 22.745C131.359 22.0627 131.812 21.5288 132.396 21.1434C132.984 20.758 133.672 20.5653 134.458 20.5653C134.911 20.5653 135.362 20.6408 135.81 20.7918C136.258 20.9429 136.664 21.1877 137.029 21.5262C137.398 21.8648 137.693 22.3127 137.911 22.87C138.13 23.4273 138.24 24.1122 138.24 24.9247V25.5028H131.505V24.3465H137.513L136.896 24.784C136.896 24.2007 136.805 23.6825 136.622 23.2293C136.44 22.7762 136.167 22.4194 135.802 22.159C135.443 21.8986 134.995 21.7684 134.458 21.7684C133.922 21.7684 133.461 21.9012 133.075 22.1668C132.695 22.4273 132.404 22.7684 132.2 23.1903C131.997 23.6122 131.896 24.0653 131.896 24.5497V25.3153C131.896 25.9767 132.01 26.5366 132.24 26.995C132.469 27.4533 132.789 27.8023 133.2 28.0418C133.612 28.2762 134.088 28.3934 134.63 28.3934C134.979 28.3934 135.297 28.3439 135.583 28.245C135.87 28.1408 136.117 27.9872 136.325 27.784C136.534 27.5757 136.693 27.3205 136.802 27.0184L138.099 27.3934C137.963 27.8309 137.734 28.2163 137.411 28.5497C137.094 28.8778 136.698 29.1356 136.224 29.3231C135.75 29.5054 135.219 29.5965 134.63 29.5965ZM143.255 32.6747V20.6747H144.536V22.0653H144.693C144.792 21.9142 144.93 21.7215 145.107 21.4872C145.284 21.2476 145.539 21.034 145.872 20.8465C146.206 20.659 146.656 20.5653 147.224 20.5653C147.958 20.5653 148.604 20.7502 149.161 21.12C149.719 21.4845 150.154 22.0054 150.466 22.6825C150.784 23.3543 150.943 24.1486 150.943 25.0653C150.943 25.9872 150.786 26.7892 150.474 27.4715C150.161 28.1486 149.726 28.672 149.169 29.0418C148.612 29.4116 147.969 29.5965 147.24 29.5965C146.682 29.5965 146.234 29.5028 145.896 29.3153C145.557 29.1226 145.297 28.9064 145.115 28.6668C144.932 28.422 144.792 28.2215 144.693 28.0653H144.583V32.6747H143.255ZM147.068 28.3934C147.625 28.3934 148.091 28.245 148.466 27.9481C148.841 27.646 149.122 27.2424 149.31 26.7372C149.503 26.2319 149.599 25.6694 149.599 25.0497C149.599 24.4351 149.505 23.8804 149.318 23.3856C149.13 22.8908 148.849 22.4976 148.474 22.2059C148.104 21.9142 147.635 21.7684 147.068 21.7684C146.521 21.7684 146.062 21.9064 145.693 22.1825C145.323 22.4533 145.042 22.8361 144.849 23.3309C144.661 23.8205 144.568 24.3934 144.568 25.0497C144.568 25.7059 144.664 26.2866 144.857 26.7918C145.049 27.2918 145.331 27.6851 145.7 27.9715C146.075 28.2528 146.531 28.3934 147.068 28.3934ZM154.802 29.6122C154.25 29.6122 153.747 29.508 153.294 29.2997C152.841 29.0861 152.482 28.7788 152.216 28.3778C151.95 27.9767 151.818 27.4924 151.818 26.9247C151.818 26.4247 151.917 26.021 152.115 25.7137C152.312 25.4012 152.575 25.1564 152.904 24.9793C153.237 24.797 153.601 24.6616 153.997 24.5731C154.398 24.4845 154.802 24.4142 155.208 24.3622C155.74 24.2944 156.169 24.2424 156.497 24.2059C156.831 24.1694 157.073 24.1069 157.224 24.0184C157.38 23.9299 157.458 23.7788 157.458 23.5653V23.5184C157.458 22.9611 157.305 22.5288 156.997 22.2215C156.695 21.909 156.234 21.7528 155.615 21.7528C154.979 21.7528 154.479 21.8934 154.115 22.1747C153.75 22.4507 153.495 22.7476 153.349 23.0653L152.068 22.6122C152.297 22.0809 152.601 21.6668 152.982 21.37C153.367 21.0731 153.784 20.8648 154.232 20.745C154.685 20.6252 155.13 20.5653 155.568 20.5653C155.849 20.5653 156.172 20.5991 156.536 20.6668C156.901 20.7293 157.255 20.8648 157.599 21.0731C157.948 21.2762 158.234 21.5861 158.458 22.0028C158.687 22.4142 158.802 22.9663 158.802 23.659V29.409H157.458V28.2215H157.396C157.307 28.409 157.156 28.6122 156.943 28.8309C156.729 29.0444 156.445 29.2293 156.091 29.3856C155.742 29.5366 155.312 29.6122 154.802 29.6122ZM155.005 28.409C155.536 28.409 155.984 28.3049 156.349 28.0965C156.713 27.8882 156.99 27.62 157.177 27.2918C157.365 26.9585 157.458 26.6122 157.458 26.2528V25.0184C157.401 25.0861 157.276 25.1486 157.083 25.2059C156.896 25.258 156.677 25.3049 156.427 25.3465C156.182 25.3882 155.943 25.4247 155.708 25.4559C155.474 25.4819 155.286 25.5028 155.146 25.5184C154.797 25.5653 154.471 25.6408 154.169 25.745C153.867 25.8439 153.622 25.9924 153.435 26.1903C153.253 26.3882 153.161 26.659 153.161 27.0028C153.161 27.4663 153.333 27.8179 153.677 28.0575C154.026 28.2918 154.469 28.409 155.005 28.409ZM164.036 32.8622C163.062 32.8622 162.292 32.6851 161.724 32.3309C161.161 31.9767 160.745 31.5705 160.474 31.1122L161.536 30.3622C161.656 30.5236 161.81 30.7059 161.997 30.909C162.185 31.1174 162.44 31.297 162.763 31.4481C163.086 31.5991 163.51 31.6747 164.036 31.6747C164.74 31.6747 165.32 31.5054 165.779 31.1668C166.242 30.8283 166.474 30.2944 166.474 29.5653V27.7997H166.349C166.255 27.9559 166.117 28.1512 165.935 28.3856C165.758 28.6148 165.5 28.8205 165.161 29.0028C164.828 29.1799 164.375 29.2684 163.802 29.2684C163.099 29.2684 162.469 29.1017 161.911 28.7684C161.354 28.4351 160.911 27.9507 160.583 27.3153C160.26 26.6799 160.099 25.909 160.099 25.0028C160.099 24.1069 160.255 23.3283 160.568 22.6668C160.885 22.0002 161.325 21.4845 161.888 21.12C162.45 20.7502 163.099 20.5653 163.833 20.5653C164.401 20.5653 164.851 20.659 165.185 20.8465C165.523 21.034 165.781 21.2476 165.958 21.4872C166.141 21.7215 166.281 21.9142 166.38 22.0653H166.521V20.6747H167.802V29.659C167.802 30.409 167.633 31.0184 167.294 31.4872C166.961 31.9611 166.508 32.3075 165.935 32.5262C165.367 32.7502 164.734 32.8622 164.036 32.8622ZM163.99 28.0653C164.797 28.0653 165.414 27.7918 165.841 27.245C166.273 26.6981 166.49 25.9403 166.49 24.9715C166.49 24.3413 166.396 23.7866 166.208 23.3075C166.021 22.8283 165.74 22.4533 165.365 22.1825C164.995 21.9064 164.536 21.7684 163.99 21.7684C163.422 21.7684 162.948 21.9142 162.568 22.2059C162.193 22.4924 161.911 22.8778 161.724 23.3622C161.536 23.8465 161.443 24.383 161.443 24.9715C161.443 25.5757 161.536 26.1122 161.724 26.5809C161.917 27.0444 162.203 27.409 162.583 27.6747C162.963 27.9351 163.432 28.0653 163.99 28.0653ZM173.052 29.5965C172.266 29.5965 171.575 29.409 170.982 29.034C170.388 28.659 169.924 28.133 169.591 27.4559C169.263 26.7788 169.099 25.9924 169.099 25.0965C169.099 24.1851 169.263 23.3908 169.591 22.7137C169.924 22.0314 170.388 21.5028 170.982 21.1278C171.575 20.7528 172.266 20.5653 173.052 20.5653C173.844 20.5653 174.536 20.7528 175.13 21.1278C175.724 21.5028 176.187 22.0314 176.521 22.7137C176.854 23.3908 177.021 24.1851 177.021 25.0965C177.021 25.9924 176.854 26.7788 176.521 27.4559C176.187 28.133 175.724 28.659 175.13 29.034C174.536 29.409 173.844 29.5965 173.052 29.5965ZM173.052 28.3934C173.656 28.3934 174.151 28.2398 174.536 27.9325C174.922 27.6252 175.208 27.2215 175.396 26.7215C175.583 26.2163 175.677 25.6747 175.677 25.0965C175.677 24.508 175.583 23.9611 175.396 23.4559C175.208 22.9507 174.922 22.5444 174.536 22.2372C174.151 21.9247 173.656 21.7684 173.052 21.7684C172.458 21.7684 171.969 21.9247 171.583 22.2372C171.198 22.5444 170.911 22.9507 170.724 23.4559C170.536 23.9611 170.443 24.508 170.443 25.0965C170.443 25.6747 170.536 26.2163 170.724 26.7215C170.911 27.2215 171.198 27.6252 171.583 27.9325C171.969 28.2398 172.458 28.3934 173.052 28.3934Z" fill="#818181"/>
</svg>
