<svg width="127" height="42" viewBox="0 0 127 42" fill="none" xmlns="http://www.w3.org/2000/svg">
<path d="M11.6357 24.5173C14.8908 24.1267 24.0712 24.1047 27.1127 24.8187C30.9707 25.7243 35.1636 28.7381 36.5666 32.5258C37.9682 36.312 37.6873 37.9915 33.8908 39.5599C28.1354 41.9372 8.34539 41.9562 2.7304 39.2526C-0.134152 37.873 -0.398955 36.7026 0.372045 33.6479C1.58048 28.8595 6.86337 25.0908 11.6357 24.5173ZM12.1331 26.2568C7.88601 26.7411 3.18393 29.8426 2.11448 34.1453C1.51318 36.5636 1.87747 37.0523 4.23436 37.9988C9.31975 40.0397 27.5487 40.0119 32.7175 38.1364C35.3319 37.1883 35.882 36.6412 35.1402 33.9536C34.1468 30.3517 30.7249 27.6862 27.2225 26.7001C24.1999 25.8486 15.4219 25.8837 12.1331 26.2583V26.2568Z" fill="#5A1160"/>
<path d="M17.1073 0.392418C32.6209 -1.47729 34.5214 21.8268 19.5212 22.9504C4.90587 24.0462 3.05518 2.08511 17.1073 0.392418ZM17.6047 2.13485C3.65939 3.65637 8.64676 25.7023 22.2292 20.4355C32.3517 16.5103 28.5421 0.941043 17.6047 2.13485Z" fill="#5A1160"/>
<path d="M54.0913 15.1588H57.1304L60.3335 22.9791H60.4663L63.6772 15.1588H66.7241V26.7994H64.3179V19.2213H64.2241L61.2007 26.7448H59.5757L56.5757 19.2057H56.4819V26.7994H54.0913V15.1588ZM68.1929 26.7994V18.0651H70.6069V26.7994H68.1929ZM69.396 16.9479C69.0366 16.9479 68.7293 16.8281 68.4741 16.5885C68.2189 16.3489 68.0913 16.0599 68.0913 15.7213C68.0913 15.3828 68.2189 15.0963 68.4741 14.8619C68.7293 14.6224 69.0366 14.5026 69.396 14.5026C69.7606 14.5026 70.0705 14.6224 70.3257 14.8619C70.5809 15.0963 70.7085 15.3828 70.7085 15.7213C70.7085 16.0599 70.5809 16.3489 70.3257 16.5885C70.0705 16.8281 69.7606 16.9479 69.396 16.9479ZM79.1538 26.9713C78.2632 26.9713 77.4976 26.7812 76.8569 26.401C76.2163 26.0156 75.7241 25.4869 75.3804 24.8151C75.0366 24.138 74.8647 23.3567 74.8647 22.4713C74.8647 21.5755 75.0366 20.789 75.3804 20.1119C75.7293 19.4349 76.2241 18.9062 76.8647 18.526C77.5054 18.1458 78.2684 17.9557 79.1538 17.9557C79.9142 17.9557 80.5783 18.0937 81.146 18.3698C81.7189 18.6458 82.172 19.0338 82.5054 19.5338C82.8387 20.0338 83.021 20.6224 83.0522 21.2994H80.771C80.7293 21.0078 80.6408 20.7526 80.5054 20.5338C80.37 20.3151 80.1903 20.1458 79.9663 20.026C79.7424 19.9062 79.4819 19.8463 79.1851 19.8463C78.8101 19.8463 78.4819 19.9479 78.2007 20.151C77.9246 20.3489 77.7085 20.6432 77.5522 21.0338C77.4012 21.4192 77.3257 21.888 77.3257 22.4401C77.3257 22.9921 77.4012 23.4661 77.5522 23.8619C77.7085 24.2578 77.9246 24.5599 78.2007 24.7682C78.4819 24.9765 78.8101 25.0807 79.1851 25.0807C79.6017 25.0807 79.9533 24.9505 80.2397 24.6901C80.5262 24.4244 80.7033 24.0599 80.771 23.5963H83.0522C83.0158 24.263 82.8361 24.8515 82.5132 25.3619C82.1903 25.8671 81.745 26.263 81.1772 26.5494C80.6095 26.8307 79.9351 26.9713 79.1538 26.9713ZM89.6929 23.0885V18.0651H92.1069V26.7994H89.7866V25.2135H89.6929C89.495 25.7187 89.1694 26.1302 88.7163 26.4479C88.2632 26.7604 87.7085 26.914 87.0522 26.9088C86.4689 26.9088 85.9533 26.7786 85.5054 26.5182C85.0627 26.2526 84.7163 25.875 84.4663 25.3854C84.2215 24.8958 84.0991 24.3099 84.0991 23.6276V18.0651H86.5132V23.2057C86.5132 23.7161 86.6512 24.1224 86.9272 24.4244C87.2033 24.7213 87.5705 24.8671 88.0288 24.8619C88.3205 24.8619 88.5913 24.7968 88.8413 24.6666C89.0913 24.5312 89.2944 24.3307 89.4507 24.0651C89.6121 23.7994 89.6929 23.4739 89.6929 23.0885ZM97.5132 26.9713C96.6174 26.9713 95.8439 26.789 95.1929 26.4244C94.5418 26.0599 94.0418 25.5416 93.6929 24.8698C93.3491 24.1927 93.1772 23.3932 93.1772 22.4713C93.1772 21.5755 93.3491 20.789 93.6929 20.1119C94.0418 19.4349 94.5314 18.9062 95.1616 18.526C95.797 18.1458 96.5418 17.9557 97.396 17.9557C97.9741 17.9557 98.5132 18.0494 99.0132 18.2369C99.5132 18.4192 99.9507 18.6953 100.326 19.0651C100.701 19.4296 100.992 19.8906 101.201 20.4479C101.409 21 101.513 21.6484 101.513 22.3932V23.0494H94.1382V21.5573H100.341L99.2163 21.9479C99.2163 21.5052 99.1486 21.1198 99.0132 20.7916C98.8778 20.4635 98.6746 20.2109 98.4038 20.0338C98.1382 19.8515 97.8075 19.7604 97.4116 19.7604C97.0158 19.7604 96.6799 19.8515 96.4038 20.0338C96.133 20.2161 95.9246 20.4635 95.7788 20.776C95.633 21.0885 95.5601 21.4479 95.5601 21.8541V22.9088C95.5601 23.3828 95.6434 23.789 95.8101 24.1276C95.9767 24.4609 96.2085 24.7187 96.5054 24.901C96.8075 25.0781 97.1538 25.1666 97.5444 25.1666C97.8153 25.1666 98.0601 25.1276 98.2788 25.0494C98.4976 24.9713 98.6851 24.8567 98.8413 24.7057C99.0028 24.5546 99.1226 24.3724 99.2007 24.1588L101.435 24.3073C101.326 24.8437 101.097 25.3125 100.748 25.7135C100.404 26.1093 99.9585 26.4192 99.4116 26.6432C98.8647 26.8619 98.2319 26.9713 97.5132 26.9713ZM104.966 21.7526V26.7994H102.552V18.0651H104.927V19.6198H105.013C105.211 19.1041 105.526 18.6979 105.958 18.401C106.391 18.1041 106.932 17.9557 107.583 17.9557C108.188 17.9557 108.714 18.0885 109.162 18.3541C109.615 18.6198 109.966 18.9974 110.216 19.4869C110.466 19.9765 110.591 20.5625 110.591 21.2448V26.7994H108.177V21.6744C108.177 21.1432 108.039 20.7265 107.763 20.4244C107.487 20.1171 107.107 19.9635 106.623 19.9635C106.3 19.9635 106.013 20.0364 105.763 20.1823C105.513 20.3229 105.318 20.526 105.177 20.7916C105.037 21.0573 104.966 21.3776 104.966 21.7526ZM116.654 18.0651V19.8932H111.396V18.0651H116.654ZM112.591 15.9869H115.005V24.1119C115.005 24.4036 115.07 24.6198 115.201 24.7604C115.331 24.8958 115.539 24.9635 115.826 24.9635C115.919 24.9635 116.024 24.9557 116.138 24.9401C116.253 24.9244 116.352 24.9062 116.435 24.8854L116.818 26.6979C116.552 26.776 116.294 26.8333 116.044 26.8698C115.8 26.9062 115.557 26.9244 115.318 26.9244C114.448 26.9244 113.776 26.7083 113.302 26.276C112.828 25.8385 112.591 25.2239 112.591 24.4323V15.9869ZM120.193 26.9635C119.641 26.9635 119.143 26.8671 118.701 26.6744C118.263 26.4765 117.919 26.1849 117.669 25.7994C117.419 25.414 117.294 24.9349 117.294 24.3619C117.294 23.8724 117.383 23.4661 117.56 23.1432C117.737 22.8151 117.979 22.5494 118.287 22.3463C118.594 22.1432 118.943 21.9895 119.333 21.8854C119.724 21.7812 120.138 21.7083 120.576 21.6666C121.081 21.6198 121.487 21.5729 121.794 21.526C122.102 21.4791 122.326 21.4088 122.466 21.3151C122.612 21.2161 122.685 21.0755 122.685 20.8932V20.8541C122.685 20.4948 122.57 20.2161 122.341 20.0182C122.117 19.8203 121.8 19.7213 121.388 19.7213C120.956 19.7213 120.61 19.8177 120.349 20.0104C120.094 20.1979 119.925 20.4375 119.841 20.7291L117.599 20.5494C117.714 20.0182 117.938 19.5599 118.271 19.1744C118.604 18.7838 119.034 18.4843 119.56 18.276C120.091 18.0625 120.706 17.9557 121.404 17.9557C121.888 17.9557 122.352 18.013 122.794 18.1276C123.237 18.2421 123.63 18.4192 123.974 18.6588C124.323 18.8932 124.599 19.1979 124.802 19.5729C125.005 19.9479 125.107 20.3932 125.107 20.9088V26.7994H122.802V25.5807H122.74C122.599 25.8567 122.412 26.0989 122.177 26.3073C121.943 26.5104 121.662 26.6718 121.333 26.7916C121.005 26.9062 120.625 26.9635 120.193 26.9635ZM120.888 25.2916C121.242 25.2916 121.555 25.2213 121.826 25.0807C122.102 24.9349 122.315 24.7421 122.466 24.5026C122.623 24.2578 122.701 23.9843 122.701 23.6823V22.7526C122.628 22.7994 122.524 22.8437 122.388 22.8854C122.258 22.927 122.112 22.9635 121.951 22.9948C121.789 23.026 121.628 23.0546 121.466 23.0807C121.305 23.1015 121.159 23.1224 121.029 23.1432C120.742 23.1849 120.492 23.2526 120.279 23.3463C120.065 23.4349 119.899 23.5573 119.779 23.7135C119.664 23.8645 119.607 24.0546 119.607 24.2838C119.607 24.6119 119.727 24.8619 119.966 25.0338C120.206 25.2057 120.513 25.2916 120.888 25.2916Z" fill="#5A1160"/>
</svg>
