<svg width="271" height="50" viewBox="0 0 271 50" fill="none" xmlns="http://www.w3.org/2000/svg">
<path d="M24.014 36.274C25.9827 36.274 27.5787 34.678 27.5787 32.7093C27.5787 30.7406 25.9827 29.1446 24.014 29.1446C22.0453 29.1446 20.4493 30.7406 20.4493 32.7093C20.4493 34.678 22.0453 36.274 24.014 36.274Z" fill="#ED6A00"/>
<path d="M12.3191 44.4022C13.5414 42.5592 15.3342 41.0736 17.3694 40.0581C19.4108 39.0447 21.7114 38.5119 24.0119 38.5119C26.3125 38.5098 28.6151 39.0405 30.6565 40.056C32.6938 41.0715 34.4845 42.5571 35.7068 44.4042C33.866 43.1881 31.9938 42.2165 30.0276 41.5792C28.0697 40.9356 26.0408 40.6118 24.0119 40.6076C21.983 40.6076 19.9541 40.9315 17.9963 41.5771C16.03 42.2144 14.1579 43.1882 12.3191 44.4063V44.4022Z" fill="#ED6A00"/>
<path d="M59.1157 22.5645C59.1157 22.2804 59.1554 22.0673 59.2327 21.9253C59.31 21.7832 59.4856 21.7121 59.7551 21.7121H62.2709C62.5132 21.7121 62.6783 21.7726 62.7723 21.8938C62.8643 22.015 62.9103 22.2094 62.9103 22.481V23.484C62.9103 24.1944 63.021 24.792 63.2404 25.2747C63.4598 25.7573 63.7377 26.1481 64.072 26.4469C64.4063 26.7456 64.772 26.9588 65.169 27.0863C65.566 27.2137 65.9442 27.2785 66.2994 27.2785C66.7695 27.2785 67.2167 27.1928 67.643 27.0215C68.0692 26.8522 68.4432 26.6099 68.7629 26.2965C69.0826 25.983 69.3355 25.6153 69.5193 25.1869C69.7032 24.7607 69.7972 24.2905 69.7972 23.7786C69.7972 23.0974 69.7116 22.4998 69.5423 21.9879C69.371 21.476 69.1056 20.9786 68.742 20.496C68.3806 20.0133 67.9062 19.5161 67.3233 19.0041C66.7403 18.4922 66.0361 17.8945 65.2129 17.2134C64.2747 16.4465 63.4284 15.7423 62.6762 15.103C61.9219 14.4636 61.2825 13.8033 60.7581 13.1201C60.2315 12.4389 59.8262 11.6888 59.542 10.8697C59.2578 10.0527 59.1157 9.07475 59.1157 7.93806C59.1157 6.97062 59.2369 6.11811 59.4772 5.37843C59.7196 4.63874 60.0393 3.99518 60.4363 3.44982C60.8333 2.90238 61.2825 2.44486 61.7798 2.07502C62.2771 1.70518 62.7891 1.41056 63.3156 1.19117C63.8422 0.97177 64.352 0.810818 64.8514 0.710522C65.3508 0.610226 65.7896 0.560135 66.174 0.560135C67.2104 0.560135 68.1632 0.74184 69.0304 1.10332C69.8975 1.46481 70.6372 1.97051 71.2474 2.61617C71.8575 3.26391 72.3339 4.03076 72.6766 4.9188C73.0172 5.80684 73.1885 6.77011 73.1885 7.80859V9.06647C73.1885 9.33602 73.1383 9.53244 73.038 9.65363C72.9377 9.77483 72.7476 9.83534 72.4634 9.83534H70.0125C69.7701 9.83534 69.6154 9.77058 69.5423 9.64313C69.4692 9.51567 69.4357 9.32343 69.4357 9.06851V7.83155C69.4357 7.36141 69.3647 6.91217 69.2226 6.47756C69.0805 6.04503 68.8737 5.66051 68.6041 5.32619C68.3346 4.99187 67.9961 4.72235 67.5907 4.51549C67.1854 4.30863 66.7194 4.20625 66.1949 4.20625C65.8543 4.20625 65.4887 4.26687 65.0959 4.38806C64.7051 4.50925 64.3416 4.71815 64.0093 5.01695C63.675 5.31575 63.3971 5.71069 63.1777 6.19964C62.9562 6.69067 62.8476 7.305 62.8476 8.04468C62.8476 8.69869 62.9604 9.27745 63.1882 9.7831C63.4159 10.2888 63.7105 10.7506 64.0741 11.1685C64.4356 11.5885 64.8409 11.9792 65.2902 12.3407C65.7373 12.7022 66.1887 13.0699 66.6442 13.4377C67.668 14.2777 68.6062 15.0487 69.4587 15.7507C70.3113 16.4549 71.0468 17.1945 71.6653 17.9677C72.2837 18.7429 72.7664 19.6059 73.1154 20.5587C73.4643 21.5115 73.6377 22.6482 73.6377 23.9709C73.6377 24.8944 73.4559 25.7762 73.0945 26.6141C72.733 27.452 72.2273 28.1916 71.5817 28.831C70.9339 29.4704 70.1608 29.9823 69.2581 30.3668C68.3555 30.7513 67.3651 30.9435 66.2848 30.9435C65.2045 30.9435 64.2454 30.7616 63.3637 30.4002C62.4819 30.0387 61.7297 29.5372 61.1049 28.8978C60.4802 28.2584 59.9933 27.4937 59.6444 26.6057C59.2954 25.7177 59.122 24.7397 59.122 23.6741V22.5645H59.1157Z" fill="#5A1160"/>
<path d="M76.5145 11.244C76.4289 11.0727 76.3975 10.895 76.4184 10.7111C76.4393 10.5273 76.5918 10.3413 76.8781 10.1574C77.2041 9.92968 77.5467 9.70192 77.902 9.47417C78.2572 9.24641 78.6521 9.0438 79.0846 8.86619C79.5171 8.68859 80.004 8.54649 80.5452 8.43993C81.0843 8.33336 81.7027 8.27903 82.4006 8.27903C83.2949 8.27903 84.1391 8.43155 84.9268 8.73662C85.7167 9.04169 86.4041 9.47211 86.9954 10.0258C87.5847 10.5795 88.0506 11.244 88.3912 12.0192C88.7318 12.7944 88.9032 13.6427 88.9032 14.5663V24.8007C88.9032 25.5968 88.7924 26.2967 88.573 26.9006C88.3515 27.5044 88.0569 28.0352 87.6892 28.4886C87.3193 28.9441 86.9035 29.3244 86.4417 29.6295C85.9799 29.9345 85.5035 30.1811 85.0125 30.365C84.5215 30.5488 84.0451 30.6805 83.5833 30.7599C83.1215 30.8372 82.712 30.8769 82.3568 30.8769C81.6025 30.8769 80.821 30.7516 80.0123 30.5029C79.2016 30.2543 78.4661 29.8635 77.8058 29.3307C77.1455 28.7979 76.6002 28.1125 76.1739 27.2725C75.7477 26.4347 75.5345 25.4254 75.5345 24.2448V23.733C75.5345 22.6673 75.7059 21.7249 76.0465 20.9079C76.3871 20.091 76.8572 19.4076 77.4527 18.8602C78.0503 18.3127 78.7524 17.9011 79.5631 17.6232C80.3738 17.3453 81.2472 17.2158 82.1854 17.2284H85.0647V14.84C85.0647 14.4994 85.0041 14.1296 84.883 13.7305C84.7618 13.3335 84.5737 12.9636 84.3188 12.621C84.0639 12.2804 83.7296 11.9962 83.3179 11.7684C82.9063 11.5407 82.409 11.4279 81.826 11.4279C80.9025 11.4279 80.1586 11.5741 79.5986 11.8645C79.0386 12.155 78.5497 12.4789 78.1381 12.8341C77.9814 12.949 77.8184 13.0159 77.647 13.0368C77.4778 13.0577 77.3336 12.9699 77.2208 12.7693L76.5166 11.2335L76.5145 11.244ZM85.0647 20.0492H83.3743C82.6033 20.0492 81.9618 20.1494 81.4478 20.3479C80.9338 20.5464 80.5243 20.818 80.2171 21.1586C79.91 21.4992 79.6927 21.8942 79.5652 22.3413C79.4356 22.7885 79.373 23.2607 79.373 23.7601V24.1864C79.373 24.784 79.4691 25.2917 79.6613 25.7116C79.8535 26.1316 80.1001 26.4723 80.3989 26.7356C80.6998 26.9989 81.0237 27.191 81.3726 27.3122C81.7215 27.4334 82.0538 27.494 82.3672 27.494C82.6514 27.494 82.9544 27.4439 83.2761 27.3457C83.5979 27.2475 83.8904 27.0824 84.1537 26.8546C84.417 26.6269 84.6364 26.3322 84.8077 25.9687C84.9791 25.6072 85.0647 25.1621 85.0647 24.6356V20.0512V20.0492Z" fill="#5A1160"/>
<path d="M100.968 14.5057C100.968 14.1359 100.907 13.7806 100.786 13.44C100.665 13.0994 100.492 12.7965 100.264 12.5332C100.036 12.2699 99.752 12.061 99.4114 11.9043C99.0708 11.7476 98.6863 11.6703 98.2601 11.6703C97.861 11.6703 97.4953 11.7413 97.161 11.8834C96.8267 12.0255 96.5425 12.2219 96.3085 12.4706C96.0744 12.7192 95.8885 13.0117 95.7547 13.3439C95.6189 13.6782 95.5458 14.0376 95.5312 14.42V29.8134C95.5312 30.0265 95.4789 30.1937 95.3703 30.3149C95.2637 30.4361 95.1321 30.4967 94.9754 30.4967H92.2674C92.1253 30.4967 91.9936 30.4361 91.8725 30.3149C91.7513 30.1937 91.6907 30.0265 91.6907 29.8134V14.42C91.6907 13.5946 91.8516 12.8132 92.1713 12.0756C92.4909 11.336 92.9381 10.6862 93.5148 10.1241C94.0915 9.562 94.7727 9.11481 95.5625 8.78049C96.3523 8.44617 97.2153 8.27903 98.1535 8.27903C99.2045 8.27903 100.143 8.44203 100.968 8.77009C101.791 9.09605 102.489 9.53685 103.058 10.0927C103.626 10.6464 104.061 11.2963 104.357 12.0443C104.656 12.7903 104.804 13.5822 104.804 14.4221V29.8364C104.804 30.0495 104.744 30.2125 104.623 30.3274C104.501 30.4423 104.37 30.4987 104.228 30.4987H101.541C101.384 30.4987 101.25 30.4423 101.135 30.3274C101.022 30.2146 100.966 30.0495 100.966 29.8364V14.5078L100.968 14.5057Z" fill="#5A1160"/>
<path d="M117.684 1.77629C117.684 1.54853 117.745 1.36468 117.866 1.22259C117.987 1.08051 118.154 1.00946 118.367 1.00946H125.19C126.241 1.00946 127.204 1.20169 128.079 1.58407C128.953 1.96854 129.707 2.49091 130.34 3.15119C130.973 3.81148 131.466 4.59084 131.822 5.48515C132.177 6.38154 132.354 7.34686 132.354 8.38535V14.8461C132.354 15.8992 132.177 16.8708 131.822 17.7672C131.466 18.6636 130.971 19.4409 130.34 20.1012C129.707 20.7615 128.951 21.2817 128.069 21.6578C127.187 22.0339 126.228 22.222 125.19 22.222H121.715V29.7275C121.715 29.9699 121.665 30.158 121.564 30.2917C121.464 30.4275 121.301 30.4943 121.073 30.4943H118.323C118.096 30.4943 117.933 30.4275 117.832 30.2917C117.732 30.158 117.682 29.9678 117.682 29.7275V1.77629H117.684ZM124.912 18.578C125.438 18.578 125.91 18.486 126.33 18.3001C126.75 18.1162 127.108 17.857 127.407 17.5227C127.705 17.1884 127.933 16.7977 128.09 16.3505C128.247 15.9034 128.324 15.4165 128.324 14.8899V8.45013C128.324 7.91104 128.247 7.41371 128.09 6.9582C127.933 6.50269 127.705 6.10994 127.407 5.77562C127.108 5.4413 126.746 5.17796 126.32 4.98573C125.894 4.79349 125.417 4.6974 124.891 4.6974H121.715V18.578H124.914H124.912Z" fill="#5A1160"/>
<path d="M134.442 11.244C134.356 11.0727 134.325 10.895 134.346 10.7111C134.367 10.5273 134.519 10.3413 134.805 10.1574C135.131 9.92968 135.474 9.70192 135.829 9.47417C136.184 9.24641 136.579 9.0438 137.012 8.86619C137.444 8.68859 137.931 8.54649 138.472 8.43993C139.011 8.33336 139.63 8.27903 140.328 8.27903C141.222 8.27903 142.066 8.43155 142.854 8.73662C143.644 9.04169 144.331 9.47211 144.923 10.0258C145.512 10.5795 145.978 11.244 146.318 12.0192C146.659 12.7944 146.83 13.6427 146.83 14.5663V24.8007C146.83 25.5968 146.72 26.2967 146.5 26.9006C146.279 27.5044 145.984 28.0352 145.616 28.4886C145.247 28.9441 144.831 29.3244 144.369 29.6295C143.907 29.9345 143.431 30.1811 142.94 30.365C142.449 30.5488 141.972 30.6805 141.511 30.7599C141.049 30.8372 140.639 30.8769 140.284 30.8769C139.53 30.8769 138.748 30.7516 137.94 30.5029C137.129 30.2543 136.393 29.8635 135.733 29.3307C135.073 28.7979 134.527 28.1125 134.101 27.2725C133.675 26.4347 133.462 25.4254 133.462 24.2448V23.733C133.462 22.6673 133.633 21.7249 133.974 20.9079C134.314 20.091 134.784 19.4076 135.38 18.8602C135.978 18.3127 136.68 17.9011 137.49 17.6232C138.301 17.3453 139.174 17.2158 140.113 17.2284H142.992V14.84C142.992 14.4994 142.931 14.1296 142.81 13.7305C142.689 13.3335 142.501 12.9636 142.246 12.621C141.991 12.2804 141.657 11.9962 141.245 11.7684C140.834 11.5407 140.336 11.4279 139.753 11.4279C138.83 11.4279 138.086 11.5741 137.526 11.8645C136.966 12.155 136.477 12.4789 136.065 12.8341C135.909 12.949 135.746 13.0159 135.574 13.0368C135.405 13.0577 135.261 12.9699 135.148 12.7693L134.444 11.2335L134.442 11.244ZM142.992 20.0492H141.302C140.531 20.0492 139.889 20.1494 139.375 20.3479C138.861 20.5464 138.452 20.818 138.144 21.1586C137.837 21.4992 137.62 21.8942 137.492 22.3413C137.363 22.7885 137.3 23.2607 137.3 23.7601V24.1864C137.3 24.784 137.396 25.2917 137.589 25.7116C137.781 26.1316 138.027 26.4723 138.326 26.7356C138.627 26.9989 138.951 27.191 139.3 27.3122C139.649 27.4334 139.981 27.494 140.294 27.494C140.579 27.494 140.882 27.4439 141.203 27.3457C141.525 27.2475 141.818 27.0824 142.081 26.8546C142.344 26.6269 142.564 26.3322 142.735 25.9687C142.906 25.6051 142.992 25.1621 142.992 24.6356V20.0512V20.0492Z" fill="#5A1160"/>
<path d="M149.282 1.69069C149.282 1.49219 149.334 1.32918 149.443 1.19964C149.549 1.07218 149.704 1.00742 149.904 1.00742H152.52C152.721 1.00742 152.871 1.07218 152.97 1.19964C153.068 1.3271 153.12 1.4901 153.12 1.69069V9.19615C153.617 8.91198 154.131 8.68841 154.662 8.52543C155.195 8.36245 155.73 8.28097 156.269 8.28097C157.134 8.28097 157.943 8.42936 158.693 8.72815C159.445 9.02695 160.091 9.4427 160.628 9.97553C161.167 10.5083 161.591 11.1457 161.904 11.8833C162.216 12.623 162.372 13.4253 162.372 14.2925V24.8674C162.372 25.7491 162.203 26.5557 161.86 27.287C161.52 28.0204 161.05 28.6515 160.454 29.1843C159.857 29.7171 159.161 30.133 158.365 30.4318C157.569 30.7306 156.716 30.8789 155.805 30.8789C154.894 30.8789 154.064 30.7285 153.268 30.4318C152.472 30.133 151.779 29.7171 151.189 29.1843C150.6 28.6515 150.134 28.0184 149.794 27.287C149.453 26.5557 149.282 25.7491 149.282 24.8674V1.69069ZM153.12 24.7818C153.12 25.137 153.187 25.4776 153.323 25.8056C153.456 26.1337 153.649 26.4199 153.895 26.6686C154.144 26.9172 154.432 27.1157 154.767 27.2661C155.099 27.4145 155.456 27.4898 155.838 27.4898C156.221 27.4898 156.595 27.4145 156.921 27.2661C157.247 27.1178 157.529 26.9172 157.771 26.6686C158.012 26.4199 158.2 26.1316 158.333 25.8056C158.467 25.4797 158.536 25.137 158.536 24.7818V14.3991C158.536 14.0439 158.469 13.6991 158.333 13.3647C158.2 13.0304 158.012 12.7399 157.771 12.4913C157.531 12.2426 157.243 12.0442 156.91 11.8937C156.578 11.7454 156.221 11.6702 155.838 11.6702C155.456 11.6702 155.078 11.7454 154.746 11.8937C154.413 12.0442 154.125 12.2426 153.885 12.4913C153.644 12.7399 153.456 13.0284 153.323 13.3543C153.189 13.6824 153.12 14.0229 153.12 14.3782V24.7818Z" fill="#5A1160"/>
<path d="M165.293 1.69069C165.293 1.49219 165.345 1.32918 165.454 1.19964C165.563 1.07009 165.713 1.00742 165.912 1.00742H168.513C168.712 1.00742 168.864 1.07218 168.971 1.19964C169.077 1.3271 169.132 1.4901 169.132 1.69069V25.0366C169.132 25.6489 169.28 26.1315 169.579 26.4867C169.878 26.842 170.389 27.0196 171.115 27.0196H171.712C171.982 27.0196 172.145 27.1011 172.203 27.2641C172.26 27.4271 172.289 27.5671 172.289 27.6799V29.876C172.289 29.947 172.283 30.018 172.268 30.0891C172.253 30.1601 172.216 30.2249 172.151 30.2813C172.086 30.3377 171.99 30.3879 171.863 30.4296C171.735 30.4714 171.564 30.4944 171.351 30.4944H170.158C169.447 30.4944 168.793 30.4025 168.196 30.2165C167.598 30.0326 167.086 29.7338 166.66 29.3201C166.233 28.9085 165.899 28.3673 165.657 27.7008C165.414 27.0321 165.295 26.2089 165.295 25.2268V1.68865L165.293 1.69069Z" fill="#5A1160"/>
<path d="M174.184 14.2926C174.184 13.4547 174.353 12.6691 174.696 11.9357C175.037 11.2043 175.503 10.567 176.092 10.0279C176.681 9.48669 177.371 9.06051 178.161 8.74917C178.95 8.43575 179.792 8.28107 180.687 8.28107C181.581 8.28107 182.452 8.42946 183.257 8.72826C184.059 9.02705 184.759 9.44281 185.357 9.97563C185.954 10.5085 186.422 11.1458 186.763 11.8834C187.104 12.6231 187.275 13.4254 187.275 14.2926V24.8675C187.275 25.7493 187.106 26.5558 186.763 27.2871C186.422 28.0206 185.952 28.6516 185.357 29.1844C184.759 29.7172 184.063 30.1331 183.267 30.4319C182.471 30.7307 181.619 30.879 180.708 30.879C179.797 30.879 178.967 30.7286 178.171 30.4319C177.375 30.1331 176.681 29.7172 176.092 29.1844C175.503 28.6516 175.037 28.0185 174.696 27.2871C174.356 26.5558 174.184 25.7493 174.184 24.8675V14.2926ZM178.023 24.7819C178.023 25.1371 178.089 25.4777 178.225 25.8057C178.359 26.1338 178.551 26.42 178.798 26.6687C179.046 26.9173 179.335 27.1158 179.669 27.2662C180.001 27.4146 180.359 27.4899 180.741 27.4899C181.123 27.4899 181.497 27.4146 181.823 27.2662C182.149 27.1179 182.431 26.9173 182.674 26.6687C182.914 26.42 183.102 26.1317 183.236 25.8057C183.37 25.4798 183.439 25.1371 183.439 24.7819V14.3992C183.439 14.044 183.372 13.6992 183.236 13.3648C183.102 13.0305 182.914 12.74 182.674 12.4914C182.434 12.2427 182.145 12.0443 181.813 11.8938C181.481 11.7455 181.123 11.6703 180.741 11.6703C180.359 11.6703 179.98 11.7455 179.648 11.8938C179.316 12.0443 179.028 12.2427 178.787 12.4914C178.547 12.74 178.359 13.0285 178.225 13.3544C178.092 13.6825 178.023 14.0231 178.023 14.3783V24.7819Z" fill="#5A1160"/>
<path d="M199.001 22.5645C199.001 22.2804 199.041 22.0673 199.118 21.9253C199.195 21.7832 199.371 21.7121 199.64 21.7121H202.156C202.398 21.7121 202.564 21.7726 202.658 21.8938C202.75 22.015 202.796 22.2094 202.796 22.481V23.484C202.796 24.1944 202.906 24.792 203.126 25.2747C203.345 25.7573 203.623 26.1481 203.957 26.4469C204.292 26.7456 204.657 26.9588 205.054 27.0863C205.451 27.2137 205.829 27.2785 206.185 27.2785C206.655 27.2785 207.102 27.1928 207.528 27.0215C207.954 26.8522 208.329 26.6099 208.648 26.2965C208.968 25.983 209.221 25.6153 209.405 25.1869C209.588 24.7607 209.682 24.2905 209.682 23.7786C209.682 23.0974 209.597 22.4998 209.428 21.9879C209.256 21.476 208.991 20.9786 208.627 20.496C208.266 20.0133 207.792 19.5161 207.209 19.0041C206.626 18.4922 205.921 17.8945 205.098 17.2134C204.16 16.4465 203.314 15.7423 202.561 15.103C201.807 14.4636 201.168 13.8033 200.643 13.1201C200.117 12.4389 199.711 11.6888 199.427 10.8697C199.143 10.0527 199.001 9.07475 199.001 7.93806C199.001 6.97062 199.122 6.11811 199.362 5.37843C199.605 4.63874 199.925 3.99518 200.322 3.44982C200.719 2.90238 201.168 2.44486 201.665 2.07502C202.162 1.70518 202.674 1.41056 203.201 1.19117C203.727 0.97177 204.237 0.810818 204.737 0.710522C205.236 0.610226 205.675 0.560135 206.059 0.560135C207.096 0.560135 208.048 0.74184 208.916 1.10332C209.783 1.46481 210.522 1.97051 211.133 2.61617C211.743 3.26391 212.219 4.03076 212.562 4.9188C212.902 5.80684 213.074 6.77011 213.074 7.80859V9.06647C213.074 9.33602 213.024 9.53244 212.923 9.65363C212.823 9.77483 212.633 9.83534 212.349 9.83534H209.898C209.655 9.83534 209.501 9.77058 209.428 9.64313C209.354 9.51567 209.321 9.32343 209.321 9.06851V7.83155C209.321 7.36141 209.25 6.91217 209.108 6.47756C208.966 6.04503 208.759 5.66051 208.489 5.32619C208.22 4.99187 207.881 4.72235 207.476 4.51549C207.071 4.30863 206.605 4.20625 206.08 4.20625C205.74 4.20625 205.374 4.26687 204.981 4.38806C204.59 4.50925 204.227 4.71815 203.895 5.01695C203.56 5.31575 203.282 5.71069 203.063 6.19964C202.841 6.69067 202.733 7.305 202.733 8.04468C202.733 8.69869 202.846 9.27745 203.073 9.7831C203.301 10.2888 203.596 10.7506 203.959 11.1685C204.321 11.5885 204.726 11.9792 205.175 12.3407C205.623 12.7022 206.074 13.0699 206.529 13.4377C207.553 14.2777 208.491 15.0487 209.344 15.7507C210.197 16.4549 210.932 17.1945 211.551 17.9677C212.169 18.7429 212.652 19.6059 213.001 20.5587C213.35 21.5115 213.523 22.6482 213.523 23.9709C213.523 24.8944 213.341 25.7762 212.98 26.6141C212.618 27.452 212.113 28.1916 211.467 28.831C210.819 29.4704 210.046 29.9823 209.143 30.3668C208.241 30.7513 207.25 30.9435 206.17 30.9435C205.09 30.9435 204.131 30.7616 203.249 30.4002C202.367 30.0387 201.615 29.5372 200.99 28.8978C200.365 28.2584 199.879 27.4937 199.53 26.6057C199.181 25.7177 199.007 24.7397 199.007 23.6741V22.5645H199.001Z" fill="#ED6A00"/>
<path d="M216.4 11.244C216.314 11.0727 216.283 10.895 216.304 10.7111C216.325 10.5273 216.477 10.3413 216.763 10.1574C217.089 9.92968 217.432 9.70192 217.787 9.47417C218.143 9.24641 218.537 9.0438 218.97 8.86619C219.403 8.68859 219.889 8.54649 220.431 8.43993C220.97 8.33336 221.588 8.27903 222.286 8.27903C223.18 8.27903 224.024 8.43155 224.812 8.73662C225.602 9.04169 226.29 9.47211 226.881 10.0258C227.47 10.5795 227.936 11.244 228.277 12.0192C228.617 12.7944 228.789 13.6427 228.789 14.5663V24.8007C228.789 25.5968 228.678 26.2967 228.458 26.9006C228.237 27.5044 227.942 28.0352 227.575 28.4886C227.205 28.9441 226.789 29.3244 226.327 29.6295C225.865 29.9345 225.389 30.1811 224.898 30.365C224.407 30.5488 223.93 30.6805 223.469 30.7599C223.007 30.8372 222.597 30.8769 222.242 30.8769C221.488 30.8769 220.706 30.7516 219.898 30.5029C219.087 30.2543 218.351 29.8635 217.691 29.3307C217.031 28.7979 216.486 28.1125 216.059 27.2725C215.633 26.4347 215.42 25.4254 215.42 24.2448V23.733C215.42 22.6673 215.591 21.7249 215.932 20.9079C216.272 20.091 216.743 19.4076 217.338 18.8602C217.936 18.3127 218.638 17.9011 219.448 17.6232C220.259 17.3453 221.133 17.2158 222.071 17.2284H224.95V14.84C224.95 14.4994 224.89 14.1296 224.768 13.7305C224.647 13.3335 224.459 12.9636 224.204 12.621C223.949 12.2804 223.615 11.9962 223.203 11.7684C222.792 11.5407 222.294 11.4279 221.711 11.4279C220.788 11.4279 220.044 11.5741 219.484 11.8645C218.924 12.155 218.435 12.4789 218.023 12.8341C217.867 12.949 217.704 13.0159 217.532 13.0368C217.363 13.0577 217.219 12.9699 217.106 12.7693L216.402 11.2335L216.4 11.244ZM224.95 20.0492H223.26C222.489 20.0492 221.847 20.1494 221.333 20.3479C220.819 20.5464 220.41 20.818 220.102 21.1586C219.795 21.4992 219.578 21.8942 219.451 22.3413C219.321 22.7885 219.258 23.2607 219.258 23.7601V24.1864C219.258 24.784 219.354 25.2917 219.547 25.7116C219.739 26.1316 219.985 26.4723 220.284 26.7356C220.585 26.9989 220.909 27.191 221.258 27.3122C221.607 27.4334 221.939 27.494 222.253 27.494C222.537 27.494 222.84 27.4439 223.162 27.3457C223.483 27.2475 223.776 27.0824 224.039 26.8546C224.302 26.6269 224.522 26.3322 224.693 25.9687C224.864 25.6072 224.95 25.1621 224.95 24.6356V20.0512V20.0492Z" fill="#ED6A00"/>
<path d="M231.687 1.69069C231.687 1.49219 231.739 1.32918 231.848 1.19964C231.957 1.07009 232.107 1.00742 232.305 1.00742H234.907C235.105 1.00742 235.258 1.07218 235.365 1.19964C235.471 1.3271 235.525 1.4901 235.525 1.69069V25.0366C235.525 25.6489 235.674 26.1315 235.973 26.4867C236.271 26.842 236.783 27.0196 237.508 27.0196H238.106C238.375 27.0196 238.538 27.1011 238.597 27.2641C238.653 27.4271 238.683 27.5671 238.683 27.6799V29.876C238.683 29.947 238.676 30.018 238.662 30.0891C238.647 30.1601 238.61 30.2249 238.545 30.2813C238.48 30.3377 238.384 30.3879 238.256 30.4296C238.129 30.4714 237.958 30.4944 237.744 30.4944H236.551C235.841 30.4944 235.187 30.4025 234.589 30.2165C233.992 30.0306 233.48 29.7338 233.054 29.3201C232.627 28.9085 232.293 28.3673 232.051 27.7008C231.808 27.0321 231.689 26.2089 231.689 25.2268V1.68865L231.687 1.69069Z" fill="#ED6A00"/>
<path d="M240.918 9.34674C240.918 9.13361 240.979 8.96647 241.1 8.84528C241.221 8.72409 241.353 8.66347 241.495 8.66347H244.203C244.36 8.66347 244.491 8.72409 244.598 8.84528C244.705 8.96647 244.759 9.13361 244.759 9.34674V24.6335C244.759 25.018 244.824 25.3837 244.951 25.7305C245.079 26.0795 245.265 26.3845 245.505 26.6477C245.747 26.911 246.033 27.1179 246.368 27.2662C246.702 27.4146 247.074 27.4899 247.488 27.4899C247.901 27.4899 248.29 27.4146 248.618 27.2662C248.944 27.1179 249.226 26.9173 249.46 26.6687C249.694 26.42 249.872 26.1317 249.993 25.8057C250.114 25.4798 250.181 25.1308 250.196 24.761V9.32378C250.196 9.11065 250.252 8.94765 250.365 8.83273C250.478 8.71781 250.614 8.66143 250.77 8.66143H253.457C253.599 8.66143 253.731 8.71781 253.852 8.83273C253.974 8.94556 254.034 9.11065 254.034 9.32378V24.738C254.034 25.578 253.886 26.3699 253.587 27.1158C253.288 27.8618 252.856 28.5116 252.287 29.0654C251.719 29.6191 251.023 30.06 250.198 30.388C249.372 30.714 248.434 30.879 247.383 30.879C246.445 30.879 245.582 30.7118 244.792 30.3775C244.002 30.0432 243.321 29.5961 242.745 29.034C242.17 28.472 241.721 27.8221 241.401 27.0824C241.081 26.3427 240.92 25.5613 240.92 24.738V9.3447L240.918 9.34674Z" fill="#ED6A00"/>
<path d="M269.977 24.8674C269.977 25.7491 269.808 26.5557 269.465 27.287C269.125 28.0204 268.659 28.6515 268.07 29.1843C267.48 29.7171 266.787 30.133 265.991 30.4318C265.194 30.7306 264.348 30.8789 263.454 30.8789C262.56 30.8789 261.669 30.7285 260.873 30.4318C260.077 30.133 259.384 29.7171 258.794 29.1843C258.205 28.6515 257.739 28.0184 257.399 27.287C257.058 26.5557 256.887 25.7491 256.887 24.8674V14.2925C256.887 13.4253 257.043 12.623 257.355 11.8833C257.668 11.1436 258.094 10.5083 258.633 9.97553C259.173 9.4427 259.816 9.02695 260.562 8.72815C261.308 8.42936 262.115 8.28097 262.982 8.28097C263.508 8.28097 264.041 8.36245 264.58 8.52543C265.119 8.68841 265.64 8.91198 266.137 9.19615V1.69069C266.137 1.49219 266.187 1.32918 266.285 1.19964C266.383 1.07218 266.54 1.00742 266.755 1.00742H269.336C269.549 1.00742 269.71 1.07218 269.816 1.19964C269.923 1.3271 269.977 1.4901 269.977 1.69069V24.8674ZM266.139 14.3782C266.139 14.0229 266.072 13.6824 265.936 13.3543C265.802 13.0284 265.614 12.7399 265.374 12.4913C265.134 12.2426 264.845 12.0442 264.513 11.8937C264.181 11.7454 263.824 11.6702 263.441 11.6702C263.059 11.6702 262.681 11.7454 262.349 11.8937C262.016 12.0442 261.728 12.2426 261.488 12.4913C261.247 12.7399 261.059 13.0325 260.926 13.3647C260.792 13.6991 260.723 14.0439 260.723 14.3991V24.7818C260.723 25.137 260.79 25.4776 260.926 25.8056C261.059 26.1337 261.247 26.4199 261.488 26.6686C261.728 26.9172 262.014 27.1157 262.349 27.2661C262.681 27.4145 263.046 27.4898 263.441 27.4898C263.836 27.4898 264.181 27.4145 264.513 27.2661C264.845 27.1178 265.132 26.9172 265.374 26.6686C265.614 26.4199 265.802 26.1316 265.936 25.8056C266.07 25.4797 266.139 25.137 266.139 24.7818V14.3782Z" fill="#ED6A00"/>
<path d="M60.5258 48.6585V36.3722H64.8134C66.1528 36.3722 67.1599 36.6606 67.8327 37.2394C68.5056 37.8182 68.842 38.679 68.842 39.8262C68.842 40.9733 68.4659 41.8905 67.7116 42.4672C66.9572 43.0418 65.808 43.3303 64.2618 43.3303H61.6499V48.6605H60.5237L60.5258 48.6585ZM61.652 42.3022H64.2806C65.4925 42.3022 66.3638 42.1058 66.8925 41.7151C67.4211 41.3223 67.6844 40.687 67.6844 39.8094C67.6844 38.9318 67.4483 38.3614 66.9761 37.9707C66.5038 37.5779 65.7662 37.3836 64.7654 37.3836H61.6541V42.3043L61.652 42.3022Z" fill="#818181"/>
<path d="M70.7288 48.6585V36.3722H71.7463V48.6585H70.7288Z" fill="#818181"/>
<path d="M79.9121 47.3735C79.4462 47.8791 78.9384 48.2572 78.3952 48.508C77.8498 48.7587 77.2627 48.8842 76.6358 48.8842C75.7394 48.8842 75.0269 48.6501 74.4962 48.1842C73.9654 47.7161 73.7001 47.0934 73.7001 46.3162C73.7001 45.8105 73.8213 45.3675 74.0636 44.9913C74.306 44.6152 74.6571 44.3165 75.1188 44.0971C75.6475 43.8589 76.5293 43.6917 77.7641 43.5998C78.0024 43.581 78.1841 43.5663 78.3053 43.5538C78.3785 43.5392 78.4746 43.5204 78.5979 43.4974C79.4441 43.3239 79.8662 42.9604 79.8662 42.4046C79.8662 41.715 79.6948 41.2219 79.3543 40.9231C79.0137 40.6243 78.4495 40.476 77.6659 40.476C76.8824 40.476 76.2618 40.641 75.8397 40.9732C75.4176 41.3034 75.1878 41.7945 75.1564 42.4464L74.1472 42.438C74.1702 41.5542 74.4941 40.8542 75.123 40.3402C75.752 39.8262 76.6003 39.5692 77.668 39.5692C78.7358 39.5692 79.536 39.7969 80.0877 40.2524C80.6372 40.7079 80.913 41.3766 80.913 42.2542V47.0913C80.913 47.4591 80.9569 47.6869 81.0467 47.7746C81.1366 47.8624 81.3017 47.9083 81.5482 47.9083C81.6255 47.9083 81.6924 47.9083 81.7488 47.9041C81.8052 47.8999 81.8616 47.8979 81.9243 47.8916V48.6585C81.7969 48.6856 81.6673 48.7065 81.5399 48.7211C81.4124 48.7357 81.2954 48.742 81.1888 48.742C80.7667 48.742 80.4491 48.6397 80.2381 48.4328C80.0271 48.228 79.9205 47.9208 79.9205 47.5155V47.3735H79.9121ZM79.8453 44.0114C79.5736 44.1117 79.2226 44.1932 78.7984 44.2538C78.3722 44.3144 77.6868 44.3708 76.7424 44.4209C76.0863 44.5943 75.5911 44.8389 75.2568 45.1544C74.9224 45.472 74.7574 45.8522 74.7574 46.2973C74.7574 46.8029 74.937 47.2062 75.2964 47.5071C75.6558 47.808 76.1427 47.9585 76.7612 47.9585C77.7015 47.9585 78.4495 47.716 79.0095 47.2292C79.5674 46.7423 79.8474 46.08 79.8474 45.24V44.0135L79.8453 44.0114Z" fill="#818181"/>
<path d="M83.2992 48.6585V39.7907H84.2917V41.2094C84.626 40.6641 85.0377 40.2545 85.5266 39.9787C86.0155 39.7029 86.5839 39.565 87.2274 39.565C87.8397 39.565 88.3767 39.6736 88.8385 39.8909C89.3002 40.1083 89.6533 40.4174 89.8978 40.8165C90.0253 41.0234 90.1172 41.2721 90.1736 41.5625C90.228 41.8551 90.2572 42.3335 90.2572 43.0021V48.6585H89.1978V43.161C89.1978 42.1204 89.037 41.4162 88.7173 41.0464C88.3976 40.6766 87.8334 40.4927 87.0289 40.4927C86.2245 40.4927 85.5454 40.756 85.0648 41.2804C84.5842 41.807 84.3439 42.5216 84.3439 43.4284V48.6585H83.3013H83.2992Z" fill="#818181"/>
<path d="M93.1094 44.4189V44.469C93.1094 45.5534 93.3706 46.4164 93.893 47.0579C94.4154 47.6994 95.1175 48.0211 95.9951 48.0211C96.6909 48.0211 97.2717 47.8331 97.7377 47.4591C98.2036 47.0829 98.4878 46.571 98.5881 45.9191H99.6141C99.5033 46.8196 99.1147 47.5427 98.446 48.0839C97.7795 48.625 96.9395 48.8966 95.9261 48.8966C94.7184 48.8966 93.7739 48.4871 93.0906 47.6701C92.4074 46.8532 92.0647 45.7185 92.0647 44.2663C92.0647 42.8141 92.4074 41.6335 93.0948 40.804C93.7823 39.9745 94.7372 39.5608 95.9595 39.5608C97.1819 39.5608 98.0762 39.9578 98.7406 40.7497C99.4051 41.5416 99.7373 42.6512 99.7373 44.0741V44.4167H93.1053L93.1094 44.4189ZM93.1262 43.5935L98.6821 43.6018C98.6383 42.624 98.3729 41.8529 97.886 41.295C97.3992 40.7371 96.7535 40.4572 95.947 40.4572C95.1404 40.4572 94.4739 40.7413 93.9661 41.3076C93.4563 41.8759 93.1784 42.6365 93.1283 43.5935H93.1262Z" fill="#818181"/>
<path d="M101.183 45.8961H102.209C102.236 46.5083 102.468 47.0035 102.905 47.3859C103.342 47.7662 103.902 47.9585 104.585 47.9585C105.325 47.9585 105.908 47.8122 106.332 47.5197C106.758 47.2271 106.969 46.8322 106.969 46.3307C106.969 45.614 106.181 45.0666 104.608 44.6884L104.566 44.6801C103.298 44.375 102.449 44.0386 102.017 43.6708C101.587 43.3031 101.371 42.7932 101.371 42.135C101.371 41.3744 101.653 40.7539 102.218 40.2796C102.782 39.8053 103.517 39.567 104.424 39.567C105.419 39.567 106.213 39.8157 106.802 40.313C107.391 40.8103 107.717 41.5019 107.778 42.3858H106.735C106.691 41.7861 106.466 41.316 106.06 40.9796C105.655 40.6432 105.103 40.4739 104.407 40.4739C103.801 40.4739 103.317 40.6139 102.955 40.8918C102.594 41.1697 102.412 41.5375 102.412 41.993C102.412 42.7828 103.218 43.3657 104.832 43.746C105.043 43.7941 105.201 43.8296 105.308 43.8505C106.319 44.1033 107.023 44.4168 107.416 44.7887C107.811 45.1607 108.01 45.683 108.01 46.3558C108.01 47.106 107.698 47.7182 107.08 48.1904C106.459 48.6626 105.644 48.8987 104.631 48.8987C103.618 48.8987 102.775 48.6271 102.153 48.0817C101.53 47.5364 101.204 46.8092 101.177 45.8961H101.183Z" fill="#818181"/>
<path d="M122.105 36.3701V48.6563H121.079V47.154C120.741 47.7328 120.308 48.1674 119.782 48.4599C119.255 48.7525 118.645 48.8987 117.951 48.8987C116.756 48.8987 115.81 48.4808 115.116 47.6471C114.42 46.8134 114.073 45.6768 114.073 44.235C114.073 42.7933 114.429 41.6566 115.137 40.8187C115.845 39.9808 116.806 39.5628 118.018 39.5628C118.714 39.5628 119.318 39.7091 119.832 40.0058C120.346 40.3004 120.762 40.7393 121.079 41.3243V36.3701H122.105ZM115.166 44.2371C115.166 45.4281 115.429 46.3516 115.954 47.0056C116.48 47.6617 117.212 47.9898 118.152 47.9898C119.092 47.9898 119.863 47.6659 120.384 47.0182C120.904 46.3705 121.163 45.4427 121.163 44.2371C121.163 43.0314 120.902 42.1079 120.379 41.4559C119.857 40.8019 119.115 40.476 118.152 40.476C117.189 40.476 116.46 40.7998 115.941 41.4476C115.423 42.0953 115.166 43.0252 115.166 44.2371Z" fill="#818181"/>
<path d="M125.024 44.4189V44.469C125.024 45.5534 125.286 46.4164 125.808 47.0579C126.33 47.6994 127.032 48.0211 127.91 48.0211C128.606 48.0211 129.187 47.8331 129.653 47.4591C130.119 47.0829 130.403 46.571 130.503 45.9191H131.529C131.418 46.8196 131.03 47.5427 130.361 48.0839C129.694 48.625 128.854 48.8966 127.841 48.8966C126.633 48.8966 125.689 48.4871 125.006 47.6701C124.322 46.8532 123.98 45.7185 123.98 44.2663C123.98 42.8141 124.322 41.6335 125.01 40.804C125.697 39.9745 126.652 39.5608 127.874 39.5608C129.097 39.5608 129.991 39.9578 130.656 40.7497C131.32 41.5416 131.652 42.6512 131.652 44.0741V44.4167H125.02L125.024 44.4189ZM125.041 43.5935L130.597 43.6018C130.553 42.624 130.288 41.8529 129.801 41.295C129.314 40.7371 128.668 40.4572 127.862 40.4572C127.055 40.4572 126.389 40.7413 125.881 41.3076C125.371 41.8759 125.093 42.6365 125.043 43.5935H125.041Z" fill="#818181"/>
<path d="M136.795 48.6585L141.458 36.3722H142.81L147.474 48.6585H146.287L144.898 44.8806H139.39L137.973 48.6585H136.795ZM139.745 43.8944H144.513L142.125 37.5758L139.745 43.8944Z" fill="#818181"/>
<path d="M148.172 45.8961H149.198C149.225 46.5083 149.457 47.0035 149.894 47.3859C150.33 47.7662 150.89 47.9585 151.574 47.9585C152.313 47.9585 152.896 47.8122 153.32 47.5197C153.747 47.2271 153.958 46.8322 153.958 46.3307C153.958 45.614 153.17 45.0666 151.597 44.6884L151.555 44.6801C150.286 44.375 149.438 44.0386 149.006 43.6708C148.575 43.3031 148.36 42.7932 148.36 42.135C148.36 41.3744 148.642 40.7539 149.206 40.2796C149.77 39.8053 150.506 39.567 151.413 39.567C152.407 39.567 153.201 39.8157 153.791 40.313C154.38 40.8103 154.706 41.5019 154.766 42.3858H153.724C153.68 41.7861 153.454 41.316 153.049 40.9796C152.643 40.6432 152.092 40.4739 151.396 40.4739C150.79 40.4739 150.305 40.6139 149.944 40.8918C149.582 41.1697 149.401 41.5375 149.401 41.993C149.401 42.7828 150.207 43.3657 151.82 43.746C152.031 43.7941 152.19 43.8296 152.297 43.8505C153.308 44.1033 154.012 44.4168 154.405 44.7887C154.8 45.1607 154.998 45.683 154.998 46.3558C154.998 47.106 154.687 47.7182 154.068 48.1904C153.448 48.6626 152.633 48.8987 151.62 48.8987C150.606 48.8987 149.764 48.6271 149.141 48.0817C148.519 47.5364 148.193 46.8092 148.166 45.8961H148.172Z" fill="#818181"/>
<path d="M157.048 37.9143V36.3701H158.066V37.9143H157.048ZM157.048 48.6585V39.7907H158.066V48.6585H157.048Z" fill="#818181"/>
<path d="M160.084 45.8961H161.11C161.137 46.5083 161.369 47.0035 161.806 47.3859C162.242 47.7662 162.802 47.9585 163.486 47.9585C164.225 47.9585 164.808 47.8122 165.233 47.5197C165.659 47.2271 165.87 46.8322 165.87 46.3307C165.87 45.614 165.082 45.0666 163.509 44.6884L163.467 44.6801C162.199 44.375 161.35 44.0386 160.918 43.6708C160.487 43.3031 160.272 42.7932 160.272 42.135C160.272 41.3744 160.554 40.7539 161.118 40.2796C161.683 39.8053 162.418 39.567 163.325 39.567C164.319 39.567 165.113 39.8157 165.703 40.313C166.292 40.8103 166.618 41.5019 166.678 42.3858H165.636C165.592 41.7861 165.366 41.316 164.961 40.9796C164.556 40.6432 164.004 40.4739 163.308 40.4739C162.702 40.4739 162.217 40.6139 161.856 40.8918C161.494 41.1697 161.313 41.5375 161.313 41.993C161.313 42.7828 162.119 43.3657 163.732 43.746C163.943 43.7941 164.102 43.8296 164.209 43.8505C165.22 44.1033 165.924 44.4168 166.317 44.7887C166.712 45.1607 166.91 45.683 166.91 46.3558C166.91 47.106 166.599 47.7182 165.981 48.1904C165.36 48.6626 164.545 48.8987 163.532 48.8987C162.518 48.8987 161.676 48.6271 161.054 48.0817C160.431 47.5364 160.105 46.8092 160.078 45.8961H160.084Z" fill="#818181"/>
<path d="M170.204 37.2456V39.7907H171.846V40.6243H170.204V47.0892C170.204 47.4674 170.252 47.7182 170.346 47.8394C170.44 47.9627 170.609 48.0233 170.855 48.0233C170.962 48.0233 171.081 48.0149 171.215 47.994C171.349 47.9752 171.558 47.9334 171.84 47.8728L171.848 48.6898C171.597 48.7567 171.369 48.8048 171.165 48.8361C170.958 48.8654 170.764 48.882 170.58 48.882C170.068 48.882 169.706 48.7525 169.495 48.4934C169.284 48.2343 169.178 47.7663 169.178 47.0872V40.6223H167.968V39.7885H169.178V37.2435H170.204V37.2456Z" fill="#818181"/>
<path d="M174.082 44.4189V44.469C174.082 45.5534 174.343 46.4164 174.865 47.0579C175.388 47.6994 176.09 48.0211 176.967 48.0211C177.663 48.0211 178.244 47.8331 178.71 47.4591C179.176 47.0829 179.46 46.571 179.56 45.9191H180.586C180.475 46.8196 180.087 47.5427 179.418 48.0839C178.752 48.625 177.912 48.8966 176.898 48.8966C175.691 48.8966 174.746 48.4871 174.063 47.6701C173.38 46.8532 173.037 45.7185 173.037 44.2663C173.037 42.8141 173.38 41.6335 174.067 40.804C174.754 39.9745 175.709 39.5608 176.932 39.5608C178.154 39.5608 179.048 39.9578 179.713 40.7497C180.377 41.5416 180.709 42.6512 180.709 44.0741V44.4167H174.077L174.082 44.4189ZM174.098 43.5935L179.654 43.6018C179.61 42.624 179.345 41.8529 178.858 41.295C178.371 40.7371 177.726 40.4572 176.919 40.4572C176.113 40.4572 175.446 40.7413 174.938 41.3076C174.428 41.8759 174.151 42.6365 174.1 43.5935H174.098Z" fill="#818181"/>
<path d="M182.532 48.6585V39.7907H183.524V41.2094C183.858 40.6641 184.27 40.2545 184.759 39.9787C185.248 39.7029 185.816 39.565 186.46 39.565C187.072 39.565 187.609 39.6736 188.071 39.8909C188.533 40.1083 188.886 40.4174 189.13 40.8165C189.258 41.0234 189.35 41.2721 189.406 41.5625C189.46 41.8551 189.49 42.3335 189.49 43.0021V48.6585H188.43V43.161C188.43 42.1204 188.269 41.4162 187.95 41.0464C187.63 40.6766 187.066 40.4927 186.261 40.4927C185.457 40.4927 184.778 40.756 184.297 41.2804C183.817 41.807 183.576 42.5216 183.576 43.4284V48.6585H182.534H182.532Z" fill="#818181"/>
<path d="M197.839 45.5952H198.865C198.771 46.6128 198.395 47.4152 197.739 48.0023C197.083 48.5895 196.228 48.882 195.177 48.882C193.976 48.882 193.029 48.4703 192.338 47.6471C191.646 46.8238 191.299 45.7039 191.299 44.2851C191.299 42.8663 191.65 41.6628 192.354 40.8229C193.058 39.9829 194.022 39.5628 195.244 39.5628C196.239 39.5628 197.058 39.8429 197.701 40.4008C198.345 40.9587 198.69 41.6942 198.74 42.6073H197.756C197.672 41.9616 197.4 41.4454 196.943 41.0568C196.483 40.6682 195.919 40.4718 195.246 40.4718C194.362 40.4718 193.66 40.8061 193.14 41.4727C192.62 42.1392 192.361 43.046 192.361 44.191C192.361 45.3361 192.624 46.2932 193.148 46.9785C193.675 47.6618 194.379 48.0044 195.263 48.0044C195.952 48.0044 196.527 47.7913 196.989 47.3629C197.451 46.9346 197.735 46.3454 197.839 45.5952Z" fill="#818181"/>
<path d="M200.666 37.9143V36.3701H201.684V37.9143H200.666ZM200.666 48.6585V39.7907H201.684V48.6585H200.666Z" fill="#818181"/>
<path d="M209.85 47.3735C209.384 47.8791 208.876 48.2572 208.333 48.508C207.787 48.7587 207.2 48.8842 206.573 48.8842C205.677 48.8842 204.964 48.6501 204.434 48.1842C203.903 47.7161 203.638 47.0934 203.638 46.3162C203.638 45.8105 203.759 45.3675 204.001 44.9913C204.244 44.6152 204.595 44.3165 205.056 44.0971C205.585 43.8589 206.467 43.6917 207.702 43.5998C207.94 43.581 208.122 43.5663 208.243 43.5538C208.316 43.5392 208.412 43.5204 208.535 43.4974C209.382 43.3239 209.804 42.9604 209.804 42.4046C209.804 41.715 209.632 41.2219 209.292 40.9231C208.949 40.6264 208.387 40.476 207.603 40.476C206.82 40.476 206.199 40.641 205.777 40.9732C205.355 41.3034 205.125 41.7945 205.094 42.4464L204.085 42.438C204.108 41.5542 204.432 40.8542 205.061 40.3402C205.689 39.8262 206.538 39.5692 207.606 39.5692C208.673 39.5692 209.474 39.7969 210.025 40.2524C210.575 40.7079 210.851 41.3766 210.851 42.2542V47.0913C210.851 47.4591 210.894 47.6869 210.984 47.7746C211.074 47.8624 211.239 47.9083 211.486 47.9083C211.563 47.9083 211.63 47.9083 211.686 47.9041C211.743 47.8999 211.799 47.8979 211.862 47.8916V48.6585C211.734 48.6856 211.605 48.7065 211.477 48.7211C211.35 48.7357 211.233 48.742 211.126 48.742C210.704 48.742 210.387 48.6397 210.176 48.4328C209.965 48.228 209.858 47.9208 209.858 47.5155V47.3735H209.85ZM209.783 44.0114C209.511 44.1117 209.16 44.1932 208.736 44.2538C208.31 44.3144 207.624 44.3708 206.68 44.4209C206.024 44.5943 205.529 44.8389 205.194 45.1544C204.86 45.472 204.695 45.8522 204.695 46.2973C204.695 46.8029 204.875 47.2062 205.234 47.5071C205.593 47.808 206.08 47.9585 206.699 47.9585C207.639 47.9585 208.387 47.716 208.947 47.2292C209.505 46.7423 209.785 46.08 209.785 45.24V44.0135L209.783 44.0114Z" fill="#818181"/>
<path d="M217.992 48.6585V36.3722H219.58L223.632 47.1895L227.608 36.3722H229.196V48.6585H228.104V37.9477L224.159 48.6585H223.116L219.104 37.9477V48.6585H217.995H217.992Z" fill="#818181"/>
<path d="M232.305 44.4189V44.469C232.305 45.5534 232.567 46.4164 233.089 47.0579C233.611 47.6994 234.313 48.0211 235.191 48.0211C235.887 48.0211 236.468 47.8331 236.934 47.4591C237.4 47.0829 237.684 46.571 237.784 45.9191H238.81C238.699 46.8196 238.311 47.5427 237.642 48.0839C236.976 48.625 236.136 48.8966 235.122 48.8966C233.914 48.8966 232.97 48.4871 232.287 47.6701C231.603 46.8532 231.261 45.7185 231.261 44.2663C231.261 42.8141 231.603 41.6335 232.291 40.804C232.978 39.9745 233.933 39.5608 235.156 39.5608C236.378 39.5608 237.272 39.9578 237.937 40.7497C238.601 41.5416 238.933 42.6512 238.933 44.0741V44.4167H232.301L232.305 44.4189ZM232.322 43.5935L237.878 43.6018C237.834 42.624 237.569 41.8529 237.082 41.295C236.595 40.7371 235.95 40.4572 235.143 40.4572C234.336 40.4572 233.67 40.7413 233.162 41.3076C232.652 41.8759 232.374 42.6365 232.324 43.5935H232.322ZM234.817 38.6477H234.05L235.793 35.7286H237.061L234.817 38.6477Z" fill="#818181"/>
<path d="M248.363 36.3701V48.6563H247.337V47.154C246.999 47.7328 246.566 48.1674 246.04 48.4599C245.513 48.7525 244.903 48.8987 244.209 48.8987C243.014 48.8987 242.068 48.4808 241.374 47.6471C240.678 46.8134 240.331 45.6768 240.331 44.235C240.331 42.7933 240.687 41.6566 241.395 40.8187C242.103 39.9808 243.064 39.5628 244.276 39.5628C244.972 39.5628 245.576 39.7091 246.09 40.0058C246.604 40.3004 247.02 40.7393 247.337 41.3243V36.3701H248.363ZM241.424 44.2371C241.424 45.4281 241.687 46.3516 242.212 47.0056C242.738 47.6617 243.47 47.9898 244.41 47.9898C245.35 47.9898 246.121 47.6659 246.642 47.0182C247.162 46.3705 247.421 45.4427 247.421 44.2371C247.421 43.0314 247.16 42.1079 246.637 41.4559C246.115 40.8019 245.373 40.476 244.41 40.476C243.447 40.476 242.717 40.7998 242.199 41.4476C241.681 42.0953 241.424 43.0252 241.424 44.2371Z" fill="#818181"/>
<path d="M250.791 37.9143V36.3701H251.809V37.9143H250.791ZM250.791 48.6585V39.7907H251.809V48.6585H250.791Z" fill="#818181"/>
<path d="M260.301 45.5952H261.327C261.233 46.6128 260.856 47.4152 260.2 48.0023C259.544 48.5895 258.69 48.882 257.639 48.882C256.437 48.882 255.491 48.4703 254.799 47.6471C254.107 46.8238 253.76 45.7039 253.76 44.2851C253.76 42.8663 254.112 41.6628 254.816 40.8229C255.52 39.9829 256.483 39.5628 257.705 39.5628C258.7 39.5628 259.519 39.8429 260.163 40.4008C260.806 40.9587 261.151 41.6942 261.201 42.6073H260.217C260.133 41.9616 259.862 41.4454 259.404 41.0568C258.945 40.6682 258.38 40.4718 257.708 40.4718C256.824 40.4718 256.122 40.8061 255.601 41.4727C255.081 42.1392 254.822 43.046 254.822 44.191C254.822 45.3361 255.085 46.2932 255.61 46.9785C256.136 47.6618 256.84 48.0044 257.724 48.0044C258.414 48.0044 258.988 47.7913 259.45 47.3629C259.912 46.9346 260.196 46.3454 260.301 45.5952Z" fill="#818181"/>
<path d="M268.792 47.3735C268.326 47.8791 267.819 48.2572 267.275 48.508C266.73 48.7587 266.143 48.8842 265.516 48.8842C264.62 48.8842 263.907 48.6501 263.376 48.1842C262.846 47.7161 262.58 47.0934 262.58 46.3162C262.58 45.8105 262.701 45.3675 262.944 44.9913C263.186 44.6152 263.537 44.3165 263.999 44.0971C264.528 43.8589 265.409 43.6917 266.644 43.5998C266.882 43.581 267.064 43.5663 267.185 43.5538C267.259 43.5392 267.355 43.5204 267.478 43.4974C268.324 43.3239 268.746 42.9604 268.746 42.4046C268.746 41.715 268.575 41.2219 268.234 40.9231C267.892 40.6264 267.33 40.476 266.546 40.476C265.763 40.476 265.142 40.641 264.72 40.9732C264.298 41.3034 264.068 41.7945 264.037 42.4464L263.027 42.438C263.05 41.5542 263.374 40.8542 264.003 40.3402C264.632 39.8262 265.48 39.5692 266.548 39.5692C267.616 39.5692 268.416 39.7969 268.968 40.2524C269.517 40.7079 269.793 41.3766 269.793 42.2542V47.0913C269.793 47.4591 269.837 47.6869 269.927 47.7746C270.017 47.8624 270.182 47.9083 270.428 47.9083C270.506 47.9083 270.573 47.9083 270.629 47.9041C270.685 47.8999 270.742 47.8979 270.804 47.8916V48.6585C270.677 48.6856 270.547 48.7065 270.42 48.7211C270.293 48.7357 270.176 48.742 270.069 48.742C269.647 48.742 269.329 48.6397 269.118 48.4328C268.907 48.228 268.801 47.9208 268.801 47.5155V47.3735H268.792ZM268.725 44.0114C268.454 44.1117 268.103 44.1932 267.679 44.2538C267.252 44.3144 266.567 44.3708 265.622 44.4209C264.966 44.5943 264.471 44.8389 264.137 45.1544C263.803 45.472 263.637 45.8522 263.637 46.2973C263.637 46.8029 263.817 47.2062 264.177 47.5071C264.536 47.808 265.023 47.9585 265.641 47.9585C266.582 47.9585 267.33 47.716 267.89 47.2292C268.447 46.7423 268.727 46.08 268.727 45.24V44.0135L268.725 44.0114Z" fill="#818181"/>
<path d="M32.0377 15.8784C36.0432 15.8784 39.2903 12.6313 39.2903 8.62574C39.2903 4.62021 36.0432 1.3731 32.0377 1.3731C28.0322 1.3731 24.785 4.62021 24.785 8.62574C24.785 12.6313 28.0322 15.8784 32.0377 15.8784Z" fill="#FBB81E"/>
<path d="M40.3309 19.2488C47.9868 24.0546 50.2978 34.1573 45.492 41.8132C42.6001 46.4226 37.788 49.0909 32.7439 49.4399C36.365 48.7065 39.6915 46.5522 41.8103 43.1756C45.912 36.6396 43.9395 28.0142 37.4035 23.9125C30.8676 19.8108 22.2421 21.7833 18.1404 28.3192C16.0217 31.6959 15.5265 35.6284 16.4417 39.2077C14.5632 34.5147 14.8746 29.0214 17.7664 24.4119C22.5723 16.756 32.675 14.445 40.3309 19.2508V19.2488Z" fill="#FBB81E"/>
<path d="M16.2391 15.8784C20.2446 15.8784 23.4917 12.6313 23.4917 8.62574C23.4917 4.62021 20.2446 1.3731 16.2391 1.3731C12.2336 1.3731 8.98645 4.62021 8.98645 8.62574C8.98645 12.6313 12.2336 15.8784 16.2391 15.8784Z" fill="#5A1160"/>
<path d="M7.66793 19.2488C0.0120072 24.0546 -2.29898 34.1573 2.50687 41.8132C5.39873 46.4226 10.2108 49.0909 15.2549 49.4399C11.6338 48.7065 8.30731 46.5522 6.18856 43.1756C2.08688 36.6396 4.05937 28.0142 10.5953 23.9125C17.1313 19.8108 25.7567 21.7833 29.8584 28.3192C31.9771 31.6959 32.4724 35.6284 31.5572 39.2077C33.4356 34.5147 33.1243 29.0214 30.2324 24.4119C25.4266 16.756 15.3238 14.445 7.66793 19.2508V19.2488Z" fill="#5A1160"/>
</svg>
