<svg width="104" height="43" viewBox="0 0 104 43" fill="none" xmlns="http://www.w3.org/2000/svg">
<path d="M42.8736 24.4591C45.6633 24.223 47.1982 27.541 45.3113 29.5775L27.6643 41.505C26.1294 42.3698 25.0251 42.2868 23.3682 41.8371L11.2686 37.682L6.26172 40.9456L5.78784 40.911L0.000918507 32.3387C-0.0207003 32.0075 0.344225 31.729 0.576843 31.5388C3.696 29.811 6.73647 26.9357 9.8859 25.3688C13.0708 23.7837 15.64 24.5369 18.651 25.9741C22.4369 27.7814 26.1329 29.8949 29.8755 31.7852L30.4817 32.3741L41.6863 24.8274C42.0547 24.6311 42.4559 24.4945 42.8745 24.4591H42.8736ZM29.1119 35.2987C29.8228 34.6346 29.7112 33.3738 28.9113 32.8359C24.9646 30.9966 21.2098 28.6462 17.2397 26.8665C14.7864 25.7666 12.7845 25.444 10.3191 26.7532L1.73475 32.5177L6.28248 39.2161L10.6088 36.3831L11.1951 36.1903C15.8674 37.6292 20.3944 39.5654 25.1332 40.7683C25.8215 40.8184 26.4805 40.5573 27.0599 40.2096L44.2667 28.6202C45.3217 27.3473 44.4578 25.642 42.7672 25.9101C38.7669 28.4092 34.8288 31.1142 30.9781 33.8269C31.2427 36.0044 29.105 37.6967 27.0054 36.9919C24.1465 36.032 21.0576 33.7543 18.1564 32.6967C17.1204 32.2617 17.5217 30.949 18.6545 31.3338L27.4127 35.6325C27.967 35.847 28.677 35.7069 29.1119 35.3005V35.2987Z" fill="#818181"/>
<path d="M28.894 6.34856C36.8523 6.35375 41.5817 15.3826 36.9086 21.953C32.4248 28.2571 22.7431 27.0845 19.7891 20.0376C12.1498 19.9684 7.3816 11.6521 11.4131 5.01857C15.589 -1.85447 25.8501 -1.01739 28.894 6.34943V6.34856ZM27.4118 6.44542C26.4139 4.40201 24.4985 2.73736 22.3098 2.08015C15.7048 0.0964063 9.61698 6.35808 11.823 12.9129C12.91 16.1419 15.9158 18.3366 19.2823 18.6401C19.0436 17.3871 18.9105 16.1125 19.1042 14.8422C18.1962 14.7315 16.4857 14.0033 16.6085 12.8956C16.6457 12.5592 17.0781 12.3128 17.385 12.3638C17.7785 12.4286 18.0959 13.0314 18.5136 13.2268C18.8041 13.3634 19.1414 13.4049 19.4553 13.4516C19.6118 12.5583 20.0865 11.7792 20.4938 10.9888C19.7553 10.6412 18.8793 10.5997 18.1261 10.2408C15.6504 9.05956 16.5566 5.85911 19.0722 5.50111C18.971 4.00681 20.7109 3.97049 20.5284 5.50111C21.2859 5.6559 22.1135 6.00872 22.5684 6.66333C22.999 7.2825 22.5684 7.96824 21.8368 7.82988C21.5653 7.77886 21.2678 7.25655 20.9271 7.09398C20.1401 6.71781 18.4115 6.75846 18.1296 7.75897C17.6946 9.30515 20.557 9.33455 21.4745 9.73926C22.9428 7.95787 25.128 6.79564 27.411 6.44542H27.4118ZM28.2593 7.76935C21.7754 8.26918 18.1919 15.6585 21.9449 21.0364C25.8864 26.6849 34.6317 25.4855 36.8774 18.9817C38.8577 13.2467 34.291 7.30498 28.2593 7.76935Z" fill="#818181"/>
<path d="M29.5849 11.537C30.3606 11.5898 32.4732 12.7529 31.6214 13.6825C30.9815 14.3812 30.3943 13.2709 29.8305 13.0633C29.047 12.7745 27.3824 12.8359 27.1714 13.8589C27.0408 14.4954 27.3461 14.7868 27.8701 15.0229C28.6138 15.3575 29.5166 15.4189 30.2871 15.7181C33.1926 16.8475 32.4697 20.3238 29.6567 20.8409C29.4457 20.9983 29.7907 21.7264 29.1361 21.9634C28.3993 22.2297 28.0846 21.5353 28.178 20.898C27.3487 20.7717 25.9062 20.1967 25.6494 19.3129C25.4574 18.6514 26.1821 18.1524 26.7632 18.5519C26.944 18.6764 27.0166 18.8926 27.1601 19.0189C28.0318 19.7859 30.5232 19.7124 30.6901 18.3279C30.876 16.7878 28.4737 16.8241 27.3884 16.3701C24.6982 15.2442 25.4955 11.9175 28.1788 11.537C27.9747 10.0281 29.7907 10.035 29.584 11.537H29.5849Z" fill="#818181"/>
<path d="M63.1757 27.2408V15.6002H67.1132C68.0246 15.6002 68.7694 15.7643 69.3475 16.0924C69.9309 16.4205 70.3632 16.8632 70.6444 17.4205C70.9257 17.9778 71.0663 18.6002 71.0663 19.2877C71.0663 19.97 70.9257 20.5924 70.6444 21.1549C70.3684 21.7174 69.9387 22.1653 69.3553 22.4986C68.7772 22.8268 68.035 22.9908 67.1288 22.9908H64.3163V21.7408H67.0819C67.7069 21.7408 68.2095 21.634 68.5897 21.4205C68.9699 21.207 69.246 20.9153 69.4178 20.5455C69.5897 20.1705 69.6757 19.7512 69.6757 19.2877C69.6757 18.8189 69.5897 18.4023 69.4178 18.0377C69.246 17.6679 68.9673 17.3788 68.5819 17.1705C68.2017 16.957 67.6965 16.8502 67.0663 16.8502H64.5819V27.2408H63.1757ZM74.9725 27.4439C74.4205 27.4439 73.9178 27.3398 73.4647 27.1314C73.0116 26.9179 72.6522 26.6106 72.3866 26.2096C72.121 25.8085 71.9882 25.3241 71.9882 24.7564C71.9882 24.2564 72.0871 23.8528 72.285 23.5455C72.483 23.233 72.746 22.9882 73.0741 22.8111C73.4074 22.6288 73.772 22.4934 74.1678 22.4049C74.5689 22.3163 74.9725 22.246 75.3788 22.1939C75.91 22.1262 76.3397 22.0741 76.6678 22.0377C77.0012 22.0012 77.2434 21.9387 77.3944 21.8502C77.5507 21.7616 77.6288 21.6106 77.6288 21.3971V21.3502C77.6288 20.7929 77.4751 20.3606 77.1678 20.0533C76.8658 19.7408 76.4048 19.5846 75.785 19.5846C75.1496 19.5846 74.6496 19.7252 74.285 20.0064C73.9205 20.2825 73.6652 20.5794 73.5194 20.8971L72.2382 20.4439C72.4673 19.9127 72.772 19.4986 73.1522 19.2018C73.5376 18.9049 73.9543 18.6965 74.4022 18.5768C74.8553 18.457 75.3007 18.3971 75.7382 18.3971C76.0194 18.3971 76.3423 18.4309 76.7069 18.4986C77.0715 18.5611 77.4257 18.6965 77.7694 18.9049C78.1184 19.108 78.4048 19.4179 78.6288 19.8346C78.858 20.246 78.9725 20.7981 78.9725 21.4908V27.2408H77.6288V26.0533H77.5663C77.4777 26.2408 77.3267 26.4439 77.1132 26.6627C76.8996 26.8762 76.6158 27.0611 76.2616 27.2174C75.9126 27.3684 75.483 27.4439 74.9725 27.4439ZM75.1757 26.2408C75.7069 26.2408 76.1548 26.1366 76.5194 25.9283C76.884 25.72 77.16 25.4518 77.3475 25.1236C77.535 24.7903 77.6288 24.4439 77.6288 24.0846V22.8502C77.5715 22.9179 77.4465 22.9804 77.2538 23.0377C77.0663 23.0898 76.8475 23.1366 76.5975 23.1783C76.3527 23.22 76.1132 23.2564 75.8788 23.2877C75.6444 23.3137 75.4569 23.3346 75.3163 23.3502C74.9673 23.3971 74.6418 23.4726 74.3397 23.5768C74.0376 23.6757 73.7928 23.8241 73.6053 24.0221C73.4231 24.22 73.3319 24.4908 73.3319 24.8346C73.3319 25.2981 73.5038 25.6497 73.8475 25.8893C74.1965 26.1236 74.6392 26.2408 75.1757 26.2408ZM84.2069 30.6939C83.233 30.6939 82.4621 30.5169 81.8944 30.1627C81.3319 29.8085 80.9152 29.4023 80.6444 28.9439L81.7069 28.1939C81.8267 28.3554 81.9803 28.5377 82.1678 28.7408C82.3553 28.9491 82.6106 29.1288 82.9335 29.2799C83.2564 29.4309 83.6809 29.5064 84.2069 29.5064C84.91 29.5064 85.4908 29.3372 85.9491 28.9986C86.4126 28.6601 86.6444 28.1262 86.6444 27.3971V25.6314H86.5194C86.4257 25.7877 86.2876 25.983 86.1053 26.2174C85.9283 26.4465 85.6705 26.6523 85.3319 26.8346C84.9986 27.0116 84.5455 27.1002 83.9725 27.1002C83.2694 27.1002 82.6392 26.9335 82.0819 26.6002C81.5246 26.2669 81.0819 25.7825 80.7538 25.1471C80.4309 24.5116 80.2694 23.7408 80.2694 22.8346C80.2694 21.9387 80.4257 21.1601 80.7382 20.4986C81.0559 19.832 81.496 19.3163 82.0585 18.9518C82.621 18.582 83.2694 18.3971 84.0038 18.3971C84.5715 18.3971 85.022 18.4908 85.3553 18.6783C85.6939 18.8658 85.9517 19.0794 86.1288 19.3189C86.3111 19.5533 86.4517 19.746 86.5507 19.8971H86.6913V18.5064H87.9725V27.4908C87.9725 28.2408 87.8033 28.8502 87.4647 29.3189C87.1314 29.7929 86.6783 30.1393 86.1053 30.358C85.5376 30.582 84.9048 30.6939 84.2069 30.6939ZM84.16 25.8971C84.9673 25.8971 85.5845 25.6236 86.0116 25.0768C86.4439 24.5299 86.66 23.7721 86.66 22.8033C86.66 22.1731 86.5663 21.6184 86.3788 21.1393C86.1913 20.6601 85.91 20.2851 85.535 20.0143C85.1652 19.7382 84.7069 19.6002 84.16 19.6002C83.5923 19.6002 83.1184 19.746 82.7382 20.0377C82.3632 20.3241 82.0819 20.7096 81.8944 21.1939C81.7069 21.6783 81.6132 22.2148 81.6132 22.8033C81.6132 23.4075 81.7069 23.9439 81.8944 24.4127C82.0871 24.8762 82.3736 25.2408 82.7538 25.5064C83.134 25.7669 83.6027 25.8971 84.16 25.8971ZM92.2538 27.4439C91.7017 27.4439 91.1991 27.3398 90.746 27.1314C90.2928 26.9179 89.9335 26.6106 89.6678 26.2096C89.4022 25.8085 89.2694 25.3241 89.2694 24.7564C89.2694 24.2564 89.3684 23.8528 89.5663 23.5455C89.7642 23.233 90.0272 22.9882 90.3553 22.8111C90.6887 22.6288 91.0533 22.4934 91.4491 22.4049C91.8501 22.3163 92.2538 22.246 92.66 22.1939C93.1913 22.1262 93.621 22.0741 93.9491 22.0377C94.2824 22.0012 94.5246 21.9387 94.6757 21.8502C94.8319 21.7616 94.91 21.6106 94.91 21.3971V21.3502C94.91 20.7929 94.7564 20.3606 94.4491 20.0533C94.147 19.7408 93.6861 19.5846 93.0663 19.5846C92.4309 19.5846 91.9309 19.7252 91.5663 20.0064C91.2017 20.2825 90.9465 20.5794 90.8007 20.8971L89.5194 20.4439C89.7486 19.9127 90.0533 19.4986 90.4335 19.2018C90.8189 18.9049 91.2356 18.6965 91.6835 18.5768C92.1366 18.457 92.5819 18.3971 93.0194 18.3971C93.3007 18.3971 93.6236 18.4309 93.9882 18.4986C94.3527 18.5611 94.7069 18.6965 95.0507 18.9049C95.3996 19.108 95.6861 19.4179 95.91 19.8346C96.1392 20.246 96.2538 20.7981 96.2538 21.4908V27.2408H94.91V26.0533H94.8475C94.759 26.2408 94.608 26.4439 94.3944 26.6627C94.1809 26.8762 93.897 27.0611 93.5428 27.2174C93.1939 27.3684 92.7642 27.4439 92.2538 27.4439ZM92.4569 26.2408C92.9882 26.2408 93.4361 26.1366 93.8007 25.9283C94.1652 25.72 94.4413 25.4518 94.6288 25.1236C94.8163 24.7903 94.91 24.4439 94.91 24.0846V22.8502C94.8527 22.9179 94.7277 22.9804 94.535 23.0377C94.3475 23.0898 94.1288 23.1366 93.8788 23.1783C93.634 23.22 93.3944 23.2564 93.16 23.2877C92.9257 23.3137 92.7382 23.3346 92.5975 23.3502C92.2486 23.3971 91.9231 23.4726 91.621 23.5768C91.3189 23.6757 91.0741 23.8241 90.8866 24.0221C90.7043 24.22 90.6132 24.4908 90.6132 24.8346C90.6132 25.2981 90.785 25.6497 91.1288 25.8893C91.4777 26.1236 91.9205 26.2408 92.4569 26.2408ZM97.9725 27.2408V18.5064H99.2538V19.8346H99.3475C99.509 19.4023 99.7981 19.0533 100.215 18.7877C100.637 18.5169 101.108 18.3814 101.629 18.3814C101.728 18.3814 101.85 18.384 101.996 18.3893C102.142 18.3893 102.254 18.3919 102.332 18.3971V19.7564C102.285 19.746 102.181 19.7304 102.019 19.7096C101.858 19.6887 101.686 19.6783 101.504 19.6783C101.082 19.6783 100.704 19.7669 100.371 19.9439C100.038 20.121 99.7746 20.3632 99.5819 20.6705C99.3944 20.9778 99.3007 21.3294 99.3007 21.7252V27.2408H97.9725Z" fill="#818181"/>
</svg>
