<svg width="177" height="47" viewBox="0 0 177 47" fill="none" xmlns="http://www.w3.org/2000/svg">
<path d="M20.2741 10.3538L15.3193 12.3423L18.0111 18.9204L16.592 19.4217L13.7754 12.4081C13.8537 11.9532 14.0488 11.5085 14.439 11.2488C15.2342 10.7202 20.0847 9.04019 20.2503 8.77135C20.4953 6.67961 19.9996 4.11145 20.2866 2.07757C20.4522 0.908053 21.5151 0.344282 22.6075 0.288699C26.648 0.593839 31.2478 -0.103785 35.2203 0.295505C36.2412 0.397597 37.0579 0.804828 37.3574 1.84276L37.4413 9.05607C37.5831 9.28294 41.6883 10.7519 42.3633 11.1523C42.8805 11.4598 43.1051 11.7819 43.2038 12.4047L39.8666 20.6264C41.956 22.4017 42.2487 24.6636 40.5358 26.8585C42.5561 29.4777 41.8744 32.2399 39.4344 34.242C40.3441 37.0801 38.9126 39.3114 36.442 40.5989C37.8939 42.9549 36.3127 45.3972 33.9373 46.1889C28.9587 45.8747 23.4083 46.637 18.4977 46.2037C16.2631 46.0063 14.4356 42.2573 12.1159 41.9601C11.7937 41.9181 9.71788 41.8398 9.59424 41.934C9.43316 42.702 8.9885 43.5402 8.23189 43.8613C7.44011 44.197 3.513 44.1732 2.49549 44.0722C1.04466 43.9293 0.28238 43.2192 0.150796 41.7412C-0.329033 36.378 0.522862 30.3115 0.154199 24.8734C0.166677 24.4843 0.337963 24.1531 0.715701 24.0181L11.1256 23.9432C12.6865 23.57 13.9308 22.4811 15.3613 21.8039C19.1647 20.0014 24.655 19.0576 28.7817 20.0547C31.2966 20.6616 32.9255 24.1905 33.7377 26.4331C34.4966 28.5271 35.4449 31.3721 32.5988 32.3828C29.2854 33.5602 27.7994 29.9065 25.7337 28.4863C25.6146 28.4046 25.5851 28.2923 25.3787 28.3491C24.6209 30.1583 21.2723 32.1661 19.3848 31.8599C18.8051 31.7657 18.6679 30.9104 19.0592 30.6019C19.3167 30.3988 20.9706 30.2117 21.5491 29.9757C22.7844 29.4721 23.7498 28.4409 24.4077 27.3089C24.7968 26.6385 25.297 24.676 26.0128 24.676C27.3842 24.6749 26.1795 26.736 26.2442 26.9118C26.2487 26.9254 26.4189 26.9323 26.504 27.0377C27.425 28.1891 29.8128 31.0409 31.2966 31.152C32.2426 31.2235 33.2306 30.3852 33.1648 29.4278C33.1093 28.6315 32.0282 25.9613 31.6346 25.1354C31.1514 24.1225 29.797 21.8424 28.7307 21.5214C25.0883 20.4245 19.4857 21.5191 16.0714 23.0811C15.0516 23.5474 12.4108 25.3725 11.5623 25.3725H9.50803V40.3913C10.4666 40.3652 11.4285 40.3936 12.3734 40.5705C14.9472 41.0549 16.2812 43.3939 18.3627 44.7823H26.0842C25.3526 43.2124 25.4694 41.6561 26.783 40.4616C24.9454 38.7567 25.3503 35.7836 27.7869 34.9396C28.6683 34.6345 30.9937 34.6106 31.9658 34.7218C33.0321 34.8432 32.9505 35.939 32.3595 36.1125C31.081 36.488 28.4369 35.534 27.4319 36.8521C26.6197 37.9184 27.2662 39.4713 28.5719 39.6732C29.2219 39.7742 32.0101 39.3 31.2557 40.8167C31.0096 41.3112 28.86 40.9585 28.0126 41.3997C26.3383 42.2732 27.0019 44.4715 28.8827 44.746C29.7005 44.8652 33.0174 44.9071 33.7377 44.7165C35.0728 44.3649 35.8192 42.9776 35.3598 41.6686C35.1227 40.9948 34.3809 40.4979 34.6883 39.8581C34.8607 39.5008 36.3115 39.0165 36.8379 38.607C37.5967 38.0182 38.2547 37.062 38.2785 36.0683C38.3 35.1903 37.7737 34.3951 37.8656 33.5466C38.3023 33.0407 38.8581 32.8275 39.33 32.3159C41.1166 30.3795 40.0946 28.6156 38.6937 26.8642C38.6755 26.1995 40.5721 25.2217 40.1536 23.5576C39.963 22.801 39.4525 21.9252 38.6233 21.8277C36.9173 21.6258 34.8675 22.0069 33.1217 21.8039L32.0328 20.4132H35.9996V2.20802C35.9996 1.92103 35.2044 1.72932 34.9435 1.7055C31.0334 1.34478 26.5777 1.99135 22.6075 1.7089L21.8214 2.05601L21.6955 18.0526L20.273 18.4303V10.3549L20.2741 10.3538ZM37.4175 10.6374V20.4132C37.7295 20.3746 38.2547 20.5436 38.4804 20.2725L41.677 12.4217L37.4175 10.6385V10.6374ZM8.09009 25.3714H1.71506V42.1597C1.71506 42.2652 2.05877 42.4808 2.21417 42.5102C3.08308 42.677 6.03919 42.6294 7.08847 42.6078C7.34029 42.6033 8.09009 42.4116 8.09009 42.1597V25.3714Z" fill="#818181"/>
<path d="M28.4617 7.84228C33.9837 7.33749 34.847 15.7294 29.5427 16.435C23.5715 17.2279 22.7854 8.36181 28.4617 7.84228ZM28.0284 9.39407C25.1313 9.99187 25.3752 15.0386 28.8463 15.0397C32.8936 15.0397 32.5567 8.4605 28.0284 9.39407Z" fill="#818181"/>
<path d="M4.2991 28.2401C4.88442 27.6571 5.96318 28.3695 5.46974 29.1998C4.9763 30.0301 3.56971 28.9673 4.2991 28.2401Z" fill="#818181"/>
<path d="M60.2351 17.6139H61.9226L65.8757 27.2702H66.0164L69.9695 17.6139H71.7117V29.2545H70.3289V20.4108H70.2195L66.5554 29.2545H65.2898L61.6726 20.4108H61.5632V29.2545H60.2351V17.6139ZM73.6101 29.2545V20.5202H74.9382V29.2545H73.6101ZM74.282 19.067C74.0216 19.067 73.7976 18.9785 73.6101 18.8014C73.4226 18.6243 73.3289 18.4108 73.3289 18.1608C73.3289 17.9108 73.4226 17.6973 73.6101 17.5202C73.7976 17.3431 74.0216 17.2545 74.282 17.2545C74.5424 17.2545 74.7664 17.3431 74.9539 17.5202C75.1414 17.6973 75.2351 17.9108 75.2351 18.1608C75.2351 18.4108 75.1414 18.6243 74.9539 18.8014C74.7664 18.9785 74.5424 19.067 74.282 19.067ZM82.8289 22.4889L81.6257 22.817C81.5111 22.5202 81.3132 22.2389 81.032 21.9733C80.7559 21.7025 80.3236 21.567 79.7351 21.567C79.2039 21.567 78.7611 21.692 78.407 21.942C78.0528 22.1868 77.8757 22.4941 77.8757 22.8639C77.8757 23.1973 77.9955 23.4629 78.2351 23.6608C78.4799 23.8587 78.8601 24.0202 79.3757 24.1452L80.6726 24.4577C81.4486 24.6452 82.0268 24.9342 82.407 25.3249C82.7924 25.7155 82.9851 26.2129 82.9851 26.817C82.9851 27.317 82.8419 27.765 82.5554 28.1608C82.269 28.5566 81.8705 28.8691 81.3601 29.0983C80.8497 29.3275 80.2559 29.442 79.5789 29.442C78.6882 29.442 77.9513 29.2467 77.3679 28.8561C76.7898 28.4655 76.4226 27.9004 76.2664 27.1608L77.532 26.8483C77.6518 27.317 77.8809 27.6686 78.2195 27.903C78.5632 28.1374 79.0111 28.2545 79.5632 28.2545C80.183 28.2545 80.6778 28.1217 81.0476 27.8561C81.4226 27.5853 81.6101 27.265 81.6101 26.8952C81.6101 26.2806 81.1778 25.8691 80.3132 25.6608L78.8601 25.317C78.058 25.1243 77.4695 24.8301 77.0945 24.4342C76.7195 24.0384 76.532 23.541 76.532 22.942C76.532 22.4473 76.67 22.0098 76.946 21.6295C77.2273 21.2493 77.6101 20.9525 78.0945 20.7389C78.5789 20.5202 79.1257 20.4108 79.7351 20.4108C80.6049 20.4108 81.2846 20.6035 81.7742 20.9889C82.269 21.3691 82.6205 21.8691 82.8289 22.4889ZM88.0164 32.5202V20.5202H89.2976V21.9108H89.4539C89.5528 21.7598 89.6908 21.567 89.8679 21.3327C90.045 21.0931 90.3002 20.8795 90.6335 20.692C90.9669 20.5045 91.4174 20.4108 91.9851 20.4108C92.7195 20.4108 93.3653 20.5957 93.9226 20.9655C94.4799 21.3301 94.9148 21.8509 95.2273 22.528C95.545 23.1999 95.7039 23.9941 95.7039 24.9108C95.7039 25.8327 95.5476 26.6348 95.2351 27.317C94.9226 27.9941 94.4877 28.5176 93.9304 28.8874C93.3731 29.2572 92.7299 29.442 92.0007 29.442C91.4434 29.442 90.9955 29.3483 90.657 29.1608C90.3184 28.9681 90.058 28.7519 89.8757 28.5124C89.6934 28.2676 89.5528 28.067 89.4539 27.9108H89.3445V32.5202H88.0164ZM91.8289 28.2389C92.3861 28.2389 92.8523 28.0905 93.2273 27.7936C93.6023 27.4915 93.8835 27.0879 94.071 26.5827C94.2638 26.0775 94.3601 25.515 94.3601 24.8952C94.3601 24.2806 94.2664 23.7259 94.0789 23.2311C93.8914 22.7363 93.6101 22.3431 93.2351 22.0514C92.8653 21.7598 92.3966 21.6139 91.8289 21.6139C91.282 21.6139 90.8236 21.7519 90.4539 22.028C90.0841 22.2988 89.8028 22.6816 89.6101 23.1764C89.4226 23.666 89.3289 24.2389 89.3289 24.8952C89.3289 25.5514 89.4252 26.1322 89.6179 26.6374C89.8106 27.1374 90.0919 27.5306 90.4617 27.817C90.8367 28.0983 91.2924 28.2389 91.8289 28.2389ZM99.5632 29.4577C99.0111 29.4577 98.5085 29.3535 98.0554 29.1452C97.6023 28.9316 97.2429 28.6243 96.9773 28.2233C96.7117 27.8223 96.5789 27.3379 96.5789 26.7702C96.5789 26.2702 96.6778 25.8665 96.8757 25.5592C97.0736 25.2467 97.3367 25.0019 97.6648 24.8249C97.9981 24.6426 98.3627 24.5072 98.7585 24.4186C99.1596 24.3301 99.5632 24.2598 99.9695 24.2077C100.501 24.14 100.93 24.0879 101.259 24.0514C101.592 24.015 101.834 23.9525 101.985 23.8639C102.141 23.7754 102.219 23.6243 102.219 23.4108V23.3639C102.219 22.8066 102.066 22.3743 101.759 22.067C101.456 21.7545 100.996 21.5983 100.376 21.5983C99.7403 21.5983 99.2403 21.7389 98.8757 22.0202C98.5111 22.2962 98.2559 22.5931 98.1101 22.9108L96.8289 22.4577C97.058 21.9264 97.3627 21.5124 97.7429 21.2155C98.1283 20.9186 98.545 20.7103 98.9929 20.5905C99.446 20.4707 99.8914 20.4108 100.329 20.4108C100.61 20.4108 100.933 20.4447 101.298 20.5124C101.662 20.5749 102.016 20.7103 102.36 20.9186C102.709 21.1217 102.996 21.4316 103.219 21.8483C103.449 22.2598 103.563 22.8118 103.563 23.5045V29.2545H102.219V28.067H102.157C102.068 28.2545 101.917 28.4577 101.704 28.6764C101.49 28.89 101.206 29.0749 100.852 29.2311C100.503 29.3822 100.074 29.4577 99.5632 29.4577ZM99.7664 28.2545C100.298 28.2545 100.746 28.1504 101.11 27.942C101.475 27.7337 101.751 27.4655 101.938 27.1374C102.126 26.804 102.219 26.4577 102.219 26.0983V24.8639C102.162 24.9316 102.037 24.9941 101.844 25.0514C101.657 25.1035 101.438 25.1504 101.188 25.192C100.943 25.2337 100.704 25.2702 100.469 25.3014C100.235 25.3275 100.048 25.3483 99.907 25.3639C99.558 25.4108 99.2325 25.4863 98.9304 25.5905C98.6283 25.6894 98.3835 25.8379 98.196 26.0358C98.0138 26.2337 97.9226 26.5045 97.9226 26.8483C97.9226 27.3118 98.0945 27.6634 98.4382 27.903C98.7872 28.1374 99.2299 28.2545 99.7664 28.2545ZM108.798 32.7077C107.824 32.7077 107.053 32.5306 106.485 32.1764C105.923 31.8223 105.506 31.416 105.235 30.9577L106.298 30.2077C106.417 30.3691 106.571 30.5514 106.759 30.7545C106.946 30.9629 107.201 31.1426 107.524 31.2936C107.847 31.4447 108.272 31.5202 108.798 31.5202C109.501 31.5202 110.081 31.3509 110.54 31.0124C111.003 30.6738 111.235 30.14 111.235 29.4108V27.6452H111.11C111.016 27.8014 110.878 27.9967 110.696 28.2311C110.519 28.4603 110.261 28.666 109.923 28.8483C109.589 29.0254 109.136 29.1139 108.563 29.1139C107.86 29.1139 107.23 28.9473 106.673 28.6139C106.115 28.2806 105.673 27.7962 105.344 27.1608C105.022 26.5254 104.86 25.7545 104.86 24.8483C104.86 23.9525 105.016 23.1738 105.329 22.5124C105.647 21.8457 106.087 21.3301 106.649 20.9655C107.212 20.5957 107.86 20.4108 108.594 20.4108C109.162 20.4108 109.613 20.5045 109.946 20.692C110.285 20.8795 110.542 21.0931 110.719 21.3327C110.902 21.567 111.042 21.7598 111.141 21.9108H111.282V20.5202H112.563V29.5045C112.563 30.2545 112.394 30.8639 112.055 31.3327C111.722 31.8066 111.269 32.153 110.696 32.3717C110.128 32.5957 109.496 32.7077 108.798 32.7077ZM108.751 27.9108C109.558 27.9108 110.175 27.6374 110.602 27.0905C111.035 26.5436 111.251 25.7858 111.251 24.817C111.251 24.1868 111.157 23.6322 110.969 23.153C110.782 22.6738 110.501 22.2988 110.126 22.028C109.756 21.7519 109.298 21.6139 108.751 21.6139C108.183 21.6139 107.709 21.7598 107.329 22.0514C106.954 22.3379 106.673 22.7233 106.485 23.2077C106.298 23.692 106.204 24.2285 106.204 24.817C106.204 25.4212 106.298 25.9577 106.485 26.4264C106.678 26.89 106.964 27.2545 107.344 27.5202C107.725 27.7806 108.193 27.9108 108.751 27.9108ZM117.813 29.442C117.027 29.442 116.337 29.2545 115.743 28.8795C115.149 28.5045 114.686 27.9785 114.352 27.3014C114.024 26.6243 113.86 25.8379 113.86 24.942C113.86 24.0306 114.024 23.2363 114.352 22.5592C114.686 21.8769 115.149 21.3483 115.743 20.9733C116.337 20.5983 117.027 20.4108 117.813 20.4108C118.605 20.4108 119.298 20.5983 119.891 20.9733C120.485 21.3483 120.949 21.8769 121.282 22.5592C121.615 23.2363 121.782 24.0306 121.782 24.942C121.782 25.8379 121.615 26.6243 121.282 27.3014C120.949 27.9785 120.485 28.5045 119.891 28.8795C119.298 29.2545 118.605 29.442 117.813 29.442ZM117.813 28.2389C118.417 28.2389 118.912 28.0853 119.298 27.778C119.683 27.4707 119.969 27.067 120.157 26.567C120.344 26.0618 120.438 25.5202 120.438 24.942C120.438 24.3535 120.344 23.8066 120.157 23.3014C119.969 22.7962 119.683 22.39 119.298 22.0827C118.912 21.7702 118.417 21.6139 117.813 21.6139C117.219 21.6139 116.73 21.7702 116.344 22.0827C115.959 22.39 115.673 22.7962 115.485 23.3014C115.298 23.8066 115.204 24.3535 115.204 24.942C115.204 25.5202 115.298 26.0618 115.485 26.567C115.673 27.067 115.959 27.4707 116.344 27.778C116.73 28.0853 117.219 28.2389 117.813 28.2389ZM129.251 22.4889L128.048 22.817C127.933 22.5202 127.735 22.2389 127.454 21.9733C127.178 21.7025 126.746 21.567 126.157 21.567C125.626 21.567 125.183 21.692 124.829 21.942C124.475 22.1868 124.298 22.4941 124.298 22.8639C124.298 23.1973 124.417 23.4629 124.657 23.6608C124.902 23.8587 125.282 24.0202 125.798 24.1452L127.094 24.4577C127.871 24.6452 128.449 24.9342 128.829 25.3249C129.214 25.7155 129.407 26.2129 129.407 26.817C129.407 27.317 129.264 27.765 128.977 28.1608C128.691 28.5566 128.292 28.8691 127.782 29.0983C127.272 29.3275 126.678 29.442 126.001 29.442C125.11 29.442 124.373 29.2467 123.79 28.8561C123.212 28.4655 122.844 27.9004 122.688 27.1608L123.954 26.8483C124.074 27.317 124.303 27.6686 124.641 27.903C124.985 28.1374 125.433 28.2545 125.985 28.2545C126.605 28.2545 127.1 28.1217 127.469 27.8561C127.844 27.5853 128.032 27.265 128.032 26.8952C128.032 26.2806 127.6 25.8691 126.735 25.6608L125.282 25.317C124.48 25.1243 123.891 24.8301 123.516 24.4342C123.141 24.0384 122.954 23.541 122.954 22.942C122.954 22.4473 123.092 22.0098 123.368 21.6295C123.649 21.2493 124.032 20.9525 124.516 20.7389C125.001 20.5202 125.548 20.4108 126.157 20.4108C127.027 20.4108 127.706 20.6035 128.196 20.9889C128.691 21.3691 129.042 21.8691 129.251 22.4889Z" fill="#818181"/>
</svg>
