<svg width="186" height="47" viewBox="0 0 186 47" fill="none" xmlns="http://www.w3.org/2000/svg">
<path d="M26.8605 11.0575H43.69C43.7311 11.0575 44.3292 11.3085 44.4418 11.3612C45.3026 11.7694 45.8316 12.6595 45.9653 13.5919C45.6721 19.1978 46.398 25.2741 45.9829 30.8249C45.9055 31.8534 45.4563 32.8386 44.5157 33.3452C44.3714 33.4226 43.6736 33.6936 43.5739 33.6936H26.8616V43.3691C26.8616 44.692 24.6486 46.5603 23.2823 46.4747H3.70016C1.64426 46.2905 0.208757 44.8316 0 42.7862V4.30923C0.158327 2.11493 1.62784 0.671224 3.81158 0.498823C10.0931 0.0015589 17.0372 0.86708 23.3867 0.517588C24.7131 0.436665 26.8605 2.34597 26.8605 3.61142V11.0587V11.0575ZM25.805 4.95895C25.975 2.93706 24.8046 1.68921 22.8202 1.55199C16.6349 1.12392 9.9488 1.87216 3.71072 1.56958C1.90344 1.77951 0.975764 3.20328 1.05903 4.95778H25.805V4.95895ZM25.805 6.13175H1.05903V38.6181H25.805V33.6924H13.1974C13.1388 33.6924 12.3507 33.4215 12.2357 33.364C11.3139 32.9054 10.8624 31.9332 10.7885 30.941C10.371 25.3116 11.1005 19.158 10.8061 13.4746C10.907 12.6454 11.4957 11.7705 12.2346 11.3847C12.3319 11.3343 13.0344 11.0563 13.079 11.0563H25.8038V6.13057L25.805 6.13175ZM44.9215 16.4523V13.6963C44.9215 13.1439 44.1756 12.3006 43.6103 12.1927L13.5493 12.1118C13.2103 12.1505 12.6216 12.3499 12.3741 12.5786C12.244 12.6982 11.8487 13.4582 11.8487 13.5778V16.4512H44.9215V16.4523ZM44.9215 17.5078H11.8487V31.1709C11.8487 31.8523 13.0673 32.7588 13.7791 32.6416H42.8738C43.7276 32.7624 44.9215 31.9144 44.9215 31.0536V17.5078ZM25.805 39.6736H1.23495L1.05903 39.8495V42.8988C1.05903 42.968 1.32877 43.7303 1.38976 43.8582C1.89992 44.916 2.92495 45.337 4.04496 45.425C10.1505 45.9035 16.8765 45.0603 23.0466 45.4191C23.9297 45.3617 24.9781 44.8292 25.4355 44.0552C25.4942 43.9567 25.8038 43.1838 25.8038 43.1334V39.6736H25.805Z" fill="#5A1160"/>
<path d="M35.9764 20.1149C36.6402 19.9789 39.3201 20.0059 40.0554 20.088C43.0941 20.4304 43.1973 25.26 39.8197 25.5989C38.8697 25.6939 36.313 25.7103 35.5132 25.3339C33.1969 24.2443 33.5581 20.6099 35.9776 20.1149H35.9764ZM36.211 21.1705C34.7919 21.459 34.6547 23.6779 35.926 24.3335C36.5159 24.6372 38.9553 24.6243 39.6895 24.5317C41.8885 24.2526 41.7102 21.3675 39.8232 21.1411C39.1793 21.0637 36.8021 21.0508 36.2122 21.1705H36.211Z" fill="#5A1160"/>
<path d="M17.7715 29.0012C18.3836 29.1032 18.1198 30.0567 17.8887 30.0567H14.7222C14.3504 30.0567 14.3504 29.0012 14.7222 29.0012C15.5736 29.0012 17.0103 28.8734 17.7715 29.0012Z" fill="#5A1160"/>
<path d="M25.3945 30.0567C25.0415 29.9465 25.0802 29.2393 25.4532 29.0587C25.6432 28.966 28.2855 28.9461 28.5388 29.0235C29.1697 29.2158 28.8156 30.0567 28.5611 30.0567C27.9407 30.0567 25.7944 30.181 25.3945 30.0567Z" fill="#5A1160"/>
<path d="M30.9065 29.0012H33.9558C34.3276 29.0012 34.3276 30.0567 33.9558 30.0567H30.7893C30.4714 30.0567 30.4163 29.1349 30.9065 29.0012Z" fill="#5A1160"/>
<path d="M19.9408 30.0567C19.8083 29.7166 19.6077 29.278 20.0581 29.0587C20.2481 28.9672 22.8904 28.9461 23.1437 29.0235C23.7747 29.2158 23.4205 30.0567 23.166 30.0567H19.9408Z" fill="#5A1160"/>
<path d="M11.4666 40.64C12.1726 40.511 14.4385 40.5321 15.1926 40.6118C17.4209 40.8499 17.2766 44.2487 15.3122 44.4856C14.5229 44.5806 12.3439 44.5806 11.5534 44.4856C9.63589 44.2557 9.56904 40.986 11.4654 40.64H11.4666ZM11.4103 41.8163C11.0045 42.1975 11.0116 43.2436 11.6988 43.4019C12.0999 43.4946 14.7669 43.5028 15.1891 43.4242C15.9103 43.2893 16.0018 41.8773 15.1668 41.6932C14.6191 41.5724 12.6488 41.6099 12.0202 41.6638C11.8267 41.6803 11.5557 41.6791 11.4103 41.8163Z" fill="#5A1160"/>
<path d="M8.82509 3.7627C8.42282 3.47536 8.66559 2.8057 9.32587 2.72947C10.6828 2.57231 14.4228 2.57231 15.7809 2.72947C16.0577 2.76113 16.379 2.82095 16.4295 3.14581C16.4694 3.45191 16.3392 3.7369 16.0096 3.78381C15.0772 3.62314 9.18161 4.0172 8.82626 3.7627H8.82509Z" fill="#5A1160"/>
<path d="M17.4442 2.75408C18.5514 2.42101 18.6628 4.08755 17.5439 3.90459C16.9739 3.81194 16.9763 2.89482 17.4442 2.75408Z" fill="#5A1160"/>
<path d="M68.0757 29.5653C67.0444 29.5653 66.12 29.3309 65.3022 28.8622C64.4845 28.3934 63.8387 27.7137 63.3647 26.8231C62.8908 25.9325 62.6538 24.8569 62.6538 23.5965C62.6538 22.3257 62.8908 21.245 63.3647 20.3543C63.8439 19.4585 64.4924 18.7788 65.3101 18.3153C66.133 17.8465 67.0549 17.6122 68.0757 17.6122C68.7528 17.6122 69.3804 17.7085 69.9585 17.9012C70.5366 18.0887 71.047 18.3648 71.4897 18.7293C71.9377 19.0887 72.3022 19.5314 72.5835 20.0575C72.8647 20.5783 73.0444 21.1747 73.1226 21.8465H70.6382C70.5913 21.5288 70.4976 21.2424 70.3569 20.9872C70.2215 20.7319 70.0418 20.5158 69.8179 20.3387C69.5991 20.1616 69.3465 20.0262 69.0601 19.9325C68.7788 19.8335 68.4689 19.784 68.1304 19.784C67.5366 19.784 67.0132 19.9351 66.5601 20.2372C66.1121 20.534 65.7632 20.9663 65.5132 21.534C65.2684 22.0965 65.146 22.784 65.146 23.5965C65.146 24.4247 65.271 25.1226 65.521 25.6903C65.771 26.2528 66.12 26.6773 66.5679 26.9637C67.0158 27.2502 67.534 27.3934 68.1226 27.3934C68.4507 27.3934 68.7554 27.3491 69.0366 27.2606C69.3179 27.172 69.5679 27.0444 69.7866 26.8778C70.0054 26.7111 70.1877 26.508 70.3335 26.2684C70.4845 26.0236 70.5861 25.745 70.6382 25.4325H73.1226C73.0601 25.9689 72.9012 26.4845 72.646 26.9793C72.396 27.4741 72.0549 27.9168 71.6226 28.3075C71.1903 28.6929 70.6772 29.0002 70.0835 29.2293C69.4897 29.4533 68.8205 29.5653 68.0757 29.5653ZM76.8257 29.5731C76.2736 29.5731 75.7762 29.4767 75.3335 29.284C74.896 29.0861 74.5522 28.7944 74.3022 28.409C74.0522 28.0236 73.9272 27.5444 73.9272 26.9715C73.9272 26.4819 74.0158 26.0757 74.1929 25.7528C74.37 25.4247 74.6121 25.159 74.9194 24.9559C75.2267 24.7528 75.5757 24.5991 75.9663 24.495C76.3569 24.3908 76.771 24.3179 77.2085 24.2762C77.7137 24.2293 78.12 24.1825 78.4272 24.1356C78.7345 24.0887 78.9585 24.0184 79.0991 23.9247C79.245 23.8257 79.3179 23.6851 79.3179 23.5028V23.4637C79.3179 23.1043 79.2033 22.8257 78.9741 22.6278C78.7502 22.4299 78.4325 22.3309 78.021 22.3309C77.5887 22.3309 77.2424 22.4273 76.9819 22.62C76.7267 22.8075 76.5575 23.047 76.4741 23.3387L74.2319 23.159C74.3465 22.6278 74.5705 22.1694 74.9038 21.784C75.2371 21.3934 75.6668 21.0939 76.1929 20.8856C76.7241 20.672 77.3387 20.5653 78.0366 20.5653C78.521 20.5653 78.9845 20.6226 79.4272 20.7372C79.87 20.8517 80.2632 21.0288 80.6069 21.2684C80.9559 21.5028 81.2319 21.8075 81.4351 22.1825C81.6382 22.5575 81.7397 23.0028 81.7397 23.5184V29.409H79.4351V28.1903H79.3726C79.2319 28.4663 79.0444 28.7085 78.8101 28.9168C78.5757 29.12 78.2944 29.2814 77.9663 29.4012C77.6382 29.5158 77.258 29.5731 76.8257 29.5731ZM77.521 27.9012C77.8752 27.9012 78.1877 27.8309 78.4585 27.6903C78.7345 27.5444 78.9481 27.3517 79.0991 27.1122C79.2554 26.8674 79.3335 26.5939 79.3335 26.2918V25.3622C79.2606 25.409 79.1564 25.4533 79.021 25.495C78.8908 25.5366 78.745 25.5731 78.5835 25.6043C78.422 25.6356 78.2606 25.6642 78.0991 25.6903C77.9377 25.7111 77.7918 25.7319 77.6616 25.7528C77.3752 25.7944 77.1252 25.8622 76.9116 25.9559C76.6981 26.0444 76.5314 26.1668 76.4116 26.3231C76.297 26.4741 76.2397 26.6642 76.2397 26.8934C76.2397 27.2215 76.3595 27.4715 76.5991 27.6434C76.8387 27.8153 77.146 27.9012 77.521 27.9012ZM85.5679 24.3622V29.409H83.1538V20.6747H85.5288V22.2293H85.6147C85.8127 21.7137 86.1278 21.3075 86.5601 21.0106C86.9924 20.7137 87.534 20.5653 88.1851 20.5653C88.7892 20.5653 89.3153 20.6981 89.7632 20.9637C90.2163 21.2293 90.5679 21.6069 90.8179 22.0965C91.0679 22.5861 91.1929 23.172 91.1929 23.8543V29.409H88.7788V24.284C88.7788 23.7528 88.6408 23.3361 88.3647 23.034C88.0887 22.7267 87.7085 22.5731 87.2241 22.5731C86.9012 22.5731 86.6147 22.646 86.3647 22.7918C86.1147 22.9325 85.9194 23.1356 85.7788 23.4012C85.6382 23.6668 85.5679 23.9872 85.5679 24.3622ZM95.1069 29.5731C94.5549 29.5731 94.0575 29.4767 93.6147 29.284C93.1772 29.0861 92.8335 28.7944 92.5835 28.409C92.3335 28.0236 92.2085 27.5444 92.2085 26.9715C92.2085 26.4819 92.297 26.0757 92.4741 25.7528C92.6512 25.4247 92.8934 25.159 93.2007 24.9559C93.508 24.7528 93.8569 24.5991 94.2476 24.495C94.6382 24.3908 95.0522 24.3179 95.4897 24.2762C95.995 24.2293 96.4012 24.1825 96.7085 24.1356C97.0158 24.0887 97.2397 24.0184 97.3804 23.9247C97.5262 23.8257 97.5991 23.6851 97.5991 23.5028V23.4637C97.5991 23.1043 97.4845 22.8257 97.2554 22.6278C97.0314 22.4299 96.7137 22.3309 96.3022 22.3309C95.87 22.3309 95.5236 22.4273 95.2632 22.62C95.008 22.8075 94.8387 23.047 94.7554 23.3387L92.5132 23.159C92.6278 22.6278 92.8517 22.1694 93.1851 21.784C93.5184 21.3934 93.9481 21.0939 94.4741 20.8856C95.0054 20.672 95.62 20.5653 96.3179 20.5653C96.8022 20.5653 97.2658 20.6226 97.7085 20.7372C98.1512 20.8517 98.5444 21.0288 98.8882 21.2684C99.2371 21.5028 99.5132 21.8075 99.7163 22.1825C99.9194 22.5575 100.021 23.0028 100.021 23.5184V29.409H97.7163V28.1903H97.6538C97.5132 28.4663 97.3257 28.7085 97.0913 28.9168C96.8569 29.12 96.5757 29.2814 96.2476 29.4012C95.9194 29.5158 95.5392 29.5731 95.1069 29.5731ZM95.8022 27.9012C96.1564 27.9012 96.4689 27.8309 96.7397 27.6903C97.0158 27.5444 97.2293 27.3517 97.3804 27.1122C97.5366 26.8674 97.6147 26.5939 97.6147 26.2918V25.3622C97.5418 25.409 97.4377 25.4533 97.3022 25.495C97.172 25.5366 97.0262 25.5731 96.8647 25.6043C96.7033 25.6356 96.5418 25.6642 96.3804 25.6903C96.2189 25.7111 96.0731 25.7319 95.9429 25.7528C95.6564 25.7944 95.4064 25.8622 95.1929 25.9559C94.9793 26.0444 94.8127 26.1668 94.6929 26.3231C94.5783 26.4741 94.521 26.6642 94.521 26.8934C94.521 27.2215 94.6408 27.4715 94.8804 27.6434C95.12 27.8153 95.4272 27.9012 95.8022 27.9012ZM103.849 17.7684V29.409H101.435V17.7684H103.849ZM109.255 29.5809C108.36 29.5809 107.586 29.3986 106.935 29.034C106.284 28.6694 105.784 28.1512 105.435 27.4793C105.091 26.8023 104.919 26.0028 104.919 25.0809C104.919 24.1851 105.091 23.3986 105.435 22.7215C105.784 22.0444 106.274 21.5158 106.904 21.1356C107.539 20.7554 108.284 20.5653 109.138 20.5653C109.716 20.5653 110.255 20.659 110.755 20.8465C111.255 21.0288 111.693 21.3049 112.068 21.6747C112.443 22.0392 112.735 22.5002 112.943 23.0575C113.151 23.6095 113.255 24.258 113.255 25.0028V25.659H105.88V24.1668H112.083L110.958 24.5575C110.958 24.1148 110.891 23.7293 110.755 23.4012C110.62 23.0731 110.417 22.8205 110.146 22.6434C109.88 22.4611 109.55 22.37 109.154 22.37C108.758 22.37 108.422 22.4611 108.146 22.6434C107.875 22.8257 107.667 23.0731 107.521 23.3856C107.375 23.6981 107.302 24.0575 107.302 24.4637V25.5184C107.302 25.9924 107.386 26.3986 107.552 26.7372C107.719 27.0705 107.951 27.3283 108.248 27.5106C108.55 27.6877 108.896 27.7762 109.287 27.7762C109.557 27.7762 109.802 27.7372 110.021 27.659C110.24 27.5809 110.427 27.4663 110.583 27.3153C110.745 27.1642 110.865 26.9819 110.943 26.7684L113.177 26.9168C113.068 27.4533 112.839 27.922 112.49 28.3231C112.146 28.7189 111.701 29.0288 111.154 29.2528C110.607 29.4715 109.974 29.5809 109.255 29.5809ZM121.544 23.1668L119.333 23.2997C119.276 23.0236 119.123 22.7866 118.873 22.5887C118.623 22.3856 118.287 22.284 117.865 22.284C117.49 22.284 117.175 22.3622 116.919 22.5184C116.669 22.6747 116.544 22.883 116.544 23.1434C116.544 23.3517 116.625 23.5314 116.787 23.6825C116.953 23.8283 117.237 23.9429 117.638 24.0262L119.224 24.3387C120.073 24.5106 120.706 24.7892 121.123 25.1747C121.539 25.5601 121.748 26.0679 121.748 26.6981C121.748 27.2762 121.581 27.7814 121.248 28.2137C120.914 28.6408 120.456 28.9767 119.873 29.2215C119.289 29.4611 118.62 29.5809 117.865 29.5809C116.708 29.5809 115.787 29.3387 115.099 28.8543C114.417 28.37 114.018 27.7137 113.904 26.8856L116.271 26.7606C116.349 27.1148 116.526 27.383 116.802 27.5653C117.078 27.7476 117.432 27.8387 117.865 27.8387C118.287 27.8387 118.628 27.7554 118.888 27.5887C119.154 27.422 119.287 27.2111 119.287 26.9559C119.287 26.5236 118.912 26.2319 118.162 26.0809L116.654 25.7684C115.805 25.5965 115.172 25.3023 114.755 24.8856C114.339 24.4689 114.13 23.9351 114.13 23.284C114.13 22.7215 114.284 22.2372 114.591 21.8309C114.899 21.4247 115.328 21.1122 115.88 20.8934C116.438 20.6747 117.089 20.5653 117.833 20.5653C118.938 20.5653 119.805 20.7997 120.435 21.2684C121.07 21.7319 121.44 22.3648 121.544 23.1668ZM129.138 29.5497C128.472 29.5497 127.87 29.3778 127.333 29.034C126.797 28.6903 126.373 28.1851 126.06 27.5184C125.748 26.8465 125.591 26.0262 125.591 25.0575C125.591 24.0575 125.753 23.2241 126.076 22.5575C126.399 21.8908 126.828 21.3934 127.365 21.0653C127.901 20.7319 128.487 20.5653 129.123 20.5653C129.612 20.5653 130.021 20.6486 130.349 20.8153C130.677 20.9767 130.943 21.1799 131.146 21.4247C131.349 21.6694 131.503 21.9116 131.607 22.1512H131.677V17.7684H134.099V29.409H131.716V28.0106H131.607C131.498 28.2502 131.339 28.4898 131.13 28.7293C130.922 28.9637 130.654 29.159 130.326 29.3153C130.003 29.4715 129.607 29.5497 129.138 29.5497ZM129.896 27.6278C130.287 27.6278 130.617 27.521 130.888 27.3075C131.164 27.0887 131.373 26.7866 131.513 26.4012C131.659 26.0158 131.732 25.5653 131.732 25.0497C131.732 24.5288 131.662 24.0783 131.521 23.6981C131.38 23.3127 131.172 23.0158 130.896 22.8075C130.62 22.5939 130.287 22.4872 129.896 22.4872C129.5 22.4872 129.167 22.5965 128.896 22.8153C128.625 23.034 128.419 23.3361 128.279 23.7215C128.138 24.1017 128.068 24.5444 128.068 25.0497C128.068 25.5549 128.138 26.0028 128.279 26.3934C128.419 26.7788 128.625 27.0809 128.896 27.2997C129.172 27.5184 129.505 27.6278 129.896 27.6278ZM139.49 29.5809C138.594 29.5809 137.82 29.3986 137.169 29.034C136.518 28.6694 136.018 28.1512 135.669 27.4793C135.326 26.8023 135.154 26.0028 135.154 25.0809C135.154 24.1851 135.326 23.3986 135.669 22.7215C136.018 22.0444 136.508 21.5158 137.138 21.1356C137.774 20.7554 138.518 20.5653 139.373 20.5653C139.951 20.5653 140.49 20.659 140.99 20.8465C141.49 21.0288 141.927 21.3049 142.302 21.6747C142.677 22.0392 142.969 22.5002 143.177 23.0575C143.386 23.6095 143.49 24.258 143.49 25.0028V25.659H136.115V24.1668H142.318L141.193 24.5575C141.193 24.1148 141.125 23.7293 140.99 23.4012C140.854 23.0731 140.651 22.8205 140.38 22.6434C140.115 22.4611 139.784 22.37 139.388 22.37C138.992 22.37 138.656 22.4611 138.38 22.6434C138.11 22.8257 137.901 23.0731 137.755 23.3856C137.61 23.6981 137.537 24.0575 137.537 24.4637V25.5184C137.537 25.9924 137.62 26.3986 137.787 26.7372C137.953 27.0705 138.185 27.3283 138.482 27.5106C138.784 27.6877 139.13 27.7762 139.521 27.7762C139.792 27.7762 140.037 27.7372 140.255 27.659C140.474 27.5809 140.662 27.4663 140.818 27.3153C140.979 27.1642 141.099 26.9819 141.177 26.7684L143.412 26.9168C143.302 27.4533 143.073 27.922 142.724 28.3231C142.38 28.7189 141.935 29.0288 141.388 29.2528C140.841 29.4715 140.208 29.5809 139.49 29.5809ZM147.716 32.6747V20.6747H150.091V22.1512H150.201C150.31 21.9116 150.466 21.6694 150.669 21.4247C150.873 21.1799 151.138 20.9767 151.466 20.8153C151.794 20.6486 152.201 20.5653 152.685 20.5653C153.326 20.5653 153.912 20.7319 154.443 21.0653C154.979 21.3934 155.409 21.8908 155.732 22.5575C156.055 23.2241 156.216 24.0575 156.216 25.0575C156.216 26.0262 156.06 26.8465 155.748 27.5184C155.435 28.1851 155.011 28.6903 154.474 29.034C153.943 29.3778 153.344 29.5497 152.677 29.5497C152.208 29.5497 151.81 29.4715 151.482 29.3153C151.154 29.159 150.886 28.9637 150.677 28.7293C150.474 28.4898 150.315 28.2502 150.201 28.0106H150.13V32.6747H147.716ZM151.912 27.6278C152.307 27.6278 152.641 27.5184 152.912 27.2997C153.182 27.0809 153.388 26.7788 153.529 26.3934C153.669 26.0028 153.74 25.5549 153.74 25.0497C153.74 24.5444 153.669 24.1017 153.529 23.7215C153.393 23.3361 153.19 23.034 152.919 22.8153C152.649 22.5965 152.313 22.4872 151.912 22.4872C151.521 22.4872 151.188 22.5939 150.912 22.8075C150.641 23.0158 150.432 23.3127 150.287 23.6981C150.146 24.0783 150.076 24.5288 150.076 25.0497C150.076 25.5653 150.149 26.0158 150.294 26.4012C150.44 26.7866 150.649 27.0887 150.919 27.3075C151.195 27.521 151.526 27.6278 151.912 27.6278ZM159.763 29.5731C159.211 29.5731 158.714 29.4767 158.271 29.284C157.833 29.0861 157.49 28.7944 157.24 28.409C156.99 28.0236 156.865 27.5444 156.865 26.9715C156.865 26.4819 156.953 26.0757 157.13 25.7528C157.307 25.4247 157.55 25.159 157.857 24.9559C158.164 24.7528 158.513 24.5991 158.904 24.495C159.294 24.3908 159.708 24.3179 160.146 24.2762C160.651 24.2293 161.057 24.1825 161.365 24.1356C161.672 24.0887 161.896 24.0184 162.037 23.9247C162.182 23.8257 162.255 23.6851 162.255 23.5028V23.4637C162.255 23.1043 162.141 22.8257 161.912 22.6278C161.688 22.4299 161.37 22.3309 160.958 22.3309C160.526 22.3309 160.18 22.4273 159.919 22.62C159.664 22.8075 159.495 23.047 159.412 23.3387L157.169 23.159C157.284 22.6278 157.508 22.1694 157.841 21.784C158.175 21.3934 158.604 21.0939 159.13 20.8856C159.662 20.672 160.276 20.5653 160.974 20.5653C161.458 20.5653 161.922 20.6226 162.365 20.7372C162.807 20.8517 163.201 21.0288 163.544 21.2684C163.893 21.5028 164.169 21.8075 164.373 22.1825C164.576 22.5575 164.677 23.0028 164.677 23.5184V29.409H162.373V28.1903H162.31C162.169 28.4663 161.982 28.7085 161.748 28.9168C161.513 29.12 161.232 29.2814 160.904 29.4012C160.576 29.5158 160.195 29.5731 159.763 29.5731ZM160.458 27.9012C160.813 27.9012 161.125 27.8309 161.396 27.6903C161.672 27.5444 161.886 27.3517 162.037 27.1122C162.193 26.8674 162.271 26.5939 162.271 26.2918V25.3622C162.198 25.409 162.094 25.4533 161.958 25.495C161.828 25.5366 161.682 25.5731 161.521 25.6043C161.36 25.6356 161.198 25.6642 161.037 25.6903C160.875 25.7111 160.729 25.7319 160.599 25.7528C160.313 25.7944 160.063 25.8622 159.849 25.9559C159.636 26.0444 159.469 26.1668 159.349 26.3231C159.235 26.4741 159.177 26.6642 159.177 26.8934C159.177 27.2215 159.297 27.4715 159.537 27.6434C159.776 27.8153 160.083 27.9012 160.458 27.9012ZM169.998 32.8622C168.82 32.8622 167.899 32.6278 167.232 32.159C166.565 31.6955 166.159 31.1174 166.013 30.4247L168.248 30.1278C168.315 30.3049 168.422 30.4689 168.568 30.62C168.714 30.771 168.909 30.8908 169.154 30.9793C169.399 31.0731 169.698 31.12 170.052 31.12C170.578 31.12 171.013 30.9924 171.357 30.7372C171.701 30.4872 171.873 30.0627 171.873 29.4637V27.8622H171.771C171.667 28.1017 171.508 28.3309 171.294 28.5497C171.081 28.7684 170.807 28.9455 170.474 29.0809C170.141 29.2163 169.742 29.284 169.279 29.284C168.623 29.284 168.026 29.133 167.49 28.8309C166.958 28.5236 166.531 28.0549 166.208 27.4247C165.891 26.7944 165.732 25.9976 165.732 25.034C165.732 24.0392 165.893 23.2111 166.216 22.5497C166.544 21.8882 166.977 21.3934 167.513 21.0653C168.05 20.7319 168.638 20.5653 169.279 20.5653C169.768 20.5653 170.177 20.6486 170.505 20.8153C170.839 20.9767 171.11 21.1799 171.318 21.4247C171.526 21.6694 171.682 21.9116 171.787 22.1512H171.88V20.6747H174.263V29.5028C174.263 30.2424 174.081 30.8622 173.716 31.3622C173.352 31.8622 172.849 32.2372 172.208 32.4872C171.568 32.7372 170.831 32.8622 169.998 32.8622ZM170.044 27.4637C170.628 27.4637 171.078 27.2476 171.396 26.8153C171.719 26.383 171.88 25.784 171.88 25.0184C171.88 24.508 171.807 24.0653 171.662 23.6903C171.521 23.3101 171.315 23.0158 171.044 22.8075C170.774 22.5939 170.44 22.4872 170.044 22.4872C169.649 22.4872 169.313 22.5965 169.037 22.8153C168.766 23.0288 168.56 23.3257 168.419 23.7059C168.279 24.0861 168.208 24.5236 168.208 25.0184C168.208 25.5184 168.279 25.9533 168.419 26.3231C168.56 26.6877 168.766 26.9689 169.037 27.1668C169.313 27.3648 169.649 27.4637 170.044 27.4637ZM179.615 29.5809C178.735 29.5809 177.972 29.3934 177.326 29.0184C176.685 28.6382 176.19 28.1122 175.841 27.4403C175.498 26.7632 175.326 25.9767 175.326 25.0809C175.326 24.1747 175.498 23.3856 175.841 22.7137C176.19 22.0366 176.685 21.5106 177.326 21.1356C177.972 20.7554 178.735 20.5653 179.615 20.5653C180.5 20.5653 181.263 20.7554 181.904 21.1356C182.55 21.5106 183.044 22.0366 183.388 22.7137C183.737 23.3856 183.912 24.1747 183.912 25.0809C183.912 25.9767 183.737 26.7632 183.388 27.4403C183.044 28.1122 182.55 28.6382 181.904 29.0184C181.263 29.3934 180.5 29.5809 179.615 29.5809ZM179.63 27.6903C180.031 27.6903 180.367 27.5783 180.638 27.3543C180.909 27.1252 181.112 26.8127 181.248 26.4168C181.388 26.021 181.458 25.5705 181.458 25.0653C181.458 24.5549 181.388 24.1043 181.248 23.7137C181.112 23.3231 180.909 23.0158 180.638 22.7918C180.367 22.5679 180.031 22.4559 179.63 22.4559C179.224 22.4559 178.883 22.5679 178.607 22.7918C178.336 23.0158 178.13 23.3231 177.99 23.7137C177.854 24.1043 177.787 24.5549 177.787 25.0653C177.787 25.5705 177.854 26.021 177.99 26.4168C178.13 26.8127 178.336 27.1252 178.607 27.3543C178.883 27.5783 179.224 27.6903 179.63 27.6903Z" fill="#5A1160"/>
</svg>
