<?xml version="1.0" encoding="UTF-8"?>
<svg xmlns="http://www.w3.org/2000/svg" xmlns:xlink="http://www.w3.org/1999/xlink" width="294.4pt" height="79.4pt" viewBox="0 0 294.4 79.4" version="1.1">
<defs>
<clipPath id="clip1">
  <path d="M 0 0 L 72 0 L 72 79.398438 L 0 79.398438 Z M 0 0 "/>
</clipPath>
<clipPath id="clip2">
  <path d="M 108 6 L 294.398438 6 L 294.398438 73 L 108 73 Z M 108 6 "/>
</clipPath>
</defs>
<g id="surface1">
<g clip-path="url(#clip1)" clip-rule="nonzero">
<path style=" stroke:none;fill-rule:evenodd;fill:rgb(23.535156%,14.109802%,45.483398%);fill-opacity:1;" d="M 1.152344 48.5 C 2.941406 47.984375 15.640625 44.71875 26.570313 52.941406 C 32.175781 57.160156 34.558594 60.847656 35.910156 65.371094 C 37.332031 70.15625 37.3125 72.738281 37.5 75.523438 C 37.75 79.121094 39.578125 79.355469 41.613281 79.300781 C 44.632813 79.21875 45.835938 78.429688 46.066406 75.605469 C 46.234375 73.507813 46.3125 71.410156 45.890625 67.300781 C 45.507813 63.527344 44.367188 58.625 43.4375 56.03125 C 42.453125 53.289063 45.886719 52.601563 46.855469 54.824219 C 47.824219 57.042969 48.847656 61.101563 49.417969 65.289063 C 49.820313 68.292969 49.972656 72.632813 50.21875 75.03125 C 50.554688 78.300781 53.070313 78.21875 55.085938 77.628906 C 56.964844 77.082031 59.257813 75.796875 59.078125 72.433594 C 58.972656 70.390625 58.839844 64.953125 58.644531 63.523438 C 57.847656 57.679688 56.9375 53.550781 56.480469 51.832031 C 55.707031 48.925781 59.089844 47.902344 59.90625 50.351563 C 60.5625 52.332031 61.625 59.460938 62.085938 63.273438 C 62.421875 66.042969 62.757813 68.726563 63.007813 70.574219 C 63.25 72.351563 65.296875 72.875 67.121094 72.085938 C 69.046875 71.246094 70.058594 69.984375 70.5625 67.71875 C 71.125 65.183594 72.105469 58.625 70.777344 48.316406 C 69.601563 39.175781 64.886719 30.789063 64.886719 30.789063 C 64.886719 30.789063 54.148438 42.386719 47.066406 42.464844 C 39.984375 42.542969 37.152344 36.953125 38.089844 31.304688 C 39.023438 25.660156 41.875 18.695313 47.316406 13.601563 C 52.042969 9.1875 59.417969 4.796875 61.300781 3.707031 C 55.753906 1.289063 49.558594 -0.0664063 43.023438 -0.0664063 C 19.3125 -0.0664063 0.0898438 17.730469 0.0898438 39.679688 C 0.0898438 42.710938 0.457031 45.664063 1.152344 48.5 Z M 1.152344 48.5 "/>
</g>
<path style=" stroke:none;fill-rule:evenodd;fill:rgb(95.701599%,56.834412%,18.431091%);fill-opacity:1;" d="M 33.765625 78.5 C 33.734375 74.457031 32.96875 62.144531 25.164063 56.277344 C 16.519531 49.777344 5.703125 51.714844 2.378906 52.523438 C 7.179688 65.535156 19.0625 75.503906 33.765625 78.5 Z M 65.371094 5.738281 C 62.820313 7.183594 51 14.117188 46.65625 20.667969 C 42.21875 27.375 41.191406 33.152344 42.207031 36.183594 C 43.085938 38.804688 47.257813 39.34375 51.179688 37.011719 C 57.804688 33.066406 66.226563 23.589844 66.226563 23.589844 C 66.226563 23.589844 69.757813 31.199219 71.902344 36.257813 C 76.957031 48.1875 75.355469 61.792969 74.523438 66.683594 C 81.621094 59.59375 85.960938 50.109375 85.960938 39.679688 C 85.960938 25.308594 77.71875 12.71875 65.371094 5.738281 Z M 65.371094 5.738281 "/>
<g clip-path="url(#clip2)" clip-rule="nonzero">
<path style=" stroke:none;fill-rule:evenodd;fill:rgb(23.535156%,14.109802%,45.483398%);fill-opacity:1;" d="M 109.574219 67.769531 C 111.4375 68.953125 113.621094 69.636719 116.578125 69.636719 C 120.488281 69.636719 123.71875 67.632813 123.71875 63.132813 C 123.71875 56.902344 109.164063 56.125 109.164063 47.804688 C 109.164063 42.710938 113.621094 39.527344 119.214844 39.527344 C 120.761719 39.527344 123.265625 39.753906 125.445313 40.574219 L 124.945313 43.441406 C 123.535156 42.664063 121.308594 42.257813 119.167969 42.257813 C 115.894531 42.257813 112.304688 43.621094 112.304688 47.714844 C 112.304688 54.082031 126.855469 54.125 126.855469 63.40625 C 126.855469 69.816406 121.351563 72.363281 116.441406 72.363281 C 113.347656 72.363281 110.9375 71.726563 109.253906 70.996094 Z M 119.96875 11.863281 C 118.921875 11.863281 117.945313 12.042969 117.0625 12.382813 C 116.175781 12.730469 115.417969 13.234375 114.785156 13.894531 C 114.144531 14.554688 113.652344 15.371094 113.300781 16.34375 C 112.933594 17.308594 112.757813 18.421875 112.757813 19.667969 C 112.757813 20.910156 112.917969 22 113.25 22.933594 C 113.578125 23.875 114.039063 24.65625 114.648438 25.289063 C 115.257813 25.914063 116 26.394531 116.875 26.710938 C 117.75 27.03125 118.742188 27.195313 119.855469 27.195313 C 120.65625 27.195313 121.46875 27.128906 122.300781 27.003906 C 123.128906 26.875 123.902344 26.695313 124.625 26.453125 L 124.625 29.773438 C 123.890625 29.980469 123.101563 30.148438 122.253906 30.269531 C 121.402344 30.390625 120.523438 30.449219 119.609375 30.449219 C 117.828125 30.449219 116.257813 30.195313 114.902344 29.683594 C 113.546875 29.175781 112.414063 28.460938 111.507813 27.53125 C 110.601563 26.601563 109.917969 25.488281 109.460938 24.195313 C 109.003906 22.898438 108.777344 21.46875 108.777344 19.902344 C 108.777344 18.304688 109.019531 16.8125 109.511719 15.4375 C 110 14.0625 110.703125 12.875 111.621094 11.863281 C 112.542969 10.859375 113.6875 10.066406 115.066406 9.488281 C 116.445313 8.910156 118.011719 8.621094 119.75 8.609375 C 120.640625 8.609375 121.480469 8.667969 122.28125 8.792969 C 123.078125 8.910156 123.800781 9.082031 124.4375 9.300781 L 124.4375 12.574219 C 123.601563 12.308594 122.816406 12.125 122.089844 12.023438 C 121.371094 11.917969 120.664063 11.863281 119.96875 11.863281 Z M 128.246094 7.269531 L 131.976563 7.269531 L 131.976563 30.058594 L 128.246094 30.058594 Z M 136.320313 14.804688 L 140.050781 14.804688 L 140.050781 30.058594 L 136.320313 30.058594 Z M 142.113281 6.878906 L 139.515625 12.367188 L 136.621094 12.367188 L 138.492188 6.878906 Z M 147.667969 16.933594 L 147.730469 16.933594 C 147.949219 16.617188 148.230469 16.304688 148.566406 16.003906 C 148.898438 15.699219 149.28125 15.429688 149.710938 15.199219 C 150.140625 14.96875 150.617188 14.785156 151.140625 14.640625 C 151.65625 14.503906 152.207031 14.429688 152.796875 14.429688 C 153.355469 14.429688 153.886719 14.496094 154.410156 14.621094 C 154.929688 14.742188 155.40625 14.941406 155.835938 15.210938 C 156.261719 15.480469 156.644531 15.820313 156.972656 16.246094 C 157.304688 16.671875 157.5625 17.179688 157.753906 17.769531 C 157.859375 18.089844 157.929688 18.445313 157.964844 18.832031 C 158.003906 19.210938 158.019531 19.652344 158.019531 20.15625 L 158.019531 30.058594 L 154.292969 30.058594 L 154.292969 20.742188 C 154.292969 20.328125 154.277344 19.980469 154.242188 19.683594 C 154.214844 19.394531 154.15625 19.136719 154.070313 18.917969 C 153.882813 18.433594 153.601563 18.082031 153.210938 17.875 C 152.832031 17.664063 152.367188 17.5625 151.820313 17.5625 C 151.097656 17.5625 150.402344 17.734375 149.734375 18.074219 C 149.070313 18.417969 148.480469 18.910156 147.964844 19.5625 L 147.964844 30.058594 L 144.238281 30.058594 L 144.238281 14.804688 L 147.320313 14.804688 Z M 162.203125 14.804688 L 165.9375 14.804688 L 165.9375 30.058594 L 162.203125 30.058594 Z M 162.113281 7.269531 L 166.03125 7.269531 L 166.03125 11.316406 L 162.113281 11.316406 Z M 181.105469 29.722656 C 180.632813 29.925781 180.054688 30.09375 179.375 30.238281 C 178.691406 30.378906 177.972656 30.449219 177.21875 30.449219 C 176.117188 30.449219 175.089844 30.292969 174.132813 29.976563 C 173.179688 29.667969 172.34375 29.1875 171.632813 28.546875 C 170.917969 27.910156 170.355469 27.097656 169.949219 26.113281 C 169.535156 25.132813 169.332031 23.988281 169.332031 22.675781 C 169.332031 21.210938 169.566406 19.949219 170.042969 18.898438 C 170.515625 17.851563 171.128906 16.996094 171.878906 16.34375 C 172.625 15.6875 173.464844 15.203125 174.410156 14.894531 C 175.347656 14.585938 176.269531 14.429688 177.1875 14.429688 C 177.867188 14.429688 178.523438 14.488281 179.15625 14.613281 C 179.785156 14.730469 180.355469 14.898438 180.871094 15.105469 L 180.871094 18.144531 C 180.40625 17.945313 179.917969 17.785156 179.398438 17.664063 C 178.875 17.542969 178.316406 17.484375 177.722656 17.484375 C 177.125 17.484375 176.554688 17.574219 176.007813 17.753906 C 175.460938 17.945313 174.976563 18.234375 174.558594 18.628906 C 174.140625 19.027344 173.808594 19.554688 173.558594 20.210938 C 173.3125 20.871094 173.191406 21.660156 173.191406 22.578125 C 173.191406 23.25 173.285156 23.886719 173.472656 24.476563 C 173.660156 25.070313 173.933594 25.578125 174.300781 25.996094 C 174.664063 26.414063 175.121094 26.753906 175.6875 27.011719 C 176.242188 27.269531 176.914063 27.398438 177.675781 27.398438 C 178.355469 27.398438 178.976563 27.328125 179.53125 27.195313 C 180.082031 27.054688 180.613281 26.886719 181.105469 26.6875 Z M 193.304688 28.433594 L 193.238281 28.433594 C 193.03125 28.652344 192.78125 28.882813 192.480469 29.109375 C 192.191406 29.34375 191.855469 29.5625 191.480469 29.765625 C 191.101563 29.972656 190.683594 30.136719 190.222656 30.261719 C 189.757813 30.390625 189.257813 30.449219 188.722656 30.449219 C 188 30.449219 187.328125 30.335938 186.695313 30.109375 C 186.0625 29.882813 185.527344 29.5625 185.074219 29.140625 C 184.625 28.714844 184.273438 28.199219 184.011719 27.589844 C 183.753906 26.988281 183.625 26.320313 183.625 25.570313 C 183.625 24.753906 183.777344 24.019531 184.078125 23.371094 C 184.371094 22.71875 184.792969 22.164063 185.324219 21.714844 C 185.859375 21.265625 186.5 20.921875 187.242188 20.683594 C 187.992188 20.449219 188.8125 20.328125 189.71875 20.328125 C 190.375 20.328125 190.984375 20.371094 191.546875 20.457031 C 192.09375 20.542969 192.585938 20.640625 193.003906 20.757813 L 193.003906 20.140625 C 193.003906 19.785156 192.945313 19.441406 192.820313 19.109375 C 192.703125 18.78125 192.511719 18.484375 192.242188 18.226563 C 191.972656 17.96875 191.625 17.769531 191.195313 17.617188 C 190.765625 17.46875 190.238281 17.390625 189.617188 17.390625 C 188.867188 17.390625 188.109375 17.472656 187.351563 17.636719 C 186.601563 17.808594 185.777344 18.0625 184.898438 18.394531 L 184.898438 15.484375 C 185.667969 15.152344 186.476563 14.894531 187.335938 14.714844 C 188.199219 14.535156 189.105469 14.441406 190.042969 14.429688 C 191.15625 14.429688 192.132813 14.566406 192.96875 14.839844 C 193.800781 15.113281 194.496094 15.488281 195.054688 15.960938 C 195.621094 16.441406 196.039063 17.003906 196.320313 17.652344 C 196.601563 18.304688 196.734375 19.011719 196.734375 19.78125 L 196.734375 25.523438 C 196.734375 26.535156 196.742188 27.398438 196.765625 28.125 C 196.785156 28.84375 196.808594 29.492188 196.828125 30.058594 L 193.460938 30.058594 Z M 193.003906 23.554688 C 192.648438 23.472656 192.242188 23.394531 191.777344 23.332031 C 191.316406 23.261719 190.851563 23.230469 190.375 23.230469 C 189.464844 23.230469 188.742188 23.40625 188.214844 23.773438 C 187.679688 24.132813 187.417969 24.6875 187.417969 25.429688 C 187.417969 25.777344 187.476563 26.078125 187.597656 26.335938 C 187.71875 26.59375 187.882813 26.808594 188.089844 26.972656 C 188.292969 27.140625 188.53125 27.265625 188.800781 27.351563 C 189.074219 27.433594 189.363281 27.476563 189.667969 27.476563 C 190.042969 27.476563 190.40625 27.425781 190.738281 27.328125 C 191.074219 27.226563 191.382813 27.101563 191.664063 26.945313 C 191.949219 26.796875 192.203125 26.625 192.429688 26.4375 C 192.65625 26.246094 192.847656 26.066406 193.003906 25.886719 Z M 282.160156 47.851563 C 289.121094 47.851563 294.441406 52.535156 294.441406 60.265625 C 294.441406 66.996094 289.9375 72.363281 282.160156 72.363281 C 274.429688 72.363281 269.925781 66.996094 269.925781 60.265625 C 269.925781 52.535156 275.25 47.851563 282.160156 47.851563 Z M 282.160156 67.632813 C 286.847656 67.632813 288.074219 63.449219 288.074219 59.539063 C 288.074219 55.945313 286.164063 52.582031 282.160156 52.582031 C 278.207031 52.582031 276.296875 56.039063 276.296875 59.539063 C 276.296875 63.40625 277.523438 67.632813 282.160156 67.632813 Z M 258.921875 37.707031 L 265.015625 37.707031 L 265.015625 71.816406 L 258.921875 71.816406 Z M 231 37.707031 L 237.09375 37.707031 L 237.09375 51.398438 L 237.183594 51.398438 C 238.867188 49.167969 241.003906 47.851563 244.1875 47.851563 C 251.375 47.851563 254.011719 53.582031 254.011719 60.039063 C 254.011719 66.449219 251.375 72.363281 244.1875 72.363281 C 241.59375 72.363281 238.773438 71.453125 237.003906 68.953125 L 236.914063 68.953125 L 236.914063 71.816406 L 231 71.816406 Z M 242.503906 67.632813 C 246.507813 67.632813 247.644531 63.265625 247.644531 60.039063 C 247.644531 56.902344 246.550781 52.582031 242.59375 52.582031 C 238.6875 52.582031 237.140625 56.765625 237.140625 60.039063 C 237.140625 63.359375 238.457031 67.632813 242.503906 67.632813 Z M 206.757813 49.625 C 209.125 48.535156 212.308594 47.847656 214.898438 47.847656 C 222.039063 47.847656 224.996094 50.804688 224.996094 57.71875 L 224.996094 60.71875 C 224.996094 63.085938 225.042969 64.859375 225.085938 66.585938 C 225.132813 68.363281 225.222656 70 225.359375 71.816406 L 219.996094 71.816406 C 219.765625 70.589844 219.765625 69.042969 219.722656 68.316406 L 219.628906 68.316406 C 218.21875 70.90625 215.171875 72.363281 212.398438 72.363281 C 208.261719 72.363281 204.214844 69.863281 204.214844 65.40625 C 204.214844 61.90625 205.894531 59.855469 208.21875 58.71875 C 210.535156 57.582031 213.535156 57.355469 216.085938 57.355469 L 219.449219 57.355469 C 219.449219 53.582031 217.761719 52.308594 214.175781 52.308594 C 211.582031 52.308594 208.988281 53.304688 206.941406 54.855469 Z M 213.902344 67.90625 C 215.761719 67.90625 217.222656 67.089844 218.175781 65.816406 C 219.175781 64.496094 219.449219 62.8125 219.449219 60.996094 L 216.808594 60.996094 C 214.082031 60.996094 210.035156 61.449219 210.035156 65.042969 C 210.035156 67.042969 211.714844 67.90625 213.902344 67.90625 Z M 180.425781 40.074219 L 188.480469 40.074219 C 195.390625 40.074219 201.714844 42.074219 201.714844 49.667969 C 201.714844 57.082031 196.300781 59.765625 189.476563 59.765625 L 186.796875 59.765625 L 186.796875 71.816406 L 180.425781 71.816406 Z M 186.796875 54.765625 L 189.023438 54.765625 C 192.207031 54.765625 195.070313 53.714844 195.070313 50.03125 C 195.070313 46.351563 192.296875 45.074219 189.023438 45.074219 L 186.796875 45.074219 Z M 155.597656 54.082031 C 155.597656 52.308594 155.597656 50.488281 155.414063 48.625 L 158.1875 48.625 L 158.1875 52.761719 L 158.277344 52.761719 C 159.234375 50.671875 160.964844 48.078125 165.78125 48.078125 C 171.511719 48.078125 173.695313 51.898438 173.695313 56.992188 L 173.695313 71.816406 L 170.832031 71.816406 L 170.832031 57.71875 C 170.832031 53.351563 169.285156 50.535156 165.332031 50.535156 C 160.097656 50.535156 158.464844 55.128906 158.464844 58.992188 L 158.464844 71.816406 L 155.597656 71.816406 Z M 146.183594 68.085938 L 146.09375 68.085938 C 144.820313 70.863281 141.589844 72.363281 138.726563 72.363281 C 132.128906 72.363281 131.082031 67.90625 131.082031 65.816406 C 131.082031 58.039063 139.363281 57.675781 145.363281 57.675781 L 145.910156 57.675781 L 145.910156 56.492188 C 145.910156 52.535156 144.5 50.535156 140.636719 50.535156 C 138.226563 50.535156 135.953125 51.078125 133.816406 52.445313 L 133.816406 49.667969 C 135.585938 48.804688 138.589844 48.078125 140.636719 48.078125 C 146.367188 48.078125 148.777344 50.671875 148.777344 56.71875 L 148.777344 66.949219 C 148.777344 68.816406 148.777344 70.226563 149.003906 71.816406 L 146.183594 71.816406 Z M 145.910156 60.128906 L 145.089844 60.128906 C 140.136719 60.128906 134.222656 60.628906 134.222656 65.722656 C 134.222656 68.769531 136.40625 69.90625 139.042969 69.90625 C 145.777344 69.90625 145.910156 64.039063 145.910156 61.539063 Z M 145.910156 60.128906 "/>
</g>
</g>
</svg>
