<svg width="122" height="42" viewBox="0 0 122 42" fill="none" xmlns="http://www.w3.org/2000/svg">
<path d="M11.6357 24.5173C14.8908 24.1267 24.0712 24.1047 27.1127 24.8187C30.9707 25.7243 35.1636 28.7381 36.5666 32.5258C37.9682 36.312 37.6873 37.9915 33.8908 39.5599C28.1354 41.9372 8.34539 41.9562 2.7304 39.2526C-0.134152 37.873 -0.398955 36.7026 0.372045 33.6479C1.58048 28.8595 6.86337 25.0908 11.6357 24.5173ZM12.1331 26.2568C7.88601 26.7411 3.18393 29.8426 2.11448 34.1453C1.51318 36.5636 1.87747 37.0523 4.23436 37.9988C9.31975 40.0397 27.5487 40.0119 32.7175 38.1364C35.3319 37.1883 35.882 36.6412 35.1402 33.9536C34.1468 30.3517 30.7249 27.6862 27.2225 26.7001C24.1999 25.8486 15.4219 25.8837 12.1331 26.2583V26.2568Z" fill="#818181"/>
<path d="M17.1073 0.392418C32.6209 -1.47729 34.5214 21.8268 19.5212 22.9504C4.90587 24.0462 3.05518 2.08511 17.1073 0.392418ZM17.6047 2.13485C3.65939 3.65637 8.64676 25.7023 22.2292 20.4355C32.3517 16.5103 28.5421 0.941043 17.6047 2.13485Z" fill="#818181"/>
<path d="M54.3726 15.1588H56.0601L60.0132 24.8151H60.1538L64.1069 15.1588H65.8491V26.7994H64.4663V17.9557H64.3569L60.6929 26.7994H59.4272L55.8101 17.9557H55.7007V26.7994H54.3726V15.1588ZM67.7476 26.7994V18.0651H69.0757V26.7994H67.7476ZM68.4194 16.6119C68.159 16.6119 67.9351 16.5234 67.7476 16.3463C67.5601 16.1692 67.4663 15.9557 67.4663 15.7057C67.4663 15.4557 67.5601 15.2421 67.7476 15.0651C67.9351 14.888 68.159 14.7994 68.4194 14.7994C68.6799 14.7994 68.9038 14.888 69.0913 15.0651C69.2788 15.2421 69.3726 15.4557 69.3726 15.7057C69.3726 15.9557 69.2788 16.1692 69.0913 16.3463C68.9038 16.5234 68.6799 16.6119 68.4194 16.6119ZM78.0757 26.9869C77.2632 26.9869 76.5601 26.7942 75.9663 26.4088C75.3778 26.0182 74.922 25.4843 74.5991 24.8073C74.2814 24.1302 74.1226 23.3567 74.1226 22.4869C74.1226 21.5963 74.2866 20.8125 74.6147 20.1354C74.9429 19.4531 75.4012 18.9192 75.9897 18.5338C76.5835 18.1484 77.2736 17.9557 78.0601 17.9557C78.6746 17.9557 79.2267 18.0703 79.7163 18.2994C80.2111 18.5234 80.6147 18.8411 80.9272 19.2526C81.245 19.664 81.4403 20.1432 81.5132 20.6901H80.1694C80.1017 20.4244 79.9793 20.1744 79.8022 19.9401C79.6252 19.7057 79.3908 19.5182 79.0991 19.3776C78.8127 19.2317 78.4715 19.1588 78.0757 19.1588C77.5549 19.1588 77.0991 19.2942 76.7085 19.5651C76.3179 19.8359 76.0132 20.2187 75.7944 20.7135C75.5757 21.2031 75.4663 21.7786 75.4663 22.4401C75.4663 23.1119 75.5731 23.7005 75.7866 24.2057C76.0002 24.7057 76.3022 25.0937 76.6929 25.3698C77.0887 25.6458 77.5496 25.7838 78.0757 25.7838C78.6017 25.7838 79.0522 25.6484 79.4272 25.3776C79.8022 25.1015 80.0496 24.7265 80.1694 24.2526H81.5132C81.4403 24.7682 81.2528 25.2317 80.9507 25.6432C80.6538 26.0546 80.2606 26.3828 79.771 26.6276C79.2866 26.8671 78.7215 26.9869 78.0757 26.9869ZM88.2788 23.2369V18.0651H89.6069V26.7994H88.2788V25.3151H88.1851C87.9767 25.7578 87.6564 26.1354 87.2241 26.4479C86.797 26.7604 86.2528 26.914 85.5913 26.9088C85.0444 26.9088 84.5601 26.7916 84.1382 26.5573C83.7163 26.3177 83.383 25.9531 83.1382 25.4635C82.8986 24.9739 82.7788 24.3567 82.7788 23.6119V18.0651H84.1069V23.5338C84.1069 24.164 84.2866 24.6692 84.646 25.0494C85.0106 25.4296 85.4715 25.6171 86.0288 25.6119C86.3621 25.6119 86.7007 25.5286 87.0444 25.3619C87.3934 25.1901 87.6851 24.9296 87.9194 24.5807C88.159 24.2265 88.2788 23.7786 88.2788 23.2369ZM94.9819 26.9869C94.1434 26.9869 93.4168 26.7994 92.8022 26.4244C92.1929 26.0494 91.7241 25.526 91.396 24.8541C91.0679 24.177 90.9038 23.3932 90.9038 22.5026C90.9038 21.6067 91.0653 20.8177 91.3882 20.1354C91.7111 19.4531 92.1642 18.9192 92.7476 18.5338C93.3361 18.1484 94.0236 17.9557 94.8101 17.9557C95.2632 17.9557 95.7137 18.0312 96.1616 18.1823C96.6095 18.3333 97.0158 18.5781 97.3804 18.9166C97.7502 19.2552 98.0444 19.7031 98.2632 20.2604C98.4819 20.8177 98.5913 21.5026 98.5913 22.3151V22.8932H91.8569V21.7369H97.8647L97.2476 22.1744C97.2476 21.5911 97.1564 21.0729 96.9741 20.6198C96.7918 20.1666 96.5184 19.8099 96.1538 19.5494C95.7944 19.289 95.3465 19.1588 94.8101 19.1588C94.2736 19.1588 93.8127 19.2916 93.4272 19.5573C93.047 19.8177 92.7554 20.1588 92.5522 20.5807C92.3491 21.0026 92.2476 21.4557 92.2476 21.9401V22.7057C92.2476 23.3671 92.3621 23.927 92.5913 24.3854C92.8205 24.8437 93.1408 25.1927 93.5522 25.4323C93.9637 25.6666 94.4403 25.7838 94.9819 25.7838C95.3309 25.7838 95.6486 25.7343 95.9351 25.6354C96.2215 25.5312 96.4689 25.3776 96.6772 25.1744C96.8856 24.9661 97.0444 24.7109 97.1538 24.4088L98.4507 24.7838C98.3153 25.2213 98.0861 25.6067 97.7632 25.9401C97.4455 26.2682 97.0496 26.526 96.5757 26.7135C96.1017 26.8958 95.5705 26.9869 94.9819 26.9869ZM101.185 21.5494V26.7994H99.8569V18.0651H101.138V19.4401H101.263C101.466 18.9921 101.776 18.6328 102.193 18.3619C102.61 18.0911 103.149 17.9557 103.81 17.9557C104.399 17.9557 104.914 18.0755 105.357 18.3151C105.8 18.5546 106.143 18.9192 106.388 19.4088C106.638 19.8932 106.763 20.5078 106.763 21.2526V26.7994H105.435V21.3463C105.435 20.664 105.255 20.1302 104.896 19.7448C104.537 19.3541 104.047 19.1588 103.427 19.1588C103 19.1588 102.617 19.2526 102.279 19.4401C101.94 19.6276 101.672 19.8984 101.474 20.2526C101.281 20.6067 101.185 21.039 101.185 21.5494ZM112.263 18.0651V19.2057H107.748V18.0651H112.263ZM109.06 15.9869H110.388V24.2994C110.388 24.7526 110.482 25.0859 110.669 25.2994C110.857 25.5078 111.154 25.6119 111.56 25.6119C111.649 25.6119 111.74 25.6067 111.833 25.5963C111.932 25.5859 112.039 25.5703 112.154 25.5494L112.435 26.7526C112.31 26.7994 112.156 26.8359 111.974 26.8619C111.797 26.8932 111.617 26.9088 111.435 26.9088C110.732 26.9088 110.159 26.7005 109.716 26.2838C109.279 25.8671 109.06 25.3255 109.06 24.6588V15.9869ZM116.107 27.0026C115.555 27.0026 115.052 26.8984 114.599 26.6901C114.146 26.4765 113.787 26.1692 113.521 25.7682C113.255 25.3671 113.123 24.8828 113.123 24.3151C113.123 23.8151 113.222 23.4114 113.419 23.1041C113.617 22.7916 113.88 22.5468 114.208 22.3698C114.542 22.1875 114.906 22.052 115.302 21.9635C115.703 21.875 116.107 21.8046 116.513 21.7526C117.044 21.6849 117.474 21.6328 117.802 21.5963C118.136 21.5599 118.378 21.4974 118.529 21.4088C118.685 21.3203 118.763 21.1692 118.763 20.9557V20.9088C118.763 20.3515 118.61 19.9192 118.302 19.6119C118 19.2994 117.539 19.1432 116.919 19.1432C116.284 19.1432 115.784 19.2838 115.419 19.5651C115.055 19.8411 114.8 20.138 114.654 20.4557L113.373 20.0026C113.602 19.4713 113.906 19.0573 114.287 18.7604C114.672 18.4635 115.089 18.2552 115.537 18.1354C115.99 18.0156 116.435 17.9557 116.873 17.9557C117.154 17.9557 117.477 17.9895 117.841 18.0573C118.206 18.1198 118.56 18.2552 118.904 18.4635C119.253 18.6666 119.539 18.9765 119.763 19.3932C119.992 19.8046 120.107 20.3567 120.107 21.0494V26.7994H118.763V25.6119H118.701C118.612 25.7994 118.461 26.0026 118.248 26.2213C118.034 26.4349 117.75 26.6198 117.396 26.776C117.047 26.927 116.617 27.0026 116.107 27.0026ZM116.31 25.7994C116.841 25.7994 117.289 25.6953 117.654 25.4869C118.018 25.2786 118.294 25.0104 118.482 24.6823C118.669 24.3489 118.763 24.0026 118.763 23.6432V22.4088C118.706 22.4765 118.581 22.539 118.388 22.5963C118.201 22.6484 117.982 22.6953 117.732 22.7369C117.487 22.7786 117.248 22.8151 117.013 22.8463C116.779 22.8724 116.591 22.8932 116.451 22.9088C116.102 22.9557 115.776 23.0312 115.474 23.1354C115.172 23.2343 114.927 23.3828 114.74 23.5807C114.557 23.7786 114.466 24.0494 114.466 24.3932C114.466 24.8567 114.638 25.2083 114.982 25.4479C115.331 25.6823 115.774 25.7994 116.31 25.7994Z" fill="#818181"/>
</svg>
