<?xml version="1.0" encoding="utf-8"?>
<!-- Designed by Vexels.com - 2020 All Rights Reserved - https://vexels.com/terms-and-conditions/  -->
<svg version="1.1" id="Capa_1" xmlns="http://www.w3.org/2000/svg" xmlns:xlink="http://www.w3.org/1999/xlink" x="0px" y="0px"
	 viewBox="0 0 1200 1200" enable-background="new 0 0 1200 1200" xml:space="preserve">
<g>
	<path fill="#005377" d="M567.063,815.474c1.259-2.02,1.469-4.609,1.401-6.928c-0.215-7.305-10.223-7.002-15.278-8.964
		c-2.731-1.06-5.818-2.347-7.436-4.951c-1.55-2.495-0.424-7.348-4.125-8.029c5.459-3.543,8.989-4.104,8.249-10.845
		c-0.562-5.124-1.48-10.222-2.102-15.344c-1.357-11.168-3.804-23.228-2.501-34.455c1.242-10.701,2.999-21.345,4.12-32.062
		c1.132-10.819-0.33-21.808-0.951-32.644c-0.325-5.663-0.691-11.309-1.198-16.959c-0.397-4.417-1.981-10.06-1.276-14.395
		c0.599-3.682,1.188-5.928,1.109-9.941c-0.102-5.223,0.737-8.51,2.687-13.332c3.523-8.714,5.444-17.195,5.54-26.417
		c0.048-4.544,1.33-9.221,0.847-13.762c-0.657-6.177-3.199-12.25-4.065-18.48c-1.017-7.316-1.898-15.526-3.855-22.993
		c-0.403-1.539-3.198-7.435-2.738-8.805c2.263-6.733,18.205-5.34,19.9-14.941c0.607-3.438-3.088-8.254-4.516-11.235
		c-2.561-5.346-4.863-10.833-7.18-16.287c-3.662-8.618-5.258-22.052-11.46-29.075c-2.492-2.822-6.709-4.268-9.833-6.28
		c-4.307-2.774-7.321-6.435-11.104-9.822c-1.079-0.966-2.231-1.843-3.373-2.733c0.807,2.951,0.968,6.135,0.841,9.077
		c-0.104,2.403-0.786,4.953,0.121,7.203c0.927,2.301,2.263,4.134,2.742,6.685c0.446,2.371,0.341,4.788,0.725,7.162
		c1.067,6.59,1.273,13.934,0.52,20.575c-0.525,4.634-0.876,11.363-4.092,15.04c-2.922,3.341-7.105,2.352-10.697,1.647
		c-1.313-0.258-2.137-0.954-3.201-1.617c-1.615-1.008-1.835-0.157-4.103-0.294c-0.944-0.057-2.163-0.348-3.353-0.758
		c0.045,0.068,0.107,0.132,0.145,0.201c1.435,2.621-1.765,10.59-2.357,13.403c-1.496,7.1-3.03,14.193-4.569,21.284
		c-0.629,2.897-0.464,7.135-3.007,8.344c-7.048,3.35-18.62-9.141-23.591-12.179c-6.304-3.853-13.305-6.79-20.433-8.738
		c0.52-5.616,1.148-11.224,1.91-16.812c0.517-3.793,0.693-16.827,4.35-19.263c2.409-1.605,8.815,1.401,11.4,2.13
		c7.16,2.02,14.407,3.393,21.439,5.823c1.927,0.666,6.337,1.529,9.905,2.842c-2.536-3.125-1.633-7.804-0.611-11.502
		c1.316-4.758,3.191-9.248,5.482-13.618c2.665-5.084,5.686-10.008,8.527-14.993c1.507-2.645,3.786-4.08,5.722-6.296
		c2.406-2.755,2.006-9.045,1.337-12.469c-0.954-4.882-1.655-6.749-4.287-9.105c-3.115-2.141-3.236-4.939-3.237-8.419
		c-0.001-5.47,1.528-9.403,3.472-14.451c0.504-1.308,1.416-2.868,1.65-4.21c0.157-0.902-1.03-2.065-0.83-2.935
		c1.059-4.599,3.569-0.895,5.192-3.995c1.113-2.125-1.991-6.314-0.903-9.163c0.53-1.388,2.44-2.229,2.647-3.761
		c-0.351-1.141-0.921-2.163-1.71-3.067c-0.437-1.233-0.361-2.441,0.228-3.624c-0.129-1.15,0.514-2.152,0.18-3.366
		c-0.655-2.37-2.546-2.673-3.457-4.682c-0.483-1.063,1.107-2.02,0.799-2.944c-0.033-0.101-2.156-2.641-2.432-3.039
		c-1.833-2.639-3.597-6.929-5.554-9.219c-2.318-2.713-4.758-2.596-8.047-3.462c-3.006-0.791-7.545-4.684-10.996-4.559
		c-1.463,0.053-2.546,1.151-3.809,1.689c-2.96,1.261-6.457,1.016-9.103,2.055c-2.818,1.106-7.863,4.742-6.867,7.858
		c-1.346,0.69-2.61,0.675-4.115,0.874c-5.109,0.674-1.366,2.869-1.937,4.555c-0.768,2.269-2.967,3.819-3.619,5.819
		c-1.065,3.268-0.196,7.572,0.167,10.778c0.217,1.918,0.632,3.989,0.643,5.975c0.006,1.001-0.468,3.477-0.093,4.345
		c0.38,0.878,2.372,1.632,2.53,2.257c0.207,0.818,1.247,17.588,4.275,9.27c1.43,1.625,2.861,3.25,4.291,4.875
		c-7.743,1.874,0.032,4.371,1.799,6.167c2.151,2.186,5.349,10.336,4.042,12.939c-0.965,1.921-2.431,3.559-4.074,4.942
		c-0.706,3.111-1.612,6.767-1.976,9.148c-0.536,3.509-0.295,7.125,0.571,10.562c0.548,2.174,1.493,3.39,2.506,5.213
		c0.211,0.38,0.398,2.017,0.796,2.069c7.93,0.857,8,13.736-0.233,13.76c-2.747,0.008-5.061-1.734-6.114-4.215
		c-1.403-3.306,0.723-4.269,0.816-7.077c0.016-0.473-0.877-1.727-1.051-2.27c-1.626-5.072-2.766-10.99-2.294-16.318
		c0.206-2.319,0.667-4.893,1.515-7.24c-2.567,1.501-4.798,3.798-7.267,5.453c-2.792,1.872-6.266,2.574-8.859,4.681
		c-1.087,0.883-1.969,1.78-3.143,2.625c-3.804,2.738-8.858,4.476-12.013,7.922c-3.558,3.886-2.634,7.521-3.928,12.185
		c-1.919,6.912-5.453,13.742-7.808,20.575c-3.761,10.912-7.741,22.823-9.644,34.032c-1.94,11.429-4.513,17.463,6.949,24.53
		c4.341,2.676,8.627,4.091,10.767,8.717c2.713,5.863,4.276,12.561,6.327,18.69c0.93,2.78,1.796,5.592,2.808,8.343
		c0.496,1.348,0.666,2.953,1.606,4.093c4.341,5.178,4.742,8.899,5.439,15.575c1.339,12.804-2.199,25.318-2.761,38.223
		c-0.162,3.71-0.628,4.235,2.22,6.268c2.365,1.689,2.967,0.343,3.952,3.449c0.671,2.116-0.496,7.293-0.628,9.318
		c-0.259,3.977-0.534,7.954-0.783,11.932c-1.787,28.507,0.636,56.863-0.405,85.308c-0.527,14.397,0.411,29.082-1.052,43.408
		c-0.468,4.585-3.553,12.003-2.098,16.402c0.723,2.185,3.534,2.549,3.067,5.338c-0.394,2.349-3.042,1.555-1.822,4.614
		c0.49,1.229,2.334,1.895,3.013,3.315c0.972,2.035,0.679,5.92,1.089,8.306c0.809,4.713-0.519,10.242,2.269,14.498
		c5.244,8.005,23.868,8.146,25.423-2.669c1.245-8.657-3.345-14.799-4.108-22.919c-0.386-4.106,0.988-3.27,4.192-5.532
		c3.252-2.296,3.022-4.051,3.173-8.041c0.586-15.508,1.483-31.155,2.642-46.63c2.279-30.431,8.285-60.49,15.213-90.043
		c2.154,2.212,1.038,11.822,1.251,14.851c0.379,5.384,0.959,10.749,1.569,16.111c1.04,9.154,2.658,18.268,3.554,27.424
		c2.016,20.623,2.344,41.409,4.485,62.005c0.707,6.793-2.723,16.388,1.829,22.681c3.831,5.248,10.806,3.477,16.182,3.832
		c4.77,0.315,9.529,2.204,14.046,3.628C547.738,817.257,562.139,823.376,567.063,815.474z M483.157,554.453
		c-0.543,4.891,0.067,5.793-4.008,5.764c-4.173-0.029-9.295-2.227-13.321-3.219c-5.395-1.329-10.786-2.673-16.176-4.021
		c-1.856-0.465-7.822-0.882-9.17-2.301c-1.289-1.357-0.183-7.999-0.183-10.157c10.889,1.421,21.801,3.237,32.458,5.899
		c2.047,0.511,9.753,1.429,10.786,3.252C484.049,550.563,483.265,553.48,483.157,554.453z"/>
	<path fill="#005377" d="M503.539,460.94c-2.598,3.078-4.319,6.928-5.735,10.678c-1.016,2.688-5.671,13.014-0.246,13.996
		c0.644,0.116,1.703-0.295,2.652-0.261c2.206,0.08,3.416,1.28,5.357,1.682c1.611,0.333,3.163-0.412,4.918,0.835
		c1.939,1.378,3.75,2.924,5.69,0.219c2.256-3.146,2.412-9.564,2.704-13.392c0.062-3.479,0.297-7.133-0.325-10.54
		c-0.472-2.586-0.763-9.533-3.116-11.509C510.702,448.67,505.937,458.097,503.539,460.94z"/>
	<polygon fill="#005377" points="724.747,485.667 728.07,486.605 728.922,483.111 725.258,482.089 	"/>
	<path fill="#005377" d="M744.081,792.557c0.081-3.922,0.36-7.851,0.576-11.767c0.93-16.839,3.308-33.557,4.169-50.393
		c0.442-8.644,0.085-17.246,1.059-25.865c0.97-8.581,1.158-16.359,0.02-24.942c3.625-0.11,6.101,0.22,6.917-3.771
		c0.655-3.208,0.569-6.561,0.921-9.808c1.249-11.526,0.884-23.317,1.173-34.913c0.295-11.821,1.068-23.65,1.223-35.469
		c0.153-11.662-0.983-23.294-2.419-34.853c-1.438-11.576-3.206-23.114-4.347-34.725c-0.132-1.349-0.594-3.169-0.41-4.51
		c0.429-3.133-0.39-0.433,1.198-1.817c1.007-0.878,1.917-1.285,2.78-2.408c2.11-2.746,3.117-6.278,4.215-9.51
		c1.43-4.209,2.637-8.425,3.688-12.746c1.378-5.668,3.504-10.932,5.214-16.478c3.176-10.298,2.906-20.861,2.877-31.496
		c-0.014-5.138,0.142-10.647-3.89-14.463c-3.131-2.964-7.532-3.948-11.499-5.265c-3.01-0.999-5.643-2.415-8.031-4.103
		c0.01,0.343,0.022,0.684,0.02,1.029c-0.013,2.758-0.493,5.478-1.058,8.17c-0.277,1.321-0.956,2.858-0.801,4.209
		c0.251,2.206,1.762,4.27,2.084,6.571c0.295,2.112,0.223,4.26,0.026,6.378c-0.254,2.771,0.386,5.523,0.002,8.271
		c-0.245,1.752-0.624,3.267-0.755,5.036c-0.375,5.079-1.273,9.962-2.751,14.839c-1.311,4.325-2.646,10.289-7.143,12.381
		c-3.155,1.469-6.766-0.153-9.595-1.23c-1.374-0.524-2.634-1.08-2.98-2.62l-1.633-0.455c-0.7,0.306-1.564,0.43-2.581,0.202
		c-6.192-1.387-10.288-6.698-8.223-13.194c1.524-4.796,4.062-9.433,6.774-13.645c0.561-0.871,7.595-10.724,8.431-11.633
		c1.785-1.941,3.138-3.919,4.737-6.012c1.977-2.589,4.722-3.725,7.013-5.857c3.396-3.16,3.484-11.787,2.389-15.928
		c-0.671-2.537-1.798-3.325-3.296-5.081c-1.085-1.272-1.069-3.222-2.096-4.622c0.007-0.001,0.012,0,0.019-0.001
		c-0.483-0.846-0.962-1.695-1.414-2.574c0-4.213,0.131-12.582,4.395-14.575c7.2-3.366,6.437-12.664,6.437-19.576
		c1.008,6.81,4.203,10.49,8.283,15.651c3.563,4.507,2.378,9.355,0.062,14.282c-2.183,4.641-5.749,11.341-0.826,15.787
		c3.301,2.982,3.717-4.638,4.896-6.845c2.758-5.162,7.724-8.804,9.582-14.508c2.1-6.446,0.749-13.777-2.092-19.769
		c-1.588-3.347-4.885-8.885-8.914-12.44c1.306,0.291,2.244,0.436,2.377,0.259c1.815-2.429-9.826-6.46-11.899-5.453
		c-0.826-4.449-2.26-9.094-5.117-12.683c-3.229-4.055-7.619-5.173-12.539-5.714c-8.89-0.977-19.289-4.511-27.103,1.679
		c-2.898,2.296-14.011,24.437-9.271,25.229c0.112,0.019,1.451-3.947,2.827-7.652c-2.53,9.173,0.273,19.676,1.965,28.692
		c0.628,3.346,1.005,6.723,2.762,9.71c1.439,2.445,3.491,4.514,4.746,7.071c2.316,4.712-0.961,7.549-4.671,10.107
		c-2.701,1.862-5.239,4.012-8.016,5.709c-2.208,2.846-4.212,5.551-4.681,9.813c-0.193,1.759,0.065,3.914,0.475,5.634
		c0.379,1.589,0.573,1.198,1.891,2.639c2.816,3.079,2.309,8.209-0.968,10.754c-3.424,2.659-8.549,1.208-10.147-2.802
		c-0.716-1.795-0.687-3.903,0.051-5.678c0.331-0.796,0.784-1.526,1.371-2.16c1.548-1.671,0.983-0.514,1.446-2.681
		c0.815-3.81,0.972-8.515,2.437-12.474c-4.907,1.025-9.885,1.655-14.051,4.781c-3.788,2.843-5.963,7.095-8.028,11.24
		c-3.174,6.371-6.16,12.828-9.121,19.3c-5.866,12.821-12.272,25.354-12.819,39.742c-0.205,5.392,0.197,11.402,3.242,16.042
		c2.877,4.384,7.607,5.089,11.89,7.5c4.493,2.53,3.93,6.282,2.857,10.807c-1.4,5.901-2.73,11.543-3.509,17.591
		c-1.916,14.857-2.887,29.935-4.179,44.862c-1.318,15.23-1.038,30.543-2.797,45.736c-0.796,6.879-1.13,13.815-2.022,20.678
		c-0.637,4.904,0.388,8.051,5.78,8.605c4.369,0.449,8.098-0.265,8.661,4.899c0.456,4.175-0.184,8.404,0.065,12.592
		c0.915,15.438,2.069,30.858,2.804,46.307c0.725,15.257,1.27,30.521,2.142,45.771c0.403,7.041-0.059,14.144,0.452,21.154
		c0.168,2.302,1.625,4.72,1.536,6.931c-0.095,2.371-2.386,4.901-3.804,6.611c-3.646,4.397-8.415,7.252-12.63,11.013
		c-3.096,2.763-7.443,7.654-4.011,11.747c2.607,3.109,7.794,3.763,11.579,3.475c6.17-0.47,11.383-3.595,16.626-6.591
		c4.749-2.713,6.443-4.369,11.729-5.635c3.889-0.932,9.391-6.369,11.37-10.151c2.983-5.703,0.721-9.693,0.391-15.915
		c-0.387-7.284-1.546-14.494-2.632-21.698c-1.093-7.257,0.493-14.381,1.541-21.711c1.063-7.429,1.626-16.199,1.722-23.726
		c0.094-7.376-1.159-10.13-2.386-17.418c-0.53-3.151-0.268-9.141-1.188-12.167c-0.986-3.242-0.422-6.073,0.31-9.307
		c1.5-6.622,0.905-12.975,0.53-19.707c4.017,0,8.654-1.427,12.59-0.263c3.634,1.075,2.714,6.444,2.943,9.498
		c0.508,6.745,2.957,13.169,3.62,19.901c0.741,7.531-0.173,15.086-1.211,22.542c-2.031,14.583-2.462,29.619-6.004,43.945
		c-1.738,7.032-4.24,12.842-3.579,20.236c0.604,6.765,1.314,18.13-0.772,24.719c-1.981,6.258-3.633,6.84-4.137,13.406
		c-0.313,4.078-0.474,9.653,3.697,11.901c4.457,2.402,11.824,1.367,16.169-0.709c5.751-2.748,8.616-7.961,9.026-14.174
		c0.342-5.176-0.62-9.999-1.409-15.054c-0.237-1.52-0.946-4.464,0.279-5.772c1.225-1.309,4.125-1.157,5.743-1.355
		c4.709-0.578,7.536-0.756,8.44-6.119C744.389,798.595,744.019,795.542,744.081,792.557z"/>
	<path fill="#005377" d="M737.92,485.884c3.149-1.669,4.558-9.442,5.302-12.685c0.498-2.171,0.786-4.374,1.082-6.582
		c0.672-5.023,0.783-10.745-0.071-15.732c-0.928-5.418-5.751-4.5-8.777-1.534c-2.737,2.683-6.07,5.326-8.415,8.328
		c-2.148,2.747-3.988,5.757-5.577,8.855c-1.423,2.775-5.468,8.974-3.194,12.165c1.294,1.817,3.814,0.953,5.859,1.656
		c1.203,0.414,1.922,1.086,2.287,1.825l1.746,0.503c0.358-0.191,0.756-0.314,1.183-0.33
		C732.956,482.219,734.165,487.874,737.92,485.884z"/>
	<polygon fill="#005377" points="300.752,468.616 319.325,457.893 319.325,479.338 341.735,479.338 341.735,457.893 
		360.307,468.616 371.513,449.208 352.94,438.485 371.513,427.762 360.307,408.354 341.735,419.077 341.735,397.632 
		319.325,397.632 319.325,419.077 300.752,408.354 289.547,427.762 308.12,438.485 289.547,449.208 	"/>
	<polygon fill="#005377" points="878.682,720.036 878.682,698.591 897.254,709.314 908.459,689.906 889.887,679.183 908.459,668.46 
		897.254,649.052 878.682,659.775 878.682,638.329 856.272,638.329 856.272,659.775 837.7,649.052 826.494,668.46 845.067,679.183 
		826.494,689.906 837.7,709.314 856.272,698.591 856.272,720.036 	"/>
	<polygon fill="#005377" points="672.16,889.334 653.588,900.057 653.588,878.611 631.178,878.611 631.178,900.057 612.605,889.334 
		601.4,908.742 619.973,919.465 601.4,930.188 612.605,949.596 631.178,938.873 631.178,960.318 653.588,960.318 653.588,938.873 
		672.16,949.596 683.365,930.188 664.793,919.465 683.365,908.742 	"/>
	<polygon fill="#005377" points="837.699,252.708 815.289,252.708 815.289,274.154 796.717,263.431 785.512,282.838 
		804.084,293.562 785.512,304.285 796.717,323.692 815.289,312.969 815.289,334.415 837.699,334.415 837.699,312.969 
		856.271,323.692 867.477,304.285 848.904,293.562 867.477,282.838 856.271,263.431 837.699,274.154 	"/>
	<path fill="#005377" d="M338.427,724.485v-7.481c0-1.384-1.126-2.51-2.51-2.51h-58.51c-1.39,0-2.518,1.126-2.518,2.51v7.481
		c0,1.39,1.129,2.518,2.518,2.518h32.236c-6.829,14.337-21.196,23.485-37.181,23.485c-22.719,0-41.203-18.484-41.203-41.203
		c0-14.92,8.024-28.566,21.016-35.877c3.514,3.633,8.335,5.694,13.394,5.694c4.163,0,8.157-1.39,11.433-3.947l6.951,15.089
		c0.577,1.254,2.077,1.814,3.34,1.24l1.223-0.563l1.465,3.184c0.61,1.237,2.066,1.767,3.331,1.198l13.474-6.205
		c1.248-0.594,1.795-2.091,1.218-3.331l-1.453-3.162l1.905-0.879c0.613-0.272,1.082-0.766,1.323-1.392
		c0.241-0.63,0.219-1.32-0.064-1.95l-30.63-66.482c-0.272-0.613-0.768-1.079-1.395-1.315c-0.624-0.244-1.318-0.216-1.947,0.069
		l-2.262,1.042c0.04-0.423,0.013-0.854-0.171-1.27l-3.456-7.508c-0.594-1.243-2.089-1.789-3.334-1.215l-13.45,6.196
		c-0.613,0.277-1.082,0.774-1.317,1.403c-0.236,0.635-0.211,1.323,0.072,1.939l3.45,7.489v0.003c0.188,0.403,0.495,0.709,0.847,0.96
		l-1.551,0.715c-0.616,0.277-1.082,0.777-1.317,1.406c-0.236,0.635-0.208,1.323,0.075,1.933l8.501,18.462
		c-7.972,1.609-13.968,8.132-14.806,16.279c-19.144,9.566-31.467,29.415-31.467,50.794c0,23.981,15.064,45.313,37.594,53.407v10.385
		h-12.296c-1.381,0-2.507,1.126-2.507,2.51v9.023c0,1.387,1.126,2.516,2.507,2.516h60.067c1.39,0,2.518-1.129,2.518-2.516v-9.023
		c0-1.384-1.129-2.51-2.518-2.51h-8.585v-10.629c16.032-6.03,28.627-19.169,33.975-35.445h9.505
		C337.301,727.003,338.427,725.874,338.427,724.485z"/>
	<path fill="#005377" d="M1127.33,367.372h9.503c1.387,0,2.513-1.129,2.513-2.518v-7.481c0-1.384-1.126-2.51-2.513-2.51h-58.511
		c-1.39,0-2.518,1.126-2.518,2.51v7.481c0,1.39,1.129,2.518,2.518,2.518h32.238c-6.829,14.337-21.199,23.485-37.184,23.485
		c-22.719,0-41.203-18.484-41.203-41.203c0-14.92,8.024-28.566,21.016-35.877c3.514,3.634,8.335,5.694,13.397,5.694
		c4.163,0,8.157-1.39,11.433-3.947l6.948,15.083c0.571,1.259,2.075,1.817,3.342,1.245l1.223-0.563l1.462,3.179
		c0.605,1.243,2.066,1.77,3.331,1.204l13.477-6.207c1.248-0.594,1.795-2.091,1.218-3.328l-1.456-3.162l1.908-0.882
		c0.616-0.275,1.084-0.771,1.32-1.395c0.241-0.63,0.219-1.315-0.064-1.944l-30.627-66.482c-0.272-0.61-0.766-1.079-1.392-1.315
		c-0.63-0.236-1.323-0.216-1.953,0.069l-2.258,1.041c0.039-0.423,0.012-0.854-0.174-1.268l-3.456-7.508
		c-0.594-1.243-2.091-1.792-3.334-1.215l-13.444,6.196c-0.616,0.275-1.084,0.774-1.323,1.403c-0.236,0.635-0.211,1.323,0.075,1.939
		l3.448,7.489v0.003c0.188,0.405,0.496,0.711,0.849,0.962l-1.547,0.713c-0.619,0.275-1.087,0.774-1.323,1.406
		c-0.236,0.635-0.208,1.323,0.075,1.933l8.504,18.462c-7.972,1.609-13.968,8.132-14.809,16.279
		c-19.141,9.566-31.464,29.412-31.464,50.794c0,23.981,15.064,45.313,37.592,53.407v10.385h-12.296c-1.381,0-2.507,1.126-2.507,2.51
		v9.023c0,1.387,1.126,2.516,2.507,2.516h60.067c1.39,0,2.518-1.129,2.518-2.516v-9.023c0-1.384-1.129-2.51-2.518-2.51h-8.585
		v-10.631C1109.387,396.784,1121.983,383.646,1127.33,367.372z"/>
	<path fill="#005377" d="M157.154,550.418c-0.205,0.391-0.91,1.795-1.473,3.498c-1.065,3.229-1.026,5.73,0.125,7.653
		c0.502,0.835,2.028,2.776,5.328,2.776h85.018c3.301,0,4.826-1.942,5.328-2.779c1.151-1.919,1.19-4.421,0.125-7.65v-0.003
		c-0.641-1.942-1.473-3.498-1.473-3.498l-25.36-48.528c-1.634-2.779-2.566-9.286-2.768-12.651V448.91
		c2.247-1.476,3.262-4.313,3.254-6.865c-0.183-2.782-1.692-5.054-4.144-6.235c-1.639-0.79-3.278-0.91-4.36-0.907l-26.447-0.003
		c-0.84,0-2.496,0.119-4.136,0.91c-2.449,1.179-3.958,3.45-4.152,6.471c0,2.341,1.015,5.156,3.262,6.629l0.003,40.243
		c-0.2,3.442-1.129,9.941-2.835,12.845L157.154,550.418z M192.424,489.417l0.003-46.634h-3.17c-0.044-0.194-0.047-0.405,0.025-0.538
		c0.241-0.116,0.599-0.222,1.121-0.194l26.577-0.006c0.363,0,0.785,0.083,1.143,0.208c-0.008,0.119-0.033,0.319-0.092,0.53h-3.17
		l0.006,46.722c0.064,1.09,0.721,10.798,3.683,15.893l6.038,11.558h-41.888l6.024-11.53
		C191.703,500.267,192.357,490.595,192.424,489.417z"/>
	<path fill="#005377" d="M912.038,292.173h85.018c3.303,0,4.823-1.944,5.325-2.779c1.154-1.917,1.195-4.418,0.128-7.65v-0.003
		c-0.527-1.598-1.195-2.96-1.473-3.5l-25.36-48.525c-1.839-3.126-2.624-10.251-2.768-12.651v-40.329
		c2.247-1.476,3.262-4.31,3.253-6.865c-0.186-2.782-1.695-5.054-4.144-6.232c-1.645-0.793-3.303-0.921-4.36-0.907l-26.45-0.006
		c-0.838,0-2.488,0.119-4.133,0.913c-2.449,1.176-3.961,3.448-4.152,6.471c0,2.341,1.015,5.153,3.259,6.626l0.003,40.246
		c-0.2,3.445-1.129,9.946-2.832,12.845l-25.29,48.406c-0.089,0.164-0.871,1.661-1.478,3.509c-1.071,3.231-1.029,5.733,0.125,7.65
		C907.212,290.228,908.732,292.173,912.038,292.173z M943.328,217.245l0.003-46.634h-3.173c-0.044-0.197-0.047-0.408,0.022-0.538
		c0.241-0.119,0.677-0.233,1.126-0.194l26.577-0.006c0.366,0,0.791,0.083,1.14,0.225c-0.006,0.116-0.033,0.308-0.089,0.513h-3.173
		l0.008,46.709c0.022,0.43,0.596,10.601,3.683,15.907l6.038,11.555h-41.891l6.024-11.527
		C942.543,228.209,943.22,219.112,943.328,217.245z"/>
	<path fill="#005377" d="M115.968,483.954c3.893-5.838,6.092-13.19,4.27-19.966c-0.542-2.014-1.454-3.906-2.649-5.605
		c-3.194-4.539-8.409-7.697-13.966-8.089c-7.637-0.538-15.366,4.184-18.373,11.225c-2.743-4.045-5.679-8.263-10.063-10.423
		c-4.003-1.973-8.858-1.926-12.993-0.245c-10.82,4.398-14.696,16.826-10.596,27.253c2.339,5.948,6.607,10.932,11.191,15.385
		c6.549,6.363,13.865,11.872,21.159,17.363c0.519,0.39,1.106,0.801,1.752,0.734c0.514-0.053,0.942-0.4,1.338-0.733
		c4.738-3.981,9.477-7.963,14.215-11.945C106.626,494.39,112.074,489.792,115.968,483.954z"/>
	<path fill="#005377" d="M567.324,295.983c2.338,5.948,6.607,10.932,11.191,15.385c6.549,6.363,13.865,11.871,21.159,17.362
		c0.519,0.39,1.106,0.801,1.752,0.734c0.514-0.053,0.942-0.4,1.338-0.733c4.738-3.982,9.477-7.964,14.215-11.946
		c5.372-4.515,10.82-9.114,14.714-14.951c3.893-5.838,6.092-13.19,4.271-19.967c-0.542-2.014-1.454-3.906-2.649-5.605
		c-3.194-4.539-8.409-7.697-13.966-8.089c-7.637-0.538-15.367,4.184-18.373,11.225c-2.743-4.045-5.679-8.263-10.063-10.424
		c-4.003-1.973-8.858-1.926-12.993-0.245C567.1,273.129,563.224,285.556,567.324,295.983z"/>
	<path fill="#005377" d="M329.029,603.353c6.549,6.363,13.865,11.871,21.159,17.362c0.519,0.39,1.105,0.801,1.752,0.734
		c0.514-0.053,0.942-0.4,1.338-0.733c4.739-3.981,9.477-7.964,14.215-11.946c5.373-4.515,10.82-9.114,14.715-14.951
		c3.893-5.838,6.092-13.19,4.27-19.967c-0.542-2.014-1.453-3.906-2.649-5.605c-3.194-4.539-8.408-7.697-13.966-8.089
		c-7.637-0.538-15.366,4.184-18.372,11.225c-2.743-4.045-5.679-8.263-10.063-10.424c-4.003-1.973-8.858-1.926-12.993-0.246
		c-10.82,4.399-14.696,16.826-10.596,27.253C320.176,593.917,324.445,598.9,329.029,603.353z"/>
	<path fill="#005377" d="M1074.662,501.842c-3.194-4.539-8.409-7.697-13.966-8.089c-7.637-0.538-15.367,4.184-18.373,11.225
		c-2.743-4.045-5.679-8.263-10.063-10.423c-4.003-1.973-8.858-1.926-12.993-0.245c-10.82,4.399-14.696,16.826-10.596,27.253
		c2.338,5.948,6.607,10.932,11.191,15.385c6.549,6.363,13.865,11.872,21.159,17.363c0.519,0.39,1.106,0.801,1.752,0.734
		c0.514-0.053,0.942-0.4,1.338-0.733c4.738-3.981,9.477-7.963,14.215-11.945c5.372-4.516,10.82-9.114,14.714-14.951
		c3.893-5.838,6.092-13.19,4.271-19.967C1076.768,505.433,1075.857,503.541,1074.662,501.842z"/>
	<path fill="#005377" d="M403.658,855.036c-3.194-4.539-8.409-7.697-13.966-8.089c-7.637-0.538-15.366,4.184-18.372,11.225
		c-2.743-4.045-5.679-8.263-10.063-10.424c-4.003-1.973-8.858-1.926-12.993-0.245c-10.82,4.399-14.696,16.826-10.596,27.253
		c2.339,5.948,6.607,10.932,11.191,15.385c6.549,6.363,13.865,11.872,21.159,17.362c0.519,0.391,1.106,0.801,1.752,0.734
		c0.514-0.053,0.942-0.4,1.338-0.733c4.738-3.981,9.477-7.963,14.215-11.945c5.372-4.516,10.82-9.114,14.715-14.951
		c3.893-5.838,6.092-13.19,4.27-19.967C405.765,858.627,404.854,856.735,403.658,855.036z"/>
	<path fill="#005377" d="M633.315,1004.959c-3.194-4.539-8.409-7.697-13.966-8.089c-7.637-0.538-15.367,4.184-18.373,11.225
		c-2.743-4.045-5.679-8.263-10.063-10.424c-4.003-1.972-8.858-1.926-12.993-0.245c-10.82,4.399-14.696,16.826-10.596,27.253
		c2.338,5.948,6.607,10.932,11.191,15.385c6.549,6.363,13.865,11.871,21.159,17.362c0.519,0.39,1.106,0.801,1.752,0.734
		c0.514-0.053,0.942-0.4,1.338-0.733c4.738-3.981,9.477-7.964,14.215-11.945c5.372-4.516,10.82-9.114,14.714-14.951
		c3.893-5.838,6.092-13.19,4.271-19.966C635.422,1008.551,634.51,1006.658,633.315,1004.959z"/>
	<path fill="#005377" d="M940.605,785.766c-3.194-4.539-8.408-7.697-13.966-8.089c-7.637-0.538-15.367,4.184-18.373,11.225
		c-2.742-4.045-5.679-8.263-10.063-10.424c-4.003-1.973-8.858-1.926-12.993-0.245c-10.82,4.399-14.696,16.826-10.596,27.253
		c2.338,5.948,6.607,10.932,11.191,15.385c6.549,6.363,13.865,11.871,21.159,17.362c0.519,0.39,1.106,0.801,1.752,0.734
		c0.514-0.053,0.942-0.4,1.338-0.733c4.738-3.981,9.477-7.964,14.215-11.946c5.372-4.515,10.82-9.114,14.715-14.951
		c3.893-5.838,6.092-13.19,4.27-19.967C942.712,789.357,941.801,787.465,940.605,785.766z"/>
	<path fill="#005377" d="M194.423,225.16c6.549,6.363,13.865,11.871,21.159,17.362c0.519,0.39,1.106,0.801,1.752,0.734
		c0.514-0.053,0.942-0.4,1.338-0.733c4.738-3.981,9.477-7.964,14.215-11.946c5.372-4.516,10.82-9.114,14.715-14.951
		c3.893-5.838,6.092-13.19,4.27-19.967c-0.542-2.014-1.453-3.906-2.648-5.605c-3.194-4.539-8.409-7.697-13.966-8.089
		c-7.637-0.538-15.366,4.184-18.372,11.225c-2.743-4.045-5.679-8.263-10.063-10.424c-4.003-1.973-8.858-1.926-12.994-0.245
		c-10.82,4.399-14.696,16.826-10.596,27.253C185.57,215.723,189.839,220.707,194.423,225.16z"/>
	<path fill="#005377" d="M453.866,231.275c6.549,6.363,13.865,11.871,21.159,17.362c0.519,0.39,1.106,0.801,1.752,0.734
		c0.514-0.053,0.942-0.4,1.338-0.733c4.738-3.982,9.477-7.964,14.215-11.946c5.372-4.516,10.82-9.114,14.714-14.951
		c3.893-5.838,6.092-13.19,4.27-19.967c-0.542-2.014-1.454-3.906-2.648-5.605c-3.195-4.539-8.409-7.697-13.966-8.089
		c-7.637-0.538-15.366,4.184-18.372,11.225c-2.743-4.045-5.679-8.263-10.063-10.424c-4.003-1.973-8.858-1.926-12.993-0.245
		c-10.82,4.399-14.696,16.826-10.596,27.253C445.013,221.838,449.281,226.822,453.866,231.275z"/>
	<path fill="#005377" d="M903.95,582.8c6.335,0,12.149-2.43,16.373-6.843l34.582-36.133c8.895-9.297,7.994-24.658-2.011-34.241
		c-4.948-4.737-11.311-7.347-17.915-7.347c-6.332,0-12.149,2.432-16.376,6.848l-34.585,36.133
		c-8.895,9.297-7.994,24.655,2.011,34.235C890.986,580.19,897.349,582.8,903.95,582.8z M908.857,526.72l15.469-16.162
		c2.715-2.84,6.502-4.405,10.654-4.405c4.554,0,8.976,1.828,12.443,5.151c6.857,6.562,7.647,16.903,1.764,23.049l-16.129,16.853
		c-12.032-4.227-19.097-15.702-22.27-22.264l-0.849-1.75L908.857,526.72z"/>
	<path fill="#005377" d="M783.107,226.395c6.332,0,12.146-2.43,16.373-6.843l34.582-36.133c8.895-9.297,7.994-24.658-2.011-34.241
		c-4.948-4.737-11.311-7.347-17.915-7.347c-6.332,0-12.149,2.433-16.376,6.848l-34.585,36.133c-8.898,9.3-7.997,24.658,2.011,34.235
		C770.137,223.785,776.503,226.395,783.107,226.395z M788.014,170.314l15.469-16.162c2.715-2.84,6.499-4.405,10.654-4.405
		c4.554,0,8.973,1.828,12.443,5.151c6.857,6.563,7.647,16.903,1.764,23.049L812.214,194.8c-12.032-4.227-19.097-15.702-22.27-22.264
		l-0.849-1.75L788.014,170.314z"/>
	<path fill="#005377" d="M100.671,371.63c6.332,0,12.146-2.43,16.37-6.845l34.585-36.13c8.895-9.303,7.991-24.663-2.014-34.241
		c-4.948-4.737-11.311-7.347-17.912-7.347c-6.335,0-12.151,2.433-16.379,6.848l-34.585,36.13
		c-8.895,9.303-7.991,24.661,2.011,34.238C87.704,369.02,94.067,371.63,100.671,371.63z M105.575,315.549l15.469-16.162
		c2.715-2.84,6.501-4.405,10.656-4.405c4.554,0,8.973,1.828,12.443,5.148c6.854,6.565,7.644,16.905,1.761,23.049l-16.129,16.853
		c-12.032-4.227-19.097-15.702-22.27-22.264l-0.846-1.753L105.575,315.549z"/>
	<path fill="#005377" d="M339.781,239.75c6.33,0,12.146-2.43,16.373-6.845l34.582-36.13c8.895-9.303,7.994-24.663-2.011-34.241
		c-4.951-4.737-11.314-7.347-17.915-7.347c-6.335,0-12.151,2.433-16.379,6.848l-34.585,36.13
		c-8.895,9.303-7.991,24.661,2.011,34.238C326.816,237.14,333.179,239.75,339.781,239.75z M344.687,183.67l15.469-16.162
		c2.715-2.84,6.499-4.405,10.654-4.405c4.554,0,8.973,1.828,12.443,5.148c3.334,3.192,5.345,7.367,5.661,11.752
		c0.313,4.335-1.073,8.346-3.9,11.297l-16.129,16.853c-12.032-4.227-19.097-15.702-22.27-22.264l-0.846-1.753L344.687,183.67z"/>
	<path fill="#005377" d="M1033.511,646.697c-6.335,0-12.151,2.432-16.379,6.848l-34.582,36.13c-8.895,9.3-7.996,24.661,2.008,34.238
		c4.959,4.737,11.322,7.347,17.923,7.347c6.33,0,12.146-2.43,16.373-6.845l34.582-36.13c8.898-9.3,7.994-24.661-2.011-34.241
		C1046.478,649.307,1040.115,646.697,1033.511,646.697z M1051.615,671.513c0.313,4.335-1.071,8.346-3.897,11.297l-16.129,16.853
		c-12.032-4.224-19.097-15.702-22.27-22.264l-0.846-1.753l-1.084-0.466l15.469-16.162c2.715-2.84,6.499-4.405,10.654-4.405
		c4.554,0,8.973,1.828,12.443,5.148C1049.287,662.954,1051.298,667.128,1051.615,671.513z"/>
	<path fill="#005377" d="M801.03,860.988c-6.335,0-12.151,2.433-16.378,6.848l-34.585,36.133c-8.895,9.3-7.994,24.658,2.011,34.235
		c4.957,4.737,11.319,7.347,17.923,7.347c6.332,0,12.146-2.43,16.37-6.843l34.585-36.133c8.895-9.3,7.991-24.658-2.014-34.241
		C813.994,863.598,807.632,860.988,801.03,860.988z M815.234,897.104l-16.129,16.853c-12.032-4.227-19.097-15.705-22.27-22.264
		l-0.849-1.75l-1.082-0.472l15.469-16.162c2.715-2.84,6.501-4.405,10.656-4.405c4.554,0,8.973,1.828,12.443,5.151
		C820.327,880.617,821.117,890.958,815.234,897.104z"/>
	<path fill="#005377" d="M519.695,865.964c-6.335,0-12.151,2.432-16.376,6.848l-34.585,36.13c-8.895,9.3-7.994,24.658,2.011,34.238
		c4.957,4.737,11.319,7.347,17.921,7.347c6.332,0,12.149-2.43,16.373-6.845l34.585-36.133c8.895-9.3,7.991-24.658-2.014-34.238
		C532.664,868.574,526.301,865.964,519.695,865.964z M533.901,902.077l-16.129,16.853c-12.032-4.227-19.097-15.702-22.27-22.264
		l-0.849-1.75l-1.082-0.472l15.469-16.159c2.718-2.843,6.501-4.407,10.654-4.407c4.554,0,8.976,1.828,12.443,5.151
		C538.994,885.591,539.784,895.931,533.901,902.077z"/>
	<path fill="#005377" d="M237.495,304.357c-1.865,0.772-3.183,2.615-3.183,4.758v3.812c0,1.606,0.743,3.043,1.896,3.989
		c1.56,16.223,15.064,28.625,31.677,28.625c17.541,0,31.817-14.241,31.817-31.743c0-0.346-0.003-0.693-0.017-1.045
		c0.916-0.618,2.124-1.299,3.534-1.771c3.584-1.198,6.855-0.543,10.136,2.026c-0.002,0.264-0.006,0.529-0.006,0.79
		c0,17.502,14.274,31.743,31.82,31.743c16.191,0,29.804-12.381,31.617-28.147c1.546-0.889,2.593-2.56,2.593-4.468v-3.812
		c0-2.405-1.662-4.431-3.896-4.994c-4.16-12.964-16.414-22.066-30.314-22.066c-13.383,0-25.231,8.428-29.81,20.624
		c-4.805-2.389-10.123-2.75-15.266-1.028c-0.816,0.277-1.629,0.599-2.427,0.971c-4.6-12.152-16.464-20.567-29.782-20.567
		C253.97,282.056,241.586,291.291,237.495,304.357z M345.169,292.836c11.598,0,21.034,9.403,21.034,20.963
		c0,11.563-9.436,20.965-21.034,20.965c-11.596,0-21.031-9.403-21.031-20.965C324.138,302.238,333.573,292.836,345.169,292.836z
		 M267.884,292.836c11.594,0,21.033,9.403,21.033,20.963c0,11.563-9.439,20.965-21.033,20.965c-11.603,0-21.036-9.403-21.036-20.965
		C246.848,302.238,256.281,292.836,267.884,292.836z"/>
	<path fill="#005377" d="M985.937,416.165v-3.812c0-2.405-1.662-4.432-3.896-4.994c-4.16-12.964-16.414-22.066-30.314-22.066
		c-13.384,0-25.232,8.429-29.811,20.624c-4.805-2.389-10.123-2.749-15.266-1.028c-0.816,0.277-1.628,0.599-2.427,0.972
		c-4.6-12.152-16.465-20.567-29.782-20.567c-13.914,0-26.298,9.236-30.39,22.302c-1.865,0.772-3.183,2.616-3.183,4.758v3.812
		c0,1.606,0.743,3.043,1.896,3.989c1.56,16.223,15.064,28.626,31.677,28.626c17.541,0,31.817-14.241,31.817-31.743
		c0-0.345-0.004-0.693-0.017-1.045c0.916-0.618,2.124-1.299,3.534-1.771c3.585-1.198,6.855-0.542,10.136,2.026
		c-0.002,0.264-0.006,0.529-0.006,0.79c0,17.503,14.274,31.743,31.82,31.743c16.191,0,29.804-12.381,31.617-28.146
		C984.89,419.744,985.937,418.073,985.937,416.165z M874.442,438.002c-11.603,0-21.036-9.402-21.036-20.965
		c0-11.561,9.434-20.963,21.036-20.963c11.593,0,21.033,9.402,21.033,20.963C895.475,428.599,886.036,438.002,874.442,438.002z
		 M951.727,438.002c-11.596,0-21.032-9.402-21.032-20.965c0-11.561,9.436-20.963,21.032-20.963c11.598,0,21.034,9.402,21.034,20.963
		C972.761,428.599,963.325,438.002,951.727,438.002z"/>
	<circle fill="#005377" cx="1090.035" cy="602.895" r="12.075"/>
	<circle fill="#005377" cx="959.612" cy="621.457" r="12.075"/>
	<circle fill="#005377" cx="1137.925" cy="458.402" r="12.075"/>
	<circle fill="#005377" cx="954.547" cy="334.415" r="12.075"/>
	<circle fill="#005377" cx="889.675" cy="156.607" r="12.075"/>
	<circle fill="#005377" cx="1017.994" cy="212.269" r="12.075"/>
	<circle fill="#005377" cx="700.68" cy="200.194" r="12.075"/>
	<circle fill="#005377" cx="568.478" cy="367.064" r="12.075"/>
	<circle fill="#005377" cx="636.613" cy="399.204" r="12.075"/>
	<circle fill="#005377" cx="700.68" cy="288.486" r="12.075"/>
	<circle fill="#005377" cx="447.194" cy="293.562" r="12.075"/>
	<circle fill="#005377" cx="556.403" cy="238.33" r="12.075"/>
	<circle fill="#005377" cx="288.917" cy="161.682" r="12.075"/>
	<circle fill="#005377" cx="132.963" cy="246.203" r="12.075"/>
	<circle fill="#005377" cx="193.708" cy="288.486" r="12.075"/>
	<circle fill="#005377" cx="120.887" cy="411.279" r="12.075"/>
	<circle fill="#005377" cx="205.783" cy="379.139" r="12.075"/>
	<circle fill="#005377" cx="85.444" cy="560.218" r="12.075"/>
	<circle fill="#005377" cx="120.887" cy="621.457" r="12.075"/>
	<circle fill="#005377" cx="387.126" cy="688.979" r="12.075"/>
	<circle fill="#005377" cx="833.703" cy="499.658" r="12.075"/>
	<circle fill="#005377" cx="810.279" cy="581.381" r="12.075"/>
	<circle fill="#005377" cx="810.279" cy="776.985" r="12.075"/>
	<circle fill="#005377" cx="601.169" cy="695.373" r="12.075"/>
	<circle fill="#005377" cx="589.325" cy="568.053" r="12.075"/>
	<path fill="#005377" d="M162.012,671.223c-6.669,0-12.075,5.406-12.075,12.075s5.406,12.075,12.075,12.075
		c6.669,0,12.075-5.406,12.075-12.075S168.681,671.223,162.012,671.223z"/>
	<circle fill="#005377" cx="203.643" cy="610.837" r="12.075"/>
	<circle fill="#005377" cx="366.203" cy="785.706" r="12.075"/>
	<circle fill="#005377" cx="406.956" cy="367.064" r="12.075"/>
</g>
</svg>
