<svg width="91" height="35" viewBox="0 0 91 35" fill="none" xmlns="http://www.w3.org/2000/svg">
<rect x="0.75" y="0.750008" width="14.9286" height="14.9286" rx="2.61735" stroke="#5A1160" stroke-width="1.5"/>
<rect x="0.75" y="18.6071" width="14.9286" height="14.9286" rx="2.61735" stroke="#5A1160" stroke-width="1.5"/>
<rect x="19.3215" y="0.750015" width="14.9286" height="14.9286" rx="2.61735" stroke="#5A1160" stroke-width="1.5"/>
<rect x="19.3215" y="18.6071" width="14.9286" height="14.9286" rx="2.61735" stroke="#5A1160" stroke-width="1.5"/>
<path d="M54.2031 11.5022V23.1429H51.75V11.5022H54.2031ZM58.0781 18.096V23.1429H55.6641V14.4085H58.0391V15.9632H58.125C58.3229 15.4475 58.638 15.0413 59.0703 14.7444C59.5026 14.4475 60.0443 14.2991 60.6953 14.2991C61.2995 14.2991 61.8255 14.4319 62.2734 14.6975C62.7266 14.9632 63.0781 15.3408 63.3281 15.8304C63.5781 16.3199 63.7031 16.9059 63.7031 17.5882V23.1429H61.2891V18.0179C61.2891 17.4866 61.151 17.0699 60.875 16.7679C60.599 16.4606 60.2188 16.3069 59.7344 16.3069C59.4115 16.3069 59.125 16.3798 58.875 16.5257C58.625 16.6663 58.4297 16.8694 58.2891 17.135C58.1484 17.4007 58.0781 17.721 58.0781 18.096ZM65.1328 23.1429V14.4085H67.5469V23.1429H65.1328ZM66.3359 13.2913C65.9766 13.2913 65.6693 13.1715 65.4141 12.9319C65.1589 12.6923 65.0312 12.4033 65.0312 12.0647C65.0312 11.7262 65.1589 11.4397 65.4141 11.2054C65.6693 10.9658 65.9766 10.846 66.3359 10.846C66.7005 10.846 67.0104 10.9658 67.2656 11.2054C67.5208 11.4397 67.6484 11.7262 67.6484 12.0647C67.6484 12.4033 67.5208 12.6923 67.2656 12.9319C67.0104 13.1715 66.7005 13.2913 66.3359 13.2913ZM72.9062 23.3147C72.0156 23.3147 71.25 23.1246 70.6094 22.7444C69.9688 22.359 69.4766 21.8304 69.1328 21.1585C68.7891 20.4814 68.6172 19.7001 68.6172 18.8147C68.6172 17.9189 68.7891 17.1324 69.1328 16.4554C69.4818 15.7783 69.9766 15.2496 70.6172 14.8694C71.2578 14.4892 72.0208 14.2991 72.9062 14.2991C73.6667 14.2991 74.3307 14.4371 74.8984 14.7132C75.4714 14.9892 75.9245 15.3772 76.2578 15.8772C76.5911 16.3772 76.7734 16.9658 76.8047 17.6429H74.5234C74.4818 17.3512 74.3932 17.096 74.2578 16.8772C74.1224 16.6585 73.9427 16.4892 73.7188 16.3694C73.4948 16.2496 73.2344 16.1897 72.9375 16.1897C72.5625 16.1897 72.2344 16.2913 71.9531 16.4944C71.6771 16.6923 71.4609 16.9866 71.3047 17.3772C71.1536 17.7626 71.0781 18.2314 71.0781 18.7835C71.0781 19.3356 71.1536 19.8095 71.3047 20.2054C71.4609 20.6012 71.6771 20.9033 71.9531 21.1116C72.2344 21.3199 72.5625 21.4241 72.9375 21.4241C73.3542 21.4241 73.7057 21.2939 73.9922 21.0335C74.2786 20.7679 74.4557 20.4033 74.5234 19.9397H76.8047C76.7682 20.6064 76.5885 21.1949 76.2656 21.7054C75.9427 22.2106 75.4974 22.6064 74.9297 22.8929C74.362 23.1741 73.6875 23.3147 72.9062 23.3147ZM77.8516 23.1429V14.4085H80.2656V23.1429H77.8516ZM79.0547 13.2913C78.6953 13.2913 78.388 13.1715 78.1328 12.9319C77.8776 12.6923 77.75 12.4033 77.75 12.0647C77.75 11.7262 77.8776 11.4397 78.1328 11.2054C78.388 10.9658 78.6953 10.846 79.0547 10.846C79.4193 10.846 79.7292 10.9658 79.9844 11.2054C80.2396 11.4397 80.3672 11.7262 80.3672 12.0647C80.3672 12.4033 80.2396 12.6923 79.9844 12.9319C79.7292 13.1715 79.4193 13.2913 79.0547 13.2913ZM85.625 23.3147C84.7448 23.3147 83.9818 23.1272 83.3359 22.7522C82.6953 22.372 82.2005 21.846 81.8516 21.1741C81.5078 20.497 81.3359 19.7106 81.3359 18.8147C81.3359 17.9085 81.5078 17.1194 81.8516 16.4475C82.2005 15.7705 82.6953 15.2444 83.3359 14.8694C83.9818 14.4892 84.7448 14.2991 85.625 14.2991C86.5104 14.2991 87.2734 14.4892 87.9141 14.8694C88.5599 15.2444 89.0547 15.7705 89.3984 16.4475C89.7474 17.1194 89.9219 17.9085 89.9219 18.8147C89.9219 19.7106 89.7474 20.497 89.3984 21.1741C89.0547 21.846 88.5599 22.372 87.9141 22.7522C87.2734 23.1272 86.5104 23.3147 85.625 23.3147ZM85.6406 21.4241C86.0417 21.4241 86.3776 21.3121 86.6484 21.0882C86.9193 20.859 87.1224 20.5465 87.2578 20.1507C87.3984 19.7548 87.4688 19.3043 87.4688 18.7991C87.4688 18.2887 87.3984 17.8382 87.2578 17.4475C87.1224 17.0569 86.9193 16.7496 86.6484 16.5257C86.3776 16.3017 86.0417 16.1897 85.6406 16.1897C85.2344 16.1897 84.8932 16.3017 84.6172 16.5257C84.3464 16.7496 84.1406 17.0569 84 17.4475C83.8646 17.8382 83.7969 18.2887 83.7969 18.7991C83.7969 19.3043 83.8646 19.7548 84 20.1507C84.1406 20.5465 84.3464 20.859 84.6172 21.0882C84.8932 21.3121 85.2344 21.4241 85.6406 21.4241Z" fill="#5A1160"/>
</svg>
