<svg width="106" height="43" viewBox="0 0 106 43" fill="none" xmlns="http://www.w3.org/2000/svg">
<path d="M42.8736 24.4591C45.6633 24.223 47.1982 27.541 45.3113 29.5775L27.6643 41.505C26.1294 42.3698 25.0251 42.2868 23.3682 41.8371L11.2686 37.682L6.26172 40.9456L5.78784 40.911L0.000918507 32.3387C-0.0207003 32.0075 0.344225 31.729 0.576843 31.5388C3.696 29.811 6.73647 26.9357 9.8859 25.3688C13.0708 23.7837 15.64 24.5369 18.651 25.9741C22.4369 27.7814 26.1329 29.8949 29.8755 31.7852L30.4817 32.3741L41.6863 24.8274C42.0547 24.6311 42.4559 24.4945 42.8745 24.4591H42.8736ZM29.1119 35.2987C29.8228 34.6346 29.7112 33.3738 28.9113 32.8359C24.9646 30.9966 21.2098 28.6462 17.2397 26.8665C14.7864 25.7666 12.7845 25.444 10.3191 26.7532L1.73475 32.5177L6.28248 39.2161L10.6088 36.3831L11.1951 36.1903C15.8674 37.6292 20.3944 39.5654 25.1332 40.7683C25.8215 40.8184 26.4805 40.5573 27.0599 40.2096L44.2667 28.6202C45.3217 27.3473 44.4578 25.642 42.7672 25.9101C38.7669 28.4092 34.8288 31.1142 30.9781 33.8269C31.2427 36.0044 29.105 37.6967 27.0054 36.9919C24.1465 36.032 21.0576 33.7543 18.1564 32.6967C17.1204 32.2617 17.5217 30.949 18.6545 31.3338L27.4127 35.6325C27.967 35.847 28.677 35.7069 29.1119 35.3005V35.2987Z" fill="#5A1160"/>
<path d="M28.894 6.34856C36.8523 6.35375 41.5817 15.3826 36.9086 21.953C32.4248 28.2571 22.7431 27.0845 19.7891 20.0376C12.1498 19.9684 7.3816 11.6521 11.4131 5.01857C15.589 -1.85447 25.8501 -1.01739 28.894 6.34943V6.34856ZM27.4118 6.44542C26.4139 4.40201 24.4985 2.73736 22.3098 2.08015C15.7048 0.0964063 9.61698 6.35808 11.823 12.9129C12.91 16.1419 15.9158 18.3366 19.2823 18.6401C19.0436 17.3871 18.9105 16.1125 19.1042 14.8422C18.1962 14.7315 16.4857 14.0033 16.6085 12.8956C16.6457 12.5592 17.0781 12.3128 17.385 12.3638C17.7785 12.4286 18.0959 13.0314 18.5136 13.2268C18.8041 13.3634 19.1414 13.4049 19.4553 13.4516C19.6118 12.5583 20.0865 11.7792 20.4938 10.9888C19.7553 10.6412 18.8793 10.5997 18.1261 10.2408C15.6504 9.05956 16.5566 5.85911 19.0722 5.50111C18.971 4.00681 20.7109 3.97049 20.5284 5.50111C21.2859 5.6559 22.1135 6.00872 22.5684 6.66333C22.999 7.2825 22.5684 7.96824 21.8368 7.82988C21.5653 7.77886 21.2678 7.25655 20.9271 7.09398C20.1401 6.71781 18.4115 6.75846 18.1296 7.75897C17.6946 9.30515 20.557 9.33455 21.4745 9.73926C22.9428 7.95787 25.128 6.79564 27.411 6.44542H27.4118ZM28.2593 7.76935C21.7754 8.26918 18.1919 15.6585 21.9449 21.0364C25.8864 26.6849 34.6317 25.4855 36.8774 18.9817C38.8577 13.2467 34.291 7.30498 28.2593 7.76935Z" fill="#5A1160"/>
<path d="M29.5847 11.537C30.3603 11.5898 32.4729 12.7529 31.6212 13.6825C30.9812 14.3812 30.3941 13.2709 29.8303 13.0633C29.0468 12.7745 27.3821 12.8359 27.1711 13.8589C27.0406 14.4954 27.3458 14.7868 27.8699 15.0229C28.6135 15.3575 29.5163 15.4189 30.2868 15.7181C33.1924 16.8475 32.4695 20.3238 29.6564 20.8409C29.4454 20.9983 29.7905 21.7264 29.1359 21.9634C28.3991 22.2297 28.0843 21.5353 28.1777 20.898C27.3484 20.7717 25.906 20.1967 25.6492 19.3129C25.4572 18.6514 26.1819 18.1524 26.763 18.5519C26.9437 18.6764 27.0163 18.8926 27.1599 19.0189C28.0316 19.7859 30.5229 19.7124 30.6898 18.3279C30.8757 16.7878 28.4735 16.8241 27.3882 16.3701C24.6979 15.2442 25.4952 11.9175 28.1786 11.537C27.9745 10.0281 29.7905 10.035 29.5838 11.537H29.5847Z" fill="#5A1160"/>
<path d="M62.8945 27.2408V15.6002H67.4805C68.3607 15.6002 69.1107 15.7695 69.7305 16.108C70.3555 16.4413 70.832 16.9049 71.1602 17.4986C71.4935 18.0924 71.6602 18.7773 71.6602 19.5533C71.6602 20.3241 71.4935 21.0038 71.1602 21.5924C70.8268 22.1809 70.3424 22.6419 69.707 22.9752C69.0768 23.3033 68.3138 23.4674 67.418 23.4674H64.4961V21.4986H67.0195C67.4935 21.4986 67.8841 21.4153 68.1914 21.2486C68.5039 21.082 68.7357 20.8528 68.8867 20.5611C69.043 20.2695 69.1211 19.9335 69.1211 19.5533C69.1211 19.1627 69.043 18.8241 68.8867 18.5377C68.7357 18.246 68.5039 18.0195 68.1914 17.858C67.8789 17.6965 67.4857 17.6158 67.0117 17.6158H65.3477V27.2408H62.8945ZM74.9492 27.4049C74.3971 27.4049 73.8997 27.3085 73.457 27.1158C73.0195 26.9179 72.6758 26.6262 72.4258 26.2408C72.1758 25.8554 72.0508 25.3762 72.0508 24.8033C72.0508 24.3137 72.1393 23.9075 72.3164 23.5846C72.4935 23.2564 72.7357 22.9908 73.043 22.7877C73.3503 22.5846 73.6992 22.4309 74.0898 22.3268C74.4805 22.2226 74.8945 22.1497 75.332 22.108C75.8372 22.0611 76.2435 22.0143 76.5508 21.9674C76.8581 21.9205 77.082 21.8502 77.2227 21.7564C77.3685 21.6575 77.4414 21.5169 77.4414 21.3346V21.2955C77.4414 20.9361 77.3268 20.6575 77.0977 20.4596C76.8737 20.2616 76.556 20.1627 76.1445 20.1627C75.7122 20.1627 75.3659 20.259 75.1055 20.4518C74.8503 20.6393 74.681 20.8788 74.5977 21.1705L72.3555 20.9908C72.4701 20.4596 72.694 20.0012 73.0273 19.6158C73.3607 19.2252 73.7904 18.9257 74.3164 18.7174C74.8477 18.5038 75.4622 18.3971 76.1602 18.3971C76.6445 18.3971 77.1081 18.4544 77.5508 18.5689C77.9935 18.6835 78.3867 18.8606 78.7305 19.1002C79.0794 19.3346 79.3555 19.6393 79.5586 20.0143C79.7617 20.3893 79.8633 20.8346 79.8633 21.3502V27.2408H77.5586V26.0221H77.4961C77.3555 26.2981 77.168 26.5403 76.9336 26.7486C76.6992 26.9518 76.418 27.1132 76.0898 27.233C75.7617 27.3476 75.3815 27.4049 74.9492 27.4049ZM75.6445 25.733C75.9987 25.733 76.3112 25.6627 76.582 25.5221C76.8581 25.3762 77.0716 25.1835 77.2227 24.9439C77.3789 24.6991 77.457 24.4257 77.457 24.1236V23.1939C77.3841 23.2408 77.2799 23.2851 77.1445 23.3268C77.0143 23.3684 76.8685 23.4049 76.707 23.4361C76.5456 23.4674 76.3841 23.496 76.2227 23.5221C76.0612 23.5429 75.9154 23.5637 75.7852 23.5846C75.4987 23.6262 75.2487 23.6939 75.0352 23.7877C74.8216 23.8762 74.6549 23.9986 74.5352 24.1549C74.4206 24.3059 74.3633 24.496 74.3633 24.7252C74.3633 25.0533 74.4831 25.3033 74.7227 25.4752C74.9622 25.6471 75.2695 25.733 75.6445 25.733ZM85.1836 30.6939C84.0065 30.6939 83.0846 30.4596 82.418 29.9908C81.7513 29.5273 81.3451 28.9491 81.1992 28.2564L83.4336 27.9596C83.5013 28.1366 83.6081 28.3007 83.7539 28.4518C83.8997 28.6028 84.0951 28.7226 84.3398 28.8111C84.5846 28.9049 84.8841 28.9518 85.2383 28.9518C85.7643 28.9518 86.1992 28.8241 86.543 28.5689C86.8867 28.3189 87.0586 27.8945 87.0586 27.2955V25.6939H86.957C86.8529 25.9335 86.694 26.1627 86.4805 26.3814C86.2669 26.6002 85.9935 26.7773 85.6602 26.9127C85.3268 27.0481 84.9284 27.1158 84.4648 27.1158C83.8086 27.1158 83.2122 26.9648 82.6758 26.6627C82.1445 26.3554 81.7174 25.8866 81.3945 25.2564C81.0768 24.6262 80.918 23.8294 80.918 22.8658C80.918 21.871 81.0794 21.0429 81.4023 20.3814C81.7305 19.72 82.1628 19.2252 82.6992 18.8971C83.2357 18.5637 83.8242 18.3971 84.4648 18.3971C84.9544 18.3971 85.3633 18.4804 85.6914 18.6471C86.0247 18.8085 86.2956 19.0116 86.5039 19.2564C86.7122 19.5012 86.8685 19.7434 86.9727 19.983H87.0664V18.5064H89.4492V27.3346C89.4492 28.0741 89.2669 28.6939 88.9023 29.1939C88.5378 29.6939 88.0352 30.0689 87.3945 30.3189C86.7539 30.5689 86.0169 30.6939 85.1836 30.6939ZM85.2305 25.2955C85.8138 25.2955 86.2643 25.0794 86.582 24.6471C86.9049 24.2148 87.0664 23.6158 87.0664 22.8502C87.0664 22.3398 86.9935 21.8971 86.8477 21.5221C86.707 21.1419 86.5013 20.8476 86.2305 20.6393C85.9596 20.4257 85.6263 20.3189 85.2305 20.3189C84.8346 20.3189 84.4987 20.4283 84.2227 20.6471C83.9518 20.8606 83.7461 21.1575 83.6055 21.5377C83.4648 21.9179 83.3945 22.3554 83.3945 22.8502C83.3945 23.3502 83.4648 23.7851 83.6055 24.1549C83.7461 24.5195 83.9518 24.8007 84.2227 24.9986C84.4987 25.1965 84.8346 25.2955 85.2305 25.2955ZM93.3555 27.4049C92.8034 27.4049 92.306 27.3085 91.8633 27.1158C91.4258 26.9179 91.082 26.6262 90.832 26.2408C90.582 25.8554 90.457 25.3762 90.457 24.8033C90.457 24.3137 90.5456 23.9075 90.7227 23.5846C90.8997 23.2564 91.1419 22.9908 91.4492 22.7877C91.7565 22.5846 92.1055 22.4309 92.4961 22.3268C92.8867 22.2226 93.3008 22.1497 93.7383 22.108C94.2435 22.0611 94.6497 22.0143 94.957 21.9674C95.2643 21.9205 95.4883 21.8502 95.6289 21.7564C95.7747 21.6575 95.8477 21.5169 95.8477 21.3346V21.2955C95.8477 20.9361 95.7331 20.6575 95.5039 20.4596C95.2799 20.2616 94.9622 20.1627 94.5508 20.1627C94.1185 20.1627 93.7721 20.259 93.5117 20.4518C93.2565 20.6393 93.0872 20.8788 93.0039 21.1705L90.7617 20.9908C90.8763 20.4596 91.1003 20.0012 91.4336 19.6158C91.7669 19.2252 92.1966 18.9257 92.7227 18.7174C93.2539 18.5038 93.8685 18.3971 94.5664 18.3971C95.0508 18.3971 95.5143 18.4544 95.957 18.5689C96.3997 18.6835 96.793 18.8606 97.1367 19.1002C97.4857 19.3346 97.7617 19.6393 97.9648 20.0143C98.168 20.3893 98.2695 20.8346 98.2695 21.3502V27.2408H95.9648V26.0221H95.9023C95.7617 26.2981 95.5742 26.5403 95.3398 26.7486C95.1055 26.9518 94.8242 27.1132 94.4961 27.233C94.168 27.3476 93.7878 27.4049 93.3555 27.4049ZM94.0508 25.733C94.4049 25.733 94.7174 25.6627 94.9883 25.5221C95.2643 25.3762 95.4779 25.1835 95.6289 24.9439C95.7852 24.6991 95.8633 24.4257 95.8633 24.1236V23.1939C95.7904 23.2408 95.6862 23.2851 95.5508 23.3268C95.4206 23.3684 95.2747 23.4049 95.1133 23.4361C94.9518 23.4674 94.7904 23.496 94.6289 23.5221C94.4674 23.5429 94.3216 23.5637 94.1914 23.5846C93.9049 23.6262 93.6549 23.6939 93.4414 23.7877C93.2279 23.8762 93.0612 23.9986 92.9414 24.1549C92.8268 24.3059 92.7695 24.496 92.7695 24.7252C92.7695 25.0533 92.8893 25.3033 93.1289 25.4752C93.3685 25.6471 93.6758 25.733 94.0508 25.733ZM99.6836 27.2408V18.5064H102.02V20.0377H102.113C102.275 19.496 102.543 19.0872 102.918 18.8111C103.293 18.5299 103.723 18.3893 104.207 18.3893C104.332 18.3893 104.462 18.3971 104.598 18.4127C104.738 18.4231 104.863 18.4439 104.973 18.4752V20.6158C104.858 20.5794 104.699 20.5507 104.496 20.5299C104.298 20.5038 104.113 20.4908 103.941 20.4908C103.592 20.4908 103.277 20.5689 102.996 20.7252C102.715 20.8762 102.493 21.0898 102.332 21.3658C102.176 21.6366 102.098 21.9491 102.098 22.3033V27.2408H99.6836Z" fill="#5A1160"/>
</svg>
