<svg width="177" height="47" viewBox="0 0 177 47" fill="none" xmlns="http://www.w3.org/2000/svg">
<path d="M20.2741 10.3538L15.3193 12.3423L18.0111 18.9204L16.592 19.4217L13.7754 12.4081C13.8537 11.9532 14.0488 11.5085 14.439 11.2488C15.2342 10.7202 20.0847 9.04019 20.2503 8.77135C20.4953 6.67961 19.9996 4.11145 20.2866 2.07757C20.4522 0.908053 21.5151 0.344282 22.6075 0.288699C26.648 0.593839 31.2478 -0.103785 35.2203 0.295505C36.2412 0.397597 37.0579 0.804828 37.3574 1.84276L37.4413 9.05607C37.5831 9.28294 41.6883 10.7519 42.3633 11.1523C42.8805 11.4598 43.1051 11.7819 43.2038 12.4047L39.8666 20.6264C41.956 22.4017 42.2487 24.6636 40.5358 26.8585C42.5561 29.4777 41.8744 32.2399 39.4344 34.242C40.3441 37.0801 38.9126 39.3114 36.442 40.5989C37.8939 42.9549 36.3127 45.3972 33.9373 46.1889C28.9587 45.8747 23.4083 46.637 18.4977 46.2037C16.2631 46.0063 14.4356 42.2573 12.1159 41.9601C11.7937 41.9181 9.71788 41.8398 9.59424 41.934C9.43316 42.702 8.9885 43.5402 8.23189 43.8613C7.44011 44.197 3.513 44.1732 2.49549 44.0722C1.04466 43.9293 0.28238 43.2192 0.150796 41.7412C-0.329033 36.378 0.522862 30.3115 0.154199 24.8734C0.166677 24.4843 0.337963 24.1531 0.715701 24.0181L11.1256 23.9432C12.6865 23.57 13.9308 22.4811 15.3613 21.8039C19.1647 20.0014 24.655 19.0576 28.7817 20.0547C31.2966 20.6616 32.9255 24.1905 33.7377 26.4331C34.4966 28.5271 35.4449 31.3721 32.5988 32.3828C29.2854 33.5602 27.7994 29.9065 25.7337 28.4863C25.6146 28.4046 25.5851 28.2923 25.3787 28.3491C24.6209 30.1583 21.2723 32.1661 19.3848 31.8599C18.8051 31.7657 18.6679 30.9104 19.0592 30.6019C19.3167 30.3988 20.9706 30.2117 21.5491 29.9757C22.7844 29.4721 23.7498 28.4409 24.4077 27.3089C24.7968 26.6385 25.297 24.676 26.0128 24.676C27.3842 24.6749 26.1795 26.736 26.2442 26.9118C26.2487 26.9254 26.4189 26.9323 26.504 27.0377C27.425 28.1891 29.8128 31.0409 31.2966 31.152C32.2426 31.2235 33.2306 30.3852 33.1648 29.4278C33.1093 28.6315 32.0282 25.9613 31.6346 25.1354C31.1514 24.1225 29.797 21.8424 28.7307 21.5214C25.0883 20.4245 19.4857 21.5191 16.0714 23.0811C15.0516 23.5474 12.4108 25.3725 11.5623 25.3725H9.50803V40.3913C10.4666 40.3652 11.4285 40.3936 12.3734 40.5705C14.9472 41.0549 16.2812 43.3939 18.3627 44.7823H26.0842C25.3526 43.2124 25.4694 41.6561 26.783 40.4616C24.9454 38.7567 25.3503 35.7836 27.7869 34.9396C28.6683 34.6345 30.9937 34.6106 31.9658 34.7218C33.0321 34.8432 32.9505 35.939 32.3595 36.1125C31.081 36.488 28.4369 35.534 27.4319 36.8521C26.6197 37.9184 27.2662 39.4713 28.5719 39.6732C29.2219 39.7742 32.0101 39.3 31.2557 40.8167C31.0096 41.3112 28.86 40.9585 28.0126 41.3997C26.3383 42.2732 27.0019 44.4715 28.8827 44.746C29.7005 44.8652 33.0174 44.9071 33.7377 44.7165C35.0728 44.3649 35.8192 42.9776 35.3598 41.6686C35.1227 40.9948 34.3809 40.4979 34.6883 39.8581C34.8607 39.5008 36.3115 39.0165 36.8379 38.607C37.5967 38.0182 38.2547 37.062 38.2785 36.0683C38.3 35.1903 37.7737 34.3951 37.8656 33.5466C38.3023 33.0407 38.8581 32.8275 39.33 32.3159C41.1166 30.3795 40.0946 28.6156 38.6937 26.8642C38.6755 26.1995 40.5721 25.2217 40.1536 23.5576C39.963 22.801 39.4525 21.9252 38.6233 21.8277C36.9173 21.6258 34.8675 22.0069 33.1217 21.8039L32.0328 20.4132H35.9996V2.20802C35.9996 1.92103 35.2044 1.72932 34.9435 1.7055C31.0334 1.34478 26.5777 1.99135 22.6075 1.7089L21.8214 2.05601L21.6955 18.0526L20.273 18.4303V10.3549L20.2741 10.3538ZM37.4175 10.6374V20.4132C37.7295 20.3746 38.2547 20.5436 38.4804 20.2725L41.677 12.4217L37.4175 10.6385V10.6374ZM8.09009 25.3714H1.71506V42.1597C1.71506 42.2652 2.05877 42.4808 2.21417 42.5102C3.08308 42.677 6.03919 42.6294 7.08847 42.6078C7.34029 42.6033 8.09009 42.4116 8.09009 42.1597V25.3714Z" fill="#5A1160"/>
<path d="M28.4617 7.84228C33.9837 7.33749 34.847 15.7294 29.5427 16.435C23.5715 17.2279 22.7854 8.36181 28.4617 7.84228ZM28.0284 9.39407C25.1313 9.99187 25.3752 15.0386 28.8463 15.0397C32.8936 15.0397 32.5567 8.4605 28.0284 9.39407Z" fill="#5A1160"/>
<path d="M4.29897 28.2401C4.8843 27.6571 5.96306 28.3695 5.46962 29.1998C4.97618 30.0301 3.56959 28.9673 4.29897 28.2401Z" fill="#5A1160"/>
<path d="M59.9536 17.6139H62.9927L66.1958 25.4342H66.3286L69.5396 17.6139H72.5864V29.2545H70.1802V21.6764H70.0864L67.063 29.1999H65.438L62.438 21.6608H62.3442V29.2545H59.9536V17.6139ZM74.0552 29.2545V20.5202H76.4692V29.2545H74.0552ZM75.2583 19.403C74.8989 19.403 74.5916 19.2832 74.3364 19.0436C74.0812 18.804 73.9536 18.515 73.9536 18.1764C73.9536 17.8379 74.0812 17.5514 74.3364 17.317C74.5916 17.0775 74.8989 16.9577 75.2583 16.9577C75.6229 16.9577 75.9328 17.0775 76.188 17.317C76.4432 17.5514 76.5708 17.8379 76.5708 18.1764C76.5708 18.515 76.4432 18.804 76.188 19.0436C75.9328 19.2832 75.6229 19.403 75.2583 19.403ZM85.1489 23.0124L82.938 23.1452C82.8807 22.8691 82.7271 22.6322 82.4771 22.4342C82.2271 22.2311 81.8911 22.1295 81.4692 22.1295C81.0942 22.1295 80.7791 22.2077 80.5239 22.3639C80.2739 22.5202 80.1489 22.7285 80.1489 22.9889C80.1489 23.1973 80.2297 23.3769 80.3911 23.528C80.5578 23.6738 80.8416 23.7884 81.2427 23.8717L82.8286 24.1842C83.6776 24.3561 84.3104 24.6348 84.7271 25.0202C85.1437 25.4056 85.3521 25.9134 85.3521 26.5436C85.3521 27.1217 85.1854 27.6269 84.8521 28.0592C84.5187 28.4863 84.0604 28.8223 83.4771 29.067C82.8937 29.3066 82.2244 29.4264 81.4692 29.4264C80.313 29.4264 79.3911 29.1842 78.7036 28.6999C78.0213 28.2155 77.6229 27.5592 77.5083 26.7311L79.8755 26.6061C79.9536 26.9603 80.1307 27.2285 80.4067 27.4108C80.6828 27.5931 81.0369 27.6842 81.4692 27.6842C81.8911 27.6842 82.2323 27.6009 82.4927 27.4342C82.7583 27.2676 82.8911 27.0566 82.8911 26.8014C82.8911 26.3691 82.5161 26.0775 81.7661 25.9264L80.2583 25.6139C79.4093 25.442 78.7765 25.1478 78.3599 24.7311C77.9432 24.3144 77.7349 23.7806 77.7349 23.1295C77.7349 22.567 77.8885 22.0827 78.1958 21.6764C78.5031 21.2702 78.9328 20.9577 79.4849 20.7389C80.0422 20.5202 80.6932 20.4108 81.438 20.4108C82.5422 20.4108 83.4093 20.6452 84.0396 21.1139C84.675 21.5775 85.0448 22.2103 85.1489 23.0124ZM89.5552 32.5202V20.5202H91.9302V21.9967H92.0396C92.1489 21.7572 92.3052 21.515 92.5083 21.2702C92.7114 21.0254 92.9771 20.8223 93.3052 20.6608C93.6333 20.4941 94.0396 20.4108 94.5239 20.4108C95.1646 20.4108 95.7505 20.5775 96.2817 20.9108C96.8182 21.2389 97.2479 21.7363 97.5708 22.403C97.8937 23.0697 98.0552 23.903 98.0552 24.903C98.0552 25.8717 97.8989 26.692 97.5864 27.3639C97.2739 28.0306 96.8494 28.5358 96.313 28.8795C95.7817 29.2233 95.1828 29.3952 94.5161 29.3952C94.0474 29.3952 93.6489 29.317 93.3208 29.1608C92.9927 29.0045 92.7244 28.8092 92.5161 28.5749C92.313 28.3353 92.1541 28.0957 92.0396 27.8561H91.9692V32.5202H89.5552ZM93.7505 27.4733C94.1463 27.4733 94.4797 27.3639 94.7505 27.1452C95.0213 26.9264 95.2271 26.6243 95.3677 26.2389C95.5083 25.8483 95.5786 25.4004 95.5786 24.8952C95.5786 24.39 95.5083 23.9473 95.3677 23.567C95.2323 23.1816 95.0291 22.8795 94.7583 22.6608C94.4875 22.442 94.1515 22.3327 93.7505 22.3327C93.3599 22.3327 93.0265 22.4394 92.7505 22.653C92.4797 22.8613 92.2713 23.1582 92.1255 23.5436C91.9849 23.9238 91.9146 24.3743 91.9146 24.8952C91.9146 25.4108 91.9875 25.8613 92.1333 26.2467C92.2791 26.6322 92.4875 26.9342 92.7583 27.153C93.0343 27.3665 93.3651 27.4733 93.7505 27.4733ZM101.602 29.4186C101.05 29.4186 100.553 29.3223 100.11 29.1295C99.6724 28.9316 99.3286 28.64 99.0786 28.2545C98.8286 27.8691 98.7036 27.39 98.7036 26.817C98.7036 26.3275 98.7922 25.9212 98.9692 25.5983C99.1463 25.2702 99.3885 25.0045 99.6958 24.8014C100.003 24.5983 100.352 24.4447 100.743 24.3405C101.133 24.2363 101.547 24.1634 101.985 24.1217C102.49 24.0749 102.896 24.028 103.204 23.9811C103.511 23.9342 103.735 23.8639 103.875 23.7702C104.021 23.6712 104.094 23.5306 104.094 23.3483V23.3092C104.094 22.9499 103.98 22.6712 103.75 22.4733C103.527 22.2754 103.209 22.1764 102.797 22.1764C102.365 22.1764 102.019 22.2728 101.758 22.4655C101.503 22.653 101.334 22.8926 101.25 23.1842L99.0083 23.0045C99.1229 22.4733 99.3468 22.015 99.6802 21.6295C100.014 21.2389 100.443 20.9394 100.969 20.7311C101.5 20.5176 102.115 20.4108 102.813 20.4108C103.297 20.4108 103.761 20.4681 104.204 20.5827C104.646 20.6973 105.04 20.8743 105.383 21.1139C105.732 21.3483 106.008 21.653 106.211 22.028C106.415 22.403 106.516 22.8483 106.516 23.3639V29.2545H104.211V28.0358H104.149C104.008 28.3118 103.821 28.554 103.586 28.7624C103.352 28.9655 103.071 29.1269 102.743 29.2467C102.415 29.3613 102.034 29.4186 101.602 29.4186ZM102.297 27.7467C102.652 27.7467 102.964 27.6764 103.235 27.5358C103.511 27.39 103.724 27.1973 103.875 26.9577C104.032 26.7129 104.11 26.4394 104.11 26.1374V25.2077C104.037 25.2545 103.933 25.2988 103.797 25.3405C103.667 25.3822 103.521 25.4186 103.36 25.4499C103.198 25.4811 103.037 25.5098 102.875 25.5358C102.714 25.5566 102.568 25.5775 102.438 25.5983C102.152 25.64 101.902 25.7077 101.688 25.8014C101.474 25.89 101.308 26.0124 101.188 26.1686C101.073 26.3197 101.016 26.5098 101.016 26.7389C101.016 27.067 101.136 27.317 101.375 27.4889C101.615 27.6608 101.922 27.7467 102.297 27.7467ZM111.836 32.7077C110.659 32.7077 109.737 32.4733 109.071 32.0045C108.404 31.541 107.998 30.9629 107.852 30.2702L110.086 29.9733C110.154 30.1504 110.261 30.3144 110.407 30.4655C110.553 30.6165 110.748 30.7363 110.993 30.8249C111.237 30.9186 111.537 30.9655 111.891 30.9655C112.417 30.9655 112.852 30.8379 113.196 30.5827C113.54 30.3327 113.711 29.9082 113.711 29.3092V27.7077H113.61C113.506 27.9473 113.347 28.1764 113.133 28.3952C112.92 28.6139 112.646 28.791 112.313 28.9264C111.98 29.0618 111.581 29.1295 111.118 29.1295C110.461 29.1295 109.865 28.9785 109.329 28.6764C108.797 28.3691 108.37 27.9004 108.047 27.2702C107.73 26.64 107.571 25.8431 107.571 24.8795C107.571 23.8848 107.732 23.0566 108.055 22.3952C108.383 21.7337 108.816 21.2389 109.352 20.9108C109.889 20.5775 110.477 20.4108 111.118 20.4108C111.607 20.4108 112.016 20.4941 112.344 20.6608C112.678 20.8223 112.948 21.0254 113.157 21.2702C113.365 21.515 113.521 21.7572 113.625 21.9967H113.719V20.5202H116.102V29.3483C116.102 30.0879 115.92 30.7077 115.555 31.2077C115.191 31.7077 114.688 32.0827 114.047 32.3327C113.407 32.5827 112.67 32.7077 111.836 32.7077ZM111.883 27.3092C112.467 27.3092 112.917 27.0931 113.235 26.6608C113.558 26.2285 113.719 25.6295 113.719 24.8639C113.719 24.3535 113.646 23.9108 113.5 23.5358C113.36 23.1556 113.154 22.8613 112.883 22.653C112.612 22.4394 112.279 22.3327 111.883 22.3327C111.487 22.3327 111.152 22.442 110.875 22.6608C110.605 22.8743 110.399 23.1712 110.258 23.5514C110.118 23.9316 110.047 24.3691 110.047 24.8639C110.047 25.3639 110.118 25.7988 110.258 26.1686C110.399 26.5332 110.605 26.8144 110.875 27.0124C111.152 27.2103 111.487 27.3092 111.883 27.3092ZM121.454 29.4264C120.573 29.4264 119.81 29.2389 119.165 28.8639C118.524 28.4837 118.029 27.9577 117.68 27.2858C117.336 26.6087 117.165 25.8223 117.165 24.9264C117.165 24.0202 117.336 23.2311 117.68 22.5592C118.029 21.8822 118.524 21.3561 119.165 20.9811C119.81 20.6009 120.573 20.4108 121.454 20.4108C122.339 20.4108 123.102 20.6009 123.743 20.9811C124.389 21.3561 124.883 21.8822 125.227 22.5592C125.576 23.2311 125.75 24.0202 125.75 24.9264C125.75 25.8223 125.576 26.6087 125.227 27.2858C124.883 27.9577 124.389 28.4837 123.743 28.8639C123.102 29.2389 122.339 29.4264 121.454 29.4264ZM121.469 27.5358C121.87 27.5358 122.206 27.4238 122.477 27.1999C122.748 26.9707 122.951 26.6582 123.086 26.2624C123.227 25.8665 123.297 25.416 123.297 24.9108C123.297 24.4004 123.227 23.9499 123.086 23.5592C122.951 23.1686 122.748 22.8613 122.477 22.6374C122.206 22.4134 121.87 22.3014 121.469 22.3014C121.063 22.3014 120.722 22.4134 120.446 22.6374C120.175 22.8613 119.969 23.1686 119.829 23.5592C119.693 23.9499 119.625 24.4004 119.625 24.9108C119.625 25.416 119.693 25.8665 119.829 26.2624C119.969 26.6582 120.175 26.9707 120.446 27.1999C120.722 27.4238 121.063 27.5358 121.469 27.5358ZM134.071 23.0124L131.86 23.1452C131.803 22.8691 131.649 22.6322 131.399 22.4342C131.149 22.2311 130.813 22.1295 130.391 22.1295C130.016 22.1295 129.701 22.2077 129.446 22.3639C129.196 22.5202 129.071 22.7285 129.071 22.9889C129.071 23.1973 129.152 23.3769 129.313 23.528C129.48 23.6738 129.764 23.7884 130.165 23.8717L131.75 24.1842C132.599 24.3561 133.232 24.6348 133.649 25.0202C134.066 25.4056 134.274 25.9134 134.274 26.5436C134.274 27.1217 134.107 27.6269 133.774 28.0592C133.441 28.4863 132.982 28.8223 132.399 29.067C131.816 29.3066 131.146 29.4264 130.391 29.4264C129.235 29.4264 128.313 29.1842 127.625 28.6999C126.943 28.2155 126.545 27.5592 126.43 26.7311L128.797 26.6061C128.875 26.9603 129.053 27.2285 129.329 27.4108C129.605 27.5931 129.959 27.6842 130.391 27.6842C130.813 27.6842 131.154 27.6009 131.415 27.4342C131.68 27.2676 131.813 27.0566 131.813 26.8014C131.813 26.3691 131.438 26.0775 130.688 25.9264L129.18 25.6139C128.331 25.442 127.698 25.1478 127.282 24.7311C126.865 24.3144 126.657 23.7806 126.657 23.1295C126.657 22.567 126.81 22.0827 127.118 21.6764C127.425 21.2702 127.855 20.9577 128.407 20.7389C128.964 20.5202 129.615 20.4108 130.36 20.4108C131.464 20.4108 132.331 20.6452 132.961 21.1139C133.597 21.5775 133.967 22.2103 134.071 23.0124Z" fill="#5A1160"/>
</svg>
